<?xml version="1.0" standalone="no"?>
<!DOCTYPE svg PUBLIC "-//W3C//DTD SVG 1.1//EN" "http://www.w3.org/Graphics/SVG/1.1/DTD/svg11.dtd" >
<svg xmlns="http://www.w3.org/2000/svg" xmlns:xlink="http://www.w3.org/1999/xlink" version="1.1">
<metadata>
Created by FontForge 20161116 at Mon Sep 24 17:47:38 2012
 By Jimmy Wärting
Copyright (c) 1997-2012 Linotype GmbH, www.linotype.com. All rights reserved. This font software may not be reproduced, modified, disclosed or transferred without the express written approval of Linotype GmbH. Linotype Brewery is a trademark of Linotype GmbH and may be registered in certain jurisdictions. This typeface is original artwork of Gustavs Andrejs Grinbergs. The design may be protected in certain jurisdictions.
</metadata>
<defs>
<font id="BreweryNo2CYR-Heavy" horiz-adv-x="500" >
  <font-face 
    font-family="Brewery No2 CYR Heavy"
    font-weight="850"
    font-stretch="normal"
    units-per-em="1000"
    panose-1="2 11 10 3 5 3 3 2 2 3"
    ascent="773"
    descent="-227"
    x-height="501"
    cap-height="728"
    bbox="-212 -253 1308 986"
    underline-thickness="31"
    underline-position="-126"
    stemh="121"
    stemv="165"
    unicode-range="U+0020-FB06"
  />
<missing-glyph horiz-adv-x="485" 
d="M210 111v63h53v-63h-53zM211 222v16c0 68 12 90 57 131c40 38 46 57 46 80c0 45 -33 80 -72 80c-38 0 -70 -25 -77 -90c-16 3 -32 5 -48 8c9 91 60 130 128 130c69 0 118 -49 118 -124c0 -41 -12 -69 -60 -113c-50 -45 -46 -51 -46 -118h-46zM47 47h391v585h-391v-585z
M0 0v680h485v-680h-485z" />
    <glyph glyph-name="napostrophe" unicode="&#x27;n" horiz-adv-x="566" 
d="M53 0v402l-36 62l186 49v-63c14 10 32 21 46 28l11 7c32 18 65 28 97 28c84 0 161 -58 161 -158v-355h-155v306c0 62 -44 96 -98 96c-23 0 -40 -9 -58 -25v-377h-154zM62 532l-64 22c19 26 35 53 46 82c-20 12 -32 30 -32 54c0 36 31 58 62 58c40 0 62 -30 62 -67
c0 -49 -27 -107 -74 -149z" />
    <glyph glyph-name="IJ" unicode="IJ" horiz-adv-x="610" 
d="M63 0v662l-39 66h204v-728h-165zM263 -157l-25 122h54c22 0 44 2 65 4c20 22 31 52 31 87v606l-39 66h204v-620c0 -86 -31 -153 -98 -193l-74 -42c-33 -19 -72 -30 -118 -30z" />
    <glyph glyph-name="ij" unicode="ij" horiz-adv-x="527" 
d="M108 554c-43 0 -75 28 -75 72c0 53 59 82 105 82c44 0 76 -29 76 -74c0 -53 -60 -80 -106 -80zM53 0v402l-36 61l190 50v-513h-154zM482 634c0 -53 -60 -80 -106 -80c-43 0 -76 28 -76 72c0 53 60 82 106 82c43 0 76 -29 76 -74zM230 -200l-20 110c30 0 68 1 95 7
c11 11 15 28 15 44v441l-35 61l190 50v-516c0 -56 -20 -103 -69 -132c-68 -40 -98 -65 -176 -65z" />
    <glyph glyph-name="fi" unicode="fi" horiz-adv-x="619" 
d="M573 634c0 -53 -60 -80 -106 -80c-42 0 -75 28 -75 72c0 53 59 82 105 82c44 0 76 -29 76 -74zM79 0v390h-106l42 111h64v63c0 50 22 93 66 119l70 40c23 13 49 22 77 23c13 1 36 2 53 2l14 -112c-39 0 -76 1 -114 -3c-8 -11 -13 -25 -13 -40v-92h291l43 12v-513h-154
v390h-180v-390h-153z" />
    <glyph glyph-name="fl" unicode="fl" horiz-adv-x="619" 
d="M79 0v390h-106l42 111h64v63c0 50 22 93 66 119l70 40c23 13 49 22 77 23c13 1 36 2 53 2l14 -112c-39 0 -76 1 -114 -3c-8 -11 -13 -25 -13 -40v-92h180v136l-36 62l190 49v-748h-154v390h-180v-390h-153z" />
    <glyph glyph-name="f_f" unicode="ff" horiz-adv-x="698" 
d="M79 0v390h-107l43 111h64v54c0 81 38 112 109 153c65 36 92 40 157 40l14 -112h-38c-24 0 -48 0 -72 -3c-17 -6 -17 -33 -17 -49v-83h180v54c0 81 39 112 109 153c65 36 92 40 157 40l14 -112h-38c-24 0 -48 0 -72 -3c-17 -6 -17 -33 -17 -49v-83h119v-111h-119v-390
h-153v390h-180v-390h-153z" />
    <glyph glyph-name="f_f_i" unicode="ffi" horiz-adv-x="952" 
d="M79 0v390h-107l43 111h64v54c0 81 38 112 109 153c65 36 92 40 157 40l14 -112h-38c-24 0 -48 0 -72 -3c-13 -4 -17 -26 -17 -40v-92h180v54c0 81 39 112 109 153c65 36 92 40 157 40l14 -112h-38c-24 0 -48 0 -72 -3c-13 -4 -17 -26 -17 -40v-92h291l43 12v-513h-154
v390h-180v-390h-153v390h-180v-390h-153zM800 554c-42 0 -75 28 -75 72c0 52 59 82 105 82c44 0 76 -30 76 -74c0 -53 -60 -80 -106 -80z" />
    <glyph glyph-name="f_f_l" unicode="ffl" horiz-adv-x="952" 
d="M79 0v390h-107l43 111h64v54c0 81 38 112 109 153c65 36 92 40 157 40l14 -112h-38c-24 0 -48 0 -72 -3c-13 -4 -17 -26 -17 -40v-92h180v63c0 87 67 118 130 156c48 27 82 28 136 28l14 -112h-38c-24 0 -48 0 -72 -3c-13 -4 -17 -26 -17 -40v-92h180v136l-36 62l190 49
v-748h-154v390h-180v-390h-153v390h-180v-390h-153z" />
    <glyph glyph-name=".notdef" horiz-adv-x="485" 
d="M210 111v63h53v-63h-53zM211 222v16c0 68 12 90 57 131c40 38 46 57 46 80c0 45 -33 80 -72 80c-38 0 -70 -25 -77 -90c-16 3 -32 5 -48 8c9 91 60 130 128 130c69 0 118 -49 118 -124c0 -41 -12 -69 -60 -113c-50 -45 -46 -51 -46 -118h-46zM47 47h391v585h-391v-585z
M0 0v680h485v-680h-485z" />
    <glyph glyph-name=".null" horiz-adv-x="0" 
 />
    <glyph glyph-name="CR" horiz-adv-x="293" 
 />
    <glyph glyph-name="space" unicode=" " horiz-adv-x="293" 
 />
    <glyph glyph-name="numbersign" unicode="#" horiz-adv-x="587" 
d="M29 0l58 216h-94v102h121l24 91h-94v103h121l58 216h120l-57 -216h94l58 216h121l-58 -216h93v-103h-121l-23 -90h93v-103h-121l-57 -216h-122l58 216h-94l-58 -216h-120zM234 318h94l24 91h-94z" />
    <glyph glyph-name="dollar" unicode="$" horiz-adv-x="587" 
d="M442 57l-73 -41c-10 -6 -20 -11 -30 -15v-82h-87v66h-1c-75 0 -150 20 -212 62l54 140c74 -52 138 -83 230 -83c35 0 53 47 53 80c0 81 -76 104 -154 130c-86 28 -173 70 -173 188c0 85 49 142 99 171l73 42c10 5 20 10 31 14v80h87v-66c67 -2 132 -23 189 -59l-55 -140
c-63 44 -133 80 -212 80c-27 0 -43 -44 -43 -70c0 -82 74 -98 152 -125c86 -29 176 -69 176 -194c0 -74 -38 -141 -104 -178z" />
    <glyph glyph-name="percent" unicode="%" horiz-adv-x="839" 
d="M285 369l-53 -28c-20 -9 -42 -15 -69 -15c-110 0 -151 94 -151 194c0 76 23 148 82 179l54 28c19 10 42 16 69 16c111 0 152 -95 152 -195c0 -76 -23 -149 -84 -179zM247 520c0 70 -16 143 -78 143c-7 0 -13 -11 -17 -18c-12 -27 -17 -63 -17 -97c0 -73 19 -142 80 -142
c7 0 13 11 17 19c11 25 15 62 15 95zM169 -30l413 788h88l-413 -788h-88zM743 35l-53 -28c-20 -9 -42 -15 -69 -15c-110 0 -151 94 -151 194c0 76 23 148 82 179l54 28c19 10 42 16 69 16c111 0 152 -95 152 -195c0 -76 -23 -149 -84 -179zM705 186c0 70 -16 143 -78 143
c-7 0 -13 -11 -17 -18c-12 -27 -17 -63 -17 -97c0 -73 19 -142 80 -142c7 0 13 11 17 19c11 25 15 62 15 95z" />
    <glyph glyph-name="ampersand" unicode="&#x26;" horiz-adv-x="702" 
d="M698 52l-160 -61c-10 30 -23 62 -38 93c-14 -10 -51 -33 -72 -46c-61 -34 -119 -53 -184 -53c-125 0 -217 76 -217 179c0 105 89 172 162 218c-56 46 -97 96 -97 162c0 108 139 199 243 199c92 0 167 -62 167 -155c0 -72 -57 -121 -114 -165c61 -44 132 -95 184 -156
c16 15 40 42 51 55l69 -64c-20 -22 -40 -46 -61 -68c26 -40 46 -81 67 -138zM318 477c16 19 34 42 35 70c1 46 -37 88 -77 88c-6 0 -11 -2 -15 -7c-9 -12 -13 -34 -13 -49c0 -34 32 -70 70 -102zM456 152c-50 67 -122 122 -198 177c-37 -32 -69 -68 -69 -121
c0 -65 64 -110 127 -110c58 0 100 18 140 54z" />
    <glyph glyph-name="quotesingle" unicode="'" horiz-adv-x="293" 
d="M92 471l-18 257h144l-18 -257h-108z" />
    <glyph glyph-name="parenleft" unicode="(" horiz-adv-x="335" 
d="M265 730l65 -41c-92 -116 -142 -268 -142 -415c0 -148 50 -300 142 -416c-25 -19 -51 -38 -77 -57c-116 109 -209 270 -209 432c0 184 76 331 194 466c9 11 17 22 27 31z" />
    <glyph glyph-name="parenright" unicode=")" horiz-adv-x="335" 
d="M70 -199l-65 41c92 116 142 268 142 415c0 148 -50 300 -142 416c25 19 51 38 77 57c116 -109 209 -270 209 -432c0 -184 -76 -331 -194 -466c-9 -11 -17 -22 -27 -31z" />
    <glyph glyph-name="asterisk" unicode="*" horiz-adv-x="519" 
d="M171 316l-86 55l90 124l-152 52l48 94l135 -44v151h106v-153l142 48l39 -97l-150 -51l93 -125l-87 -54l-90 119z" />
    <glyph glyph-name="plus" unicode="+" horiz-adv-x="556" 
d="M222 0v195h-192v110h192v195h112v-195h192v-110h-192v-195h-112z" />
    <glyph glyph-name="comma" unicode="," horiz-adv-x="293" 
d="M98 -155l-70 27c30 40 57 83 72 127c-30 16 -47 42 -47 74c0 53 45 88 97 88c54 0 90 -41 90 -92c0 -92 -62 -172 -142 -224z" />
    <glyph glyph-name="hyphen" unicode="-" horiz-adv-x="365" 
d="M28 201v115h310v-115h-310z" />
    <glyph glyph-name="period" unicode="." horiz-adv-x="293" 
d="M241 82c0 -61 -50 -91 -98 -91c-51 0 -90 30 -90 79c0 60 51 91 100 91c50 0 88 -28 88 -79z" />
    <glyph glyph-name="slash" unicode="/" horiz-adv-x="458" 
d="M0 -15l381 758h77l-382 -758h-76z" />
    <glyph glyph-name="zero" unicode="0" horiz-adv-x="587" 
d="M439 54l-73 -42c-32 -17 -67 -27 -109 -27c-179 0 -245 174 -245 358c0 139 38 274 134 330l74 43c31 17 67 27 110 27c179 0 245 -175 245 -358c0 -140 -38 -275 -136 -331zM405 343c0 137 -30 280 -142 280c-15 0 -28 -17 -37 -30c-33 -50 -44 -131 -44 -208
c0 -143 34 -280 145 -280c16 0 28 17 37 32c31 48 41 128 41 206z" />
    <glyph glyph-name="one" unicode="1" horiz-adv-x="587" 
d="M269 0v547l-161 -98l-59 100l301 179h84v-728h-165z" />
    <glyph glyph-name="two" unicode="2" horiz-adv-x="587" 
d="M38 0v67l229 240c60 64 103 121 103 196c0 73 -59 120 -127 120c-66 0 -111 -31 -167 -68l-43 74c33 24 69 49 111 71c53 29 111 43 165 43c132 0 232 -71 232 -205c0 -99 -44 -173 -124 -248l-173 -167l320 4l-48 -127h-478z" />
    <glyph glyph-name="three" unicode="3" horiz-adv-x="587" 
d="M447 60l-73 -42c-37 -20 -81 -33 -133 -33c-77 0 -135 20 -199 65l58 143c73 -66 138 -95 204 -95c16 0 28 1 38 9c23 22 33 53 33 85c0 72 -59 127 -132 127h-60l32 115h95c28 0 43 40 43 72c0 73 -54 117 -121 117c-55 0 -100 -24 -146 -52l-32 78c30 20 63 40 104 59
c56 25 100 35 159 35c118 0 201 -82 201 -187c0 -71 -35 -119 -91 -154c70 -31 117 -99 117 -177c0 -71 -36 -131 -97 -165z" />
    <glyph glyph-name="four" unicode="4" horiz-adv-x="587" 
d="M345 0v150h-340v65l344 513h159l-325 -458v-1h162v158h163v-158h71v-119h-71v-150h-163z" />
    <glyph glyph-name="five" unicode="5" horiz-adv-x="587" 
d="M454 61l-74 -42c-39 -22 -90 -34 -140 -34c-77 0 -150 23 -214 64l74 138c76 -55 143 -82 212 -82c13 0 31 2 40 9c27 26 40 63 40 104c0 82 -59 155 -139 155c-41 0 -80 -14 -115 -37l-82 22l56 370h432l-48 -127l-274 4l-24 -155c42 18 83 27 127 27
c136 0 237 -91 237 -222c0 -83 -40 -156 -108 -194z" />
    <glyph glyph-name="six" unicode="6" horiz-adv-x="587" 
d="M457 52l-74 -41c-32 -19 -77 -26 -124 -26c-137 0 -243 110 -243 245c0 59 16 119 45 179c50 104 131 209 234 319h169c-77 -88 -150 -179 -206 -268c23 10 55 17 83 17c136 0 231 -99 231 -221c0 -84 -48 -165 -115 -204zM189 258c0 -84 60 -153 148 -153
c13 0 26 2 33 9c26 25 43 64 43 103c0 86 -57 153 -150 153c-11 0 -27 -3 -37 -7c-25 -27 -37 -64 -37 -105z" />
    <glyph glyph-name="seven" unicode="7" horiz-adv-x="587" 
d="M128 0l265 605l-383 -4l49 127h497v-68l-264 -660h-164z" />
    <glyph glyph-name="eight" unicode="8" horiz-adv-x="587" 
d="M450 58l-73 -42c-34 -20 -75 -31 -120 -31c-125 0 -222 87 -222 201c0 68 35 124 90 157c12 7 21 12 27 16c-60 25 -101 83 -101 154c0 68 36 125 94 159l72 42c32 18 71 29 112 29c116 0 207 -82 207 -188c0 -63 -32 -116 -80 -145c-8 -4 -14 -8 -21 -12
c69 -27 117 -93 117 -170c0 -74 -41 -135 -102 -170zM377 509c0 58 -46 117 -122 117c-26 0 -43 -40 -43 -75c0 -55 42 -117 120 -117c23 0 45 36 45 75zM382 190c0 71 -54 126 -125 126c-11 0 -21 -10 -28 -18c-15 -17 -24 -40 -24 -66c0 -69 53 -127 124 -127
c13 0 23 10 30 19c14 17 23 40 23 66z" />
    <glyph glyph-name="nine" unicode="9" horiz-adv-x="587" 
d="M293 0h-171c78 88 150 179 207 268c-23 -10 -55 -17 -83 -17c-135 0 -230 99 -230 221c0 84 47 165 114 204l74 41c32 19 77 26 124 26c137 0 243 -110 243 -245c0 -59 -16 -119 -45 -179c-50 -104 -131 -209 -233 -319zM399 470c0 84 -61 153 -149 153
c-12 0 -25 -2 -33 -9c-26 -25 -43 -64 -43 -103c0 -86 58 -153 150 -153c11 0 27 3 37 7c25 27 38 64 38 105z" />
    <glyph glyph-name="colon" unicode=":" horiz-adv-x="293" 
d="M241 82c0 -61 -50 -91 -98 -91c-51 0 -90 30 -90 79c0 60 51 91 100 91c50 0 88 -28 88 -79zM241 411c0 -60 -50 -91 -98 -91c-51 0 -90 30 -90 80c0 60 51 91 100 91c50 0 88 -29 88 -80z" />
    <glyph glyph-name="semicolon" unicode=";" horiz-adv-x="293" 
d="M98 -155l-70 27c30 40 57 83 72 127c-30 16 -47 42 -47 74c0 53 45 88 97 88c54 0 90 -41 90 -92c0 -92 -62 -172 -142 -224zM241 411c0 -60 -50 -91 -98 -91c-51 0 -90 30 -90 80c0 60 51 91 100 91c50 0 88 -29 88 -80z" />
    <glyph glyph-name="less" unicode="&#x3c;" horiz-adv-x="556" 
d="M525 -12l-494 205v114l494 205v-119l-357 -143l357 -143v-119z" />
    <glyph glyph-name="equal" unicode="=" horiz-adv-x="556" 
d="M30 295v111h496v-111h-496zM30 94v111h496v-111h-496z" />
    <glyph glyph-name="greater" unicode="&#x3e;" horiz-adv-x="556" 
d="M31 -12v119l357 143l-357 143v119l494 -205v-114z" />
    <glyph glyph-name="question" unicode="?" horiz-adv-x="513" 
d="M177 232v49c0 47 24 76 54 103c39 33 89 58 89 127c0 61 -51 112 -115 112c-36 0 -69 -10 -103 -28c-21 -11 -39 -22 -52 -31l-24 83c25 17 51 33 80 50c53 29 112 46 175 46c115 0 207 -75 207 -184c0 -89 -60 -133 -112 -172c-27 -20 -49 -46 -49 -79v-76h-150zM346 82
c0 -61 -50 -91 -99 -91c-50 0 -89 30 -89 79c0 60 51 91 99 91c51 0 89 -28 89 -79z" />
    <glyph glyph-name="at" unicode="@" horiz-adv-x="816" 
d="M721 171l41 -43c-84 -87 -203 -143 -345 -143c-227 0 -393 153 -393 374c0 215 187 384 408 384c206 0 359 -138 359 -335c0 -129 -92 -257 -242 -257c-39 0 -71 22 -76 63c-39 -34 -85 -61 -143 -61c-97 0 -147 76 -147 160c0 121 99 272 255 272c48 0 87 -19 111 -50
l10 35h69l-67 -243c-8 -30 -22 -74 -22 -89c0 -21 8 -28 26 -28c97 0 157 90 157 189c0 170 -124 286 -305 286c-187 0 -324 -138 -324 -317c0 -183 142 -326 339 -326c117 0 209 48 289 129zM340 210c69 0 125 57 153 137c11 33 23 81 31 119c-13 36 -45 65 -92 65
c-106 0 -172 -125 -172 -217c0 -62 32 -104 80 -104z" />
    <glyph glyph-name="A" unicode="A" horiz-adv-x="726" 
d="M-19 0l293 662l-30 66h179l322 -728h-180l-77 175h-291l-49 -109l26 -66h-193zM248 293h189l-95 216z" />
    <glyph glyph-name="B" unicode="B" horiz-adv-x="594" 
d="M58 0v662l-39 66h329c111 0 193 -77 193 -181c0 -62 -32 -110 -73 -135l-14 -9c-3 -2 -6 -3 -9 -4c67 -24 122 -81 123 -164c0 -70 -39 -130 -96 -164l-73 -43c-32 -18 -71 -28 -113 -28h-228zM220 119h133c8 0 15 3 21 7c16 17 25 43 25 71c0 68 -53 124 -119 124h-60
v-202zM220 433h114c7 0 15 3 20 8c14 14 22 34 23 58c0 61 -47 110 -107 110h-50v-176z" />
    <glyph glyph-name="C" unicode="C" horiz-adv-x="682" 
d="M652 160l16 -83c-31 -20 -57 -35 -90 -51c-57 -28 -121 -41 -194 -41c-205 0 -366 160 -366 358c0 131 70 246 178 307l74 43c54 31 118 50 188 50c72 0 135 -15 193 -41l-56 -147c-57 38 -128 68 -210 68c-30 0 -67 -3 -94 -21c-68 -45 -104 -129 -104 -217
c0 -154 122 -280 277 -280c76 0 125 19 188 55z" />
    <glyph glyph-name="D" unicode="D" horiz-adv-x="720" 
d="M58 0v662l-39 66h332c198 0 352 -153 352 -343c0 -126 -68 -235 -172 -295l-74 -43c-51 -29 -113 -47 -179 -47h-220zM223 121h119c35 0 74 3 96 18c63 43 96 121 96 204c0 145 -113 264 -265 264h-46v-486z" />
    <glyph glyph-name="E" unicode="E" horiz-adv-x="553" 
d="M58 0v662l-39 66h512l-46 -121h-262v-170h298l-46 -121h-252v-195h318l-46 -121h-437z" />
    <glyph glyph-name="F" unicode="F" horiz-adv-x="544" 
d="M58 0v662l-39 66h506l-46 -121h-256v-195h282l-46 -121h-236v-291h-165z" />
    <glyph glyph-name="G" unicode="G" horiz-adv-x="786" 
d="M711 95l-73 -42c-74 -43 -157 -68 -254 -68c-205 0 -366 160 -366 358c0 131 70 246 178 307l74 43c54 31 118 50 188 50c97 0 177 -25 248 -70l-55 -147c-65 52 -152 97 -260 97c-36 0 -73 -3 -100 -21c-68 -45 -104 -129 -104 -217c0 -155 121 -280 277 -280
c38 0 71 6 102 16c6 3 12 5 18 7v141h-228l46 121h348v-270c-13 -9 -26 -17 -39 -25z" />
    <glyph glyph-name="H" unicode="H" horiz-adv-x="704" 
d="M58 0v662l-39 66h204v-288h258v222l-38 66h204v-728h-166v315h-258v-315h-165z" />
    <glyph glyph-name="I" unicode="I" horiz-adv-x="291" 
d="M63 0v662l-39 66h204v-728h-165z" />
    <glyph glyph-name="J" unicode="J" horiz-adv-x="325" 
d="M-23 -157l-25 122h54c22 0 44 2 65 4c20 22 31 52 31 87v606l-39 66h204v-620c0 -86 -31 -153 -98 -193l-74 -42c-33 -19 -72 -30 -118 -30z" />
    <glyph glyph-name="K" unicode="K" horiz-adv-x="661" 
d="M58 0v662l-39 66h204v-327l14 17l200 244l-24 66h242l-271 -323c113 -121 222 -257 298 -405h-209c-59 112 -141 221 -224 317l-26 -17v-300h-165z" />
    <glyph glyph-name="L" unicode="L" horiz-adv-x="504" 
d="M58 0v662l-39 66h204v-606h282l-47 -122h-400z" />
    <glyph glyph-name="M" unicode="M" horiz-adv-x="867" 
d="M58 0v652l-54 76h202l231 -323l231 323h142v-728h-164v474l-194 -269h-73l-193 268v-473h-128z" />
    <glyph glyph-name="N" unicode="N" horiz-adv-x="728" 
d="M58 0v651l-54 77h202l334 -469v403l-39 66h170v-728h-148l-335 469v-469h-130z" />
    <glyph glyph-name="O" unicode="O" horiz-adv-x="833" 
d="M639 76l-73 -43c-54 -31 -117 -48 -186 -48c-206 0 -362 159 -362 358c0 132 69 245 176 308l73 43c53 31 117 49 186 49c208 0 363 -159 363 -358c0 -133 -69 -248 -177 -309zM547 122c66 46 100 130 100 221c0 154 -112 280 -267 280c-34 0 -68 0 -93 -18
c-67 -46 -100 -130 -100 -220c0 -154 112 -280 266 -280c34 0 68 -1 94 17z" />
    <glyph glyph-name="P" unicode="P" horiz-adv-x="595" 
d="M58 0v662l-39 66h330c130 0 229 -97 229 -219c0 -79 -42 -147 -108 -185l-73 -42c-35 -21 -76 -32 -122 -32h-52v-250h-165zM223 369h119c10 0 23 3 32 9c24 21 37 52 37 88c0 78 -65 143 -144 143h-44v-240z" />
    <glyph glyph-name="Q" unicode="Q" horiz-adv-x="849" 
d="M832 101l-42 -116c-77 0 -136 30 -187 70l-22 -14l-15 -8c-55 -31 -117 -48 -186 -48c-206 0 -362 159 -362 358c0 132 69 245 176 308l73 43c53 31 117 49 186 49c208 0 363 -159 363 -358c0 -93 -36 -179 -93 -242c31 -22 67 -38 109 -42zM516 117l15 6
c-58 53 -117 106 -203 106c-22 0 -47 -4 -72 -11l35 108c34 11 66 17 101 17c88 0 156 -53 225 -107c19 29 30 70 30 107c0 154 -112 280 -267 280c-34 0 -71 -3 -93 -18c-65 -47 -100 -130 -100 -220c0 -154 112 -280 266 -280c25 0 44 4 63 12z" />
    <glyph glyph-name="R" unicode="R" horiz-adv-x="624" 
d="M58 0v662l-39 66h334c123 0 216 -92 216 -208c0 -76 -38 -141 -97 -179l-22 -14c-9 -5 -19 -9 -30 -10l227 -317h-206l-186 282h-32v-282h-165zM223 390h123c9 0 18 3 25 8c19 20 31 47 32 78c0 75 -57 133 -132 133h-48v-219z" />
    <glyph glyph-name="S" unicode="S" horiz-adv-x="546" 
d="M424 57l-74 -41c-36 -21 -76 -31 -118 -31c-75 0 -150 20 -212 62l54 140c74 -52 138 -83 231 -83c34 0 52 47 52 80c0 81 -76 104 -154 130c-85 28 -172 70 -172 188c0 85 48 142 98 171l74 42c33 19 70 28 108 28c70 0 140 -21 198 -59l-55 -140
c-62 44 -133 80 -211 80c-28 0 -43 -44 -43 -70c0 -82 73 -98 152 -125c85 -29 175 -69 175 -194c0 -74 -38 -141 -103 -178z" />
    <glyph glyph-name="T" unicode="T" horiz-adv-x="599" 
d="M217 0v606h-216l46 122h552l-46 -122h-171v-606h-165z" />
    <glyph glyph-name="U" unicode="U" horiz-adv-x="691" 
d="M566 78l-73 -43c-56 -32 -121 -50 -190 -50c-142 0 -248 104 -248 237v440l-39 66h204v-460c0 -86 69 -158 156 -158c22 0 43 3 62 10c10 3 21 8 30 12v530l-38 66h204v-607c-17 -12 -52 -34 -68 -43z" />
    <glyph glyph-name="V" unicode="V" horiz-adv-x="683" 
d="M282 0l-306 728h180l205 -492l180 426l-26 66h193l-306 -728h-120z" />
    <glyph glyph-name="W" unicode="W" horiz-adv-x="1009" 
d="M282 0l-306 728h180l205 -492l74 174l-134 318h180l206 -492l180 426l-26 66h193l-306 -728h-121l-103 244l-102 -244h-120z" />
    <glyph glyph-name="X" unicode="X" horiz-adv-x="670" 
d="M-20 0l256 377l-239 351h199l159 -237l116 171l-25 66h226l-238 -350l256 -378h-198l-178 263l-177 -263h-157z" />
    <glyph glyph-name="Y" unicode="Y" horiz-adv-x="655" 
d="M247 0v290l-266 438h196l172 -293l135 227l-26 66h217l-263 -436v-292h-165z" />
    <glyph glyph-name="Z" unicode="Z" horiz-adv-x="601" 
d="M16 0v61l335 545h-333l48 122h509v-61l-336 -545h358l-46 -122h-535z" />
    <glyph glyph-name="bracketleft" unicode="[" horiz-adv-x="343" 
d="M51 -173v901h268v-96h-125v-708h125v-97h-268z" />
    <glyph glyph-name="backslash" unicode="\" horiz-adv-x="458" 
d="M382 -15l-382 758h77l381 -758h-76z" />
    <glyph glyph-name="bracketright" unicode="]" horiz-adv-x="343" 
d="M24 -173v97h125v708h-125v96h268v-901h-268z" />
    <glyph glyph-name="asciicircum" unicode="^" horiz-adv-x="556" 
d="M36 412l189 296h106l189 -296h-121l-121 179l-121 -179h-121z" />
    <glyph glyph-name="underscore" unicode="_" 
d="M0 -165v44h500v-44h-500z" />
    <glyph glyph-name="grave" unicode="`" 
d="M258 545l-149 154l110 41l112 -165z" />
    <glyph glyph-name="a" unicode="a" horiz-adv-x="508" 
d="M473 -4h-52c-53 0 -92 17 -109 59c-16 -11 -40 -26 -56 -36l-12 -7c-27 -16 -54 -23 -82 -23c-79 0 -144 49 -144 133c0 59 27 100 72 126l69 40c35 20 82 31 134 36c0 6 0 13 -1 19c-6 42 -46 59 -88 59c-43 0 -86 -14 -124 -34l-25 64c23 15 48 29 70 40
c44 21 103 41 165 41c87 0 159 -44 159 -142v-208c0 -44 17 -61 62 -61h2zM297 117v122c-41 -1 -79 -3 -111 -16c-11 -13 -17 -29 -17 -50c0 -48 40 -78 89 -78c12 0 29 10 39 22z" />
    <glyph glyph-name="b" unicode="b" horiz-adv-x="581" 
d="M53 74v563l-36 62l190 49v-282c29 17 58 37 95 43c16 3 33 4 50 3c113 -6 214 -102 214 -242c0 -92 -44 -166 -107 -205c-69 -44 -132 -76 -190 -76c-79 0 -148 37 -216 85zM207 387v-243c22 -21 52 -37 85 -41c12 -3 26 -3 40 -2c54 5 77 72 77 129
c0 101 -73 172 -160 172c-17 0 -29 -5 -42 -15z" />
    <glyph glyph-name="c" unicode="c" horiz-adv-x="491" 
d="M466 127l9 -72c-63 -39 -129 -66 -208 -66c-143 0 -252 108 -252 241c0 88 48 166 121 208l70 40c37 22 82 35 130 35c49 0 90 -11 129 -30l-48 -128c-45 30 -92 47 -144 47c-17 0 -36 -2 -49 -12c-36 -26 -50 -71 -50 -120c0 -93 75 -170 169 -170c41 0 81 7 123 27z
" />
    <glyph glyph-name="d" unicode="d" horiz-adv-x="582" 
d="M378 0v37l-26 -16l-13 -7c-28 -17 -61 -25 -97 -25c-119 0 -227 98 -227 241c0 97 49 173 117 212l70 41c32 19 71 30 110 30c22 0 45 -5 63 -15v139l-35 62l189 49v-748h-151zM375 113v241c-29 30 -69 48 -113 48c-13 0 -30 -2 -40 -9c-32 -28 -48 -72 -48 -123
c0 -100 73 -170 158 -170c15 0 31 4 43 13z" />
    <glyph glyph-name="e" unicode="e" horiz-adv-x="548" 
d="M497 153l31 -65c-53 -41 -144 -99 -263 -99c-138 0 -250 98 -250 241c0 96 50 173 116 213l66 40c29 18 72 30 116 30c127 0 210 -103 210 -261v-32h-343c15 -72 84 -122 161 -122c62 0 100 16 156 55zM177 319h211c-18 50 -60 86 -124 86c-13 0 -34 -2 -44 -9
c-23 -17 -37 -45 -43 -77z" />
    <glyph glyph-name="f" unicode="f" horiz-adv-x="365" 
d="M79 0v390h-106l42 111h64v54c0 80 38 112 109 153l27 15c39 22 54 25 130 25l14 -112c-39 0 -76 0 -114 -3c-11 -13 -13 -27 -13 -47v-85h122v-111h-122v-390h-153z" />
    <glyph glyph-name="g" unicode="g" horiz-adv-x="501" 
d="M414 -131l-49 -28c-45 -25 -90 -45 -165 -45c-131 0 -192 64 -192 130c0 75 39 98 164 153c-5 9 -8 19 -8 30c0 15 10 30 25 45c-2 0 -8 1 -16 1c-79 16 -141 64 -144 148c-1 12 0 23 2 34c8 58 45 91 96 121l48 28c23 13 50 22 78 25c10 1 19 1 29 1c21 -1 41 -4 59 -11
h151v-104h-58c11 -15 19 -31 19 -48c0 -57 -32 -100 -78 -130c-36 -26 -74 -41 -74 -55c0 -48 178 -50 186 -160c1 -10 1 -21 -1 -33c-6 -41 -31 -78 -72 -102zM213 42c-27 -21 -49 -37 -53 -62c0 -6 0 -11 1 -17c5 -32 35 -62 98 -67c8 -1 17 -1 27 -1c32 2 44 13 47 37
c1 9 1 16 0 23c-9 58 -74 65 -120 87zM311 307c0 51 -32 95 -77 107c-13 3 -26 3 -39 1c-11 -5 -18 -32 -20 -53c-1 -8 0 -16 1 -24c4 -43 34 -77 73 -87c13 -4 27 -5 41 -4c9 6 21 38 21 60z" />
    <glyph glyph-name="h" unicode="h" horiz-adv-x="566" 
d="M53 0v637l-36 62l190 49v-296c15 11 36 23 49 31l12 7c30 16 60 23 89 23c84 0 161 -58 161 -158v-355h-155v306c0 62 -44 96 -98 96c-13 0 -25 -3 -36 -8c-8 -4 -15 -10 -22 -17v-377h-154z" />
    <glyph glyph-name="i" unicode="i" horiz-adv-x="260" 
d="M108 554c-43 0 -75 28 -75 72c0 53 59 82 105 82c44 0 76 -29 76 -74c0 -53 -60 -80 -106 -80zM53 0v402l-36 61l190 50v-513h-154z" />
    <glyph glyph-name="j" unicode="j" horiz-adv-x="268" 
d="M222 634c0 -53 -60 -80 -106 -80c-43 0 -76 28 -76 72c0 53 60 82 106 82c43 0 76 -29 76 -74zM-30 -200l-20 110c30 0 68 1 95 7c11 11 15 28 15 44v441l-35 61l190 50v-516c0 -56 -20 -103 -69 -132c-68 -40 -98 -65 -176 -65z" />
    <glyph glyph-name="k" unicode="k" horiz-adv-x="534" 
d="M53 0v637l-36 62l190 49v-470l28 32l107 132l-25 59h213l-174 -220c77 -85 145 -178 194 -281h-194c-35 70 -78 138 -127 202l-22 -11v-191h-154z" />
    <glyph glyph-name="l" unicode="l" horiz-adv-x="260" 
d="M53 0v637l-36 62l190 49v-748h-154z" />
    <glyph glyph-name="m" unicode="m" horiz-adv-x="796" 
d="M53 0v402l-36 61l185 50v-57c23 17 58 44 85 45c20 8 40 12 59 11c46 -3 86 -26 107 -64c42 32 92 65 151 65c74 0 144 -53 144 -143v-370h-153v321c0 49 -36 81 -82 81c-15 0 -28 -9 -36 -22v-380h-153v321c0 49 -36 81 -82 81c-16 0 -28 -9 -37 -22v-380h-152z" />
    <glyph glyph-name="n" unicode="n" horiz-adv-x="566" 
d="M53 0v402l-36 62l186 49v-63c14 10 32 21 46 28l11 7c32 18 65 28 97 28c84 0 161 -58 161 -158v-355h-155v306c0 62 -44 96 -98 96c-23 0 -40 -9 -58 -25v-377h-154z" />
    <glyph glyph-name="o" unicode="o" horiz-adv-x="589" 
d="M456 62l-69 -39c-38 -22 -82 -34 -127 -34c-128 0 -245 93 -245 241c0 95 49 169 118 209l69 40c38 22 82 34 127 34c128 0 245 -95 245 -243c0 -96 -49 -168 -118 -208zM366 106c30 31 49 76 49 124c0 94 -64 172 -155 172c-14 0 -27 0 -37 -8c-33 -28 -49 -75 -49 -124
c0 -93 63 -170 155 -170c13 0 26 2 37 6z" />
    <glyph glyph-name="p" unicode="p" horiz-adv-x="581" 
d="M53 -194v596l-36 61l186 50v-49c27 19 64 38 99 44c15 3 32 5 49 4c114 -5 215 -102 215 -242c0 -97 -48 -173 -117 -212l-69 -40c-34 -19 -72 -29 -111 -29c-22 0 -44 6 -62 16v-199h-154zM207 387v-241c22 -23 52 -38 85 -43c12 -2 26 -3 40 -2c53 5 77 72 77 129
c0 101 -73 172 -160 172c-17 0 -29 -5 -42 -15z" />
    <glyph glyph-name="q" unicode="q" horiz-adv-x="582" 
d="M375 -194v228c-27 -18 -62 -35 -96 -40c-16 -3 -32 -5 -48 -4c-114 5 -216 101 -216 240c0 97 49 172 117 212l70 41c32 18 71 30 110 30c44 0 82 -17 113 -36l8 11l96 25v-707h-154zM375 113v241c-22 23 -53 39 -85 44c-14 2 -27 3 -40 2c-10 -1 -20 -1 -26 -6
c-33 -27 -50 -73 -50 -124c0 -86 55 -151 126 -165c26 -5 50 -1 75 8z" />
    <glyph glyph-name="r" unicode="r" horiz-adv-x="386" 
d="M53 0v402l-36 61l186 50v-57c15 11 37 25 53 34l12 7c21 12 45 16 71 16c19 0 36 -4 50 -13l-35 -129l-48 15c-19 6 -41 9 -60 9c-8 0 -15 -1 -22 -5c-6 -5 -13 -11 -17 -19v-371h-154z" />
    <glyph glyph-name="s" unicode="s" horiz-adv-x="420" 
d="M309 38l-49 -27c-27 -15 -57 -22 -87 -22c-54 0 -107 16 -151 46l48 125c41 -28 102 -63 153 -63c14 0 23 12 23 27c0 57 -53 65 -108 84c-55 18 -110 46 -110 130c0 47 25 90 67 113l48 28c32 17 64 34 103 34c51 0 100 -17 141 -44l-45 -118c-33 23 -89 53 -133 53
c-5 0 -11 -1 -15 -3c-8 -4 -12 -14 -12 -23c3 -49 52 -59 102 -75c60 -18 117 -48 117 -132c0 -69 -45 -106 -92 -133z" />
    <glyph glyph-name="t" unicode="t" horiz-adv-x="365" 
d="M311 -4h-36c-144 0 -201 48 -201 156v238h-106l42 111h64v111l154 63v-174h122v-111h-122v-199c0 -49 32 -85 109 -85h16z" />
    <glyph glyph-name="u" unicode="u" horiz-adv-x="566" 
d="M363 0v51c-14 -10 -33 -21 -45 -29l-11 -6c-32 -18 -66 -27 -97 -27c-84 0 -161 56 -161 157v256l-35 61l189 50v-318c0 -61 44 -95 99 -95c11 0 25 1 38 7c6 4 12 9 19 16v279l-35 61l189 50v-513h-150z" />
    <glyph glyph-name="v" unicode="v" horiz-adv-x="512" 
d="M199 0l-210 501h166l120 -287l96 230l-23 57h175l-211 -501h-113z" />
    <glyph glyph-name="w" unicode="w" horiz-adv-x="774" 
d="M199 0l-210 501h166l120 -287l48 116l-71 171h165l121 -287l95 230l-23 57h175l-211 -501h-112l-75 178l-75 -178h-113z" />
    <glyph glyph-name="x" unicode="x" horiz-adv-x="528" 
d="M-13 0l183 258l-173 243h188l99 -139l60 82l-22 57h208l-173 -242l184 -259h-187l-112 156l-111 -156h-144z" />
    <glyph glyph-name="y" unicode="y" horiz-adv-x="516" 
d="M98 -194l97 211l-206 484h167l122 -287l98 230l-23 57h175l-295 -695h-135z" />
    <glyph glyph-name="z" unicode="z" horiz-adv-x="472" 
d="M16 0v56l225 334h-222l43 111h383v-56l-225 -333h246l-43 -112h-407z" />
    <glyph glyph-name="braceleft" unicode="{" horiz-adv-x="464" 
d="M368 -76v-97c-111 0 -209 61 -209 153v143c0 63 -3 81 -64 107v95c61 26 64 44 64 107v143c0 92 98 153 209 153v-97c-59 0 -65 -37 -65 -81v-119c0 -74 -37 -119 -96 -152v-3c59 -33 96 -78 96 -152v-119c0 -44 6 -81 65 -81z" />
    <glyph glyph-name="bar" unicode="|" 
d="M185 -200v1000h129v-1000h-129z" />
    <glyph glyph-name="braceright" unicode="}" horiz-adv-x="464" 
d="M95 -173v97c59 0 66 37 66 81v119c0 74 36 119 95 152v3c-59 33 -95 78 -95 152v119c0 44 -7 81 -66 81v97c111 0 209 -61 209 -153v-143c0 -63 3 -81 64 -107v-95c-61 -26 -64 -44 -64 -107v-143c0 -92 -98 -153 -209 -153z" />
    <glyph glyph-name="asciitilde" unicode="~" horiz-adv-x="556" 
d="M86 162h-72c6 75 54 179 141 179c80 0 166 -66 248 -66c40 0 59 29 66 63h73c-9 -75 -50 -178 -141 -178c-75 0 -173 67 -249 67c-37 0 -59 -30 -66 -65z" />
    <glyph glyph-name="uni00A0" unicode="&#xa0;" horiz-adv-x="0" 
 />
    <glyph glyph-name="Aacute" unicode="&#xc1;" horiz-adv-x="726" 
d="M-19 0l293 662l-30 66h179l322 -728h-180l-77 175h-291l-49 -109l26 -66h-193zM248 293h189l-95 216zM355 766l-73 31l112 165l110 -41z" />
    <glyph glyph-name="Abreve" unicode="&#x102;" horiz-adv-x="726" 
d="M-19 0l293 662l-30 66h179l322 -728h-180l-77 175h-291l-49 -109l26 -66h-193zM248 293h189l-95 216zM201 925h62c12 -49 54 -62 100 -62c45 0 88 14 100 62h62c-8 -90 -72 -147 -162 -147c-92 0 -153 56 -162 147z" />
    <glyph glyph-name="Acircumflex" unicode="&#xc2;" horiz-adv-x="726" 
d="M-19 0l293 662l-30 66h179l322 -728h-180l-77 175h-291l-49 -109l26 -66h-193zM248 293h189l-95 216zM246 771l-51 47l146 137h46l144 -138l-52 -48l-115 83z" />
    <glyph glyph-name="Adieresis" unicode="&#xc4;" horiz-adv-x="726" 
d="M-19 0l293 662l-30 66h179l322 -728h-180l-77 175h-291l-49 -109l26 -66h-193zM248 293h189l-95 216zM535 849c0 -38 -30 -68 -68 -68c-37 0 -67 30 -67 68c0 36 32 68 67 68c37 0 68 -31 68 -68zM326 849c0 -38 -30 -68 -67 -68s-68 31 -68 68c0 36 32 68 68 68
s67 -31 67 -68z" />
    <glyph glyph-name="AE" unicode="&#xc6;" horiz-adv-x="1007" 
d="M-30 0l505 728h510l-46 -121h-262v-170h298l-46 -121h-252v-195h318l-46 -121h-438v175h-265l-73 -105v-70h-203zM327 293h184v268z" />
    <glyph glyph-name="Agrave" unicode="&#xc0;" horiz-adv-x="726" 
d="M-19 0l293 662l-30 66h179l322 -728h-180l-77 175h-291l-49 -109l26 -66h-193zM248 293h189l-95 216zM371 766l-149 155l110 41l112 -165z" />
    <glyph glyph-name="Amacron" unicode="&#x100;" horiz-adv-x="726" 
d="M-19 0l293 662l-30 66h179l322 -728h-180l-77 175h-291l-49 -109l26 -66h-193zM248 293h189l-95 216zM205 795v81h317v-81h-317z" />
    <glyph glyph-name="Aogonek" unicode="&#x104;" horiz-adv-x="726" 
d="M727 -124l16 -62c-29 -17 -63 -27 -100 -27c-54 0 -100 35 -100 92c0 56 47 94 91 121h-69l-77 175h-291l-49 -109l26 -66h-193l293 662l-30 66h179l322 -728h-52c-27 -19 -69 -52 -69 -92c0 -28 17 -46 49 -46c19 0 37 6 54 14zM248 293h189l-95 216z" />
    <glyph glyph-name="Aring" unicode="&#xc5;" horiz-adv-x="726" 
d="M-19 0l293 662l-30 66h179l322 -728h-180l-77 175h-291l-49 -109l26 -66h-193zM248 293h189l-95 216zM496 871c0 -74 -66 -113 -133 -113c-68 0 -133 38 -133 113c0 74 65 115 133 115s133 -41 133 -115zM422 872c0 33 -29 51 -59 51s-59 -18 -59 -51s29 -51 59 -51
s59 18 59 51z" />
    <glyph glyph-name="Atilde" unicode="&#xc3;" horiz-adv-x="726" 
d="M-19 0l293 662l-30 66h179l322 -728h-180l-77 175h-291l-49 -109l26 -66h-193zM248 293h189l-95 216zM253 782l-63 28c19 50 56 98 114 98c42 0 79 -35 120 -35c25 0 39 22 47 42l65 -25c-17 -50 -53 -103 -112 -103c-43 0 -84 36 -125 36c-25 0 -38 -21 -46 -41z" />
    <glyph glyph-name="Cacute" unicode="&#x106;" horiz-adv-x="682" 
d="M652 160l16 -83c-31 -20 -57 -35 -90 -51c-57 -28 -121 -41 -194 -41c-205 0 -366 160 -366 358c0 131 70 246 178 307l74 43c54 31 118 50 188 50c72 0 135 -15 193 -41l-56 -147c-57 38 -128 68 -210 68c-30 0 -67 -3 -94 -21c-68 -45 -104 -129 -104 -217
c0 -154 122 -280 277 -280c76 0 125 19 188 55zM402 766l-73 31l112 165l110 -41z" />
    <glyph glyph-name="Ccaron" unicode="&#x10c;" horiz-adv-x="682" 
d="M652 160l16 -83c-31 -20 -57 -35 -90 -51c-57 -28 -121 -41 -194 -41c-205 0 -366 160 -366 358c0 131 70 246 178 307l74 43c54 31 118 50 188 50c72 0 135 -15 193 -41l-56 -147c-57 38 -128 68 -210 68c-30 0 -67 -3 -94 -21c-68 -45 -104 -129 -104 -217
c0 -154 122 -280 277 -280c76 0 125 19 188 55zM387 769l-145 136l52 49l116 -83l117 83l51 -49l-145 -136h-46z" />
    <glyph glyph-name="Ccedilla" unicode="&#xc7;" horiz-adv-x="682" 
d="M292 -185l4 48c27 -7 55 -13 84 -14c26 0 56 4 56 38c0 30 -39 31 -63 32l6 66c-205 5 -361 163 -361 358c0 131 70 246 178 307l74 43c54 31 118 50 188 50c72 0 135 -15 193 -41l-56 -147c-57 38 -128 68 -210 68c-30 0 -67 -3 -94 -21c-68 -45 -104 -129 -104 -217
c0 -154 122 -280 277 -280c76 0 125 19 188 55l16 -83c-31 -20 -57 -35 -90 -51c-46 -23 -97 -35 -153 -39l-2 -21c57 -5 104 -31 104 -85c0 -69 -55 -94 -117 -94c-41 0 -81 12 -118 28z" />
    <glyph glyph-name="Ccircumflex" unicode="&#x108;" horiz-adv-x="682" 
d="M652 160l16 -83c-31 -20 -57 -35 -90 -51c-57 -28 -121 -41 -194 -41c-205 0 -366 160 -366 358c0 131 70 246 178 307l74 43c54 31 118 50 188 50c72 0 135 -15 193 -41l-56 -147c-57 38 -128 68 -210 68c-30 0 -67 -3 -94 -21c-68 -45 -104 -129 -104 -217
c0 -154 122 -280 277 -280c76 0 125 19 188 55zM293 771l-51 47l146 137h46l144 -138l-52 -48l-115 83z" />
    <glyph glyph-name="Cdotaccent" unicode="&#x10a;" horiz-adv-x="682" 
d="M652 160l16 -83c-31 -20 -57 -35 -90 -51c-57 -28 -121 -41 -194 -41c-205 0 -366 160 -366 358c0 131 70 246 178 307l74 43c54 31 118 50 188 50c72 0 135 -15 193 -41l-56 -147c-57 38 -128 68 -210 68c-30 0 -67 -3 -94 -21c-68 -45 -104 -129 -104 -217
c0 -154 122 -280 277 -280c76 0 125 19 188 55zM479 849c0 -38 -31 -69 -69 -69s-69 31 -69 69c0 37 32 69 69 69c38 0 69 -31 69 -69z" />
    <glyph glyph-name="Dcaron" unicode="&#x10e;" horiz-adv-x="720" 
d="M58 0v662l-39 66h332c198 0 352 -153 352 -343c0 -126 -68 -235 -172 -295l-74 -43c-51 -29 -113 -47 -179 -47h-220zM223 121h119c35 0 74 3 96 18c63 43 96 121 96 204c0 145 -113 264 -265 264h-46v-486zM316 769l-145 136l52 49l116 -83l117 83l51 -49l-145 -136h-46
z" />
    <glyph glyph-name="Dcroat" unicode="&#x110;" horiz-adv-x="730" 
d="M68 0v321h-86l18 102h68v239l-38 66h332c198 0 351 -153 351 -343c0 -126 -67 -235 -171 -295l-74 -43c-51 -29 -113 -47 -179 -47h-221zM233 121h120c34 0 69 0 96 18c63 42 96 121 96 204c0 145 -114 264 -265 264h-47v-184h173l-18 -102h-155v-200z" />
    <glyph glyph-name="Eacute" unicode="&#xc9;" horiz-adv-x="553" 
d="M58 0v662l-39 66h512l-46 -121h-262v-170h298l-46 -121h-252v-195h318l-46 -121h-437zM278 766l-73 31l112 165l110 -41z" />
    <glyph glyph-name="Ebreve" unicode="&#x114;" horiz-adv-x="553" 
d="M58 0v662l-39 66h512l-46 -121h-262v-170h298l-46 -121h-252v-195h318l-46 -121h-437zM124 925h62c12 -49 54 -62 100 -62c45 0 88 14 100 62h62c-8 -90 -72 -147 -162 -147c-92 0 -153 56 -162 147z" />
    <glyph glyph-name="Ecaron" unicode="&#x11a;" horiz-adv-x="553" 
d="M58 0v662l-39 66h512l-46 -121h-262v-170h298l-46 -121h-252v-195h318l-46 -121h-437zM263 769l-145 136l52 49l116 -83l117 83l51 -49l-145 -136h-46z" />
    <glyph glyph-name="Ecircumflex" unicode="&#xca;" horiz-adv-x="553" 
d="M58 0v662l-39 66h512l-46 -121h-262v-170h298l-46 -121h-252v-195h318l-46 -121h-437zM169 771l-51 47l146 137h46l144 -138l-52 -48l-115 83z" />
    <glyph glyph-name="Edieresis" unicode="&#xcb;" horiz-adv-x="553" 
d="M58 0v662l-39 66h512l-46 -121h-262v-170h298l-46 -121h-252v-195h318l-46 -121h-437zM458 849c0 -38 -30 -68 -68 -68c-37 0 -67 30 -67 68c0 36 32 68 67 68c37 0 68 -31 68 -68zM249 849c0 -38 -30 -68 -67 -68s-68 31 -68 68c0 36 32 68 68 68s67 -31 67 -68z" />
    <glyph glyph-name="Edotaccent" unicode="&#x116;" horiz-adv-x="553" 
d="M58 0v662l-39 66h512l-46 -121h-262v-170h298l-46 -121h-252v-195h318l-46 -121h-437zM355 849c0 -38 -31 -69 -69 -69s-69 31 -69 69c0 37 32 69 69 69c38 0 69 -31 69 -69z" />
    <glyph glyph-name="Egrave" unicode="&#xc8;" horiz-adv-x="553" 
d="M58 0v662l-39 66h512l-46 -121h-262v-170h298l-46 -121h-252v-195h318l-46 -121h-437zM294 766l-149 155l110 41l112 -165z" />
    <glyph glyph-name="Emacron" unicode="&#x112;" horiz-adv-x="553" 
d="M58 0v662l-39 66h512l-46 -121h-262v-170h298l-46 -121h-252v-195h318l-46 -121h-437zM128 795v81h317v-81h-317z" />
    <glyph glyph-name="Eogonek" unicode="&#x118;" horiz-adv-x="553" 
d="M511 -124l16 -62c-30 -17 -63 -27 -100 -27c-54 0 -100 35 -100 92c0 56 46 94 90 121h-359v662l-39 66h512l-46 -121h-262v-170h298l-46 -121h-252v-195h318l-46 -121h-19c-26 -19 -68 -52 -68 -92c0 -28 17 -46 48 -46c20 0 38 6 55 14z" />
    <glyph glyph-name="Gbreve" unicode="&#x11e;" horiz-adv-x="786" 
d="M711 95l-73 -42c-74 -43 -157 -68 -254 -68c-205 0 -366 160 -366 358c0 131 70 246 178 307l74 43c54 31 118 50 188 50c97 0 177 -25 248 -70l-55 -147c-65 52 -152 97 -260 97c-36 0 -73 -3 -100 -21c-68 -45 -104 -129 -104 -217c0 -155 121 -280 277 -280
c38 0 71 6 102 16c6 3 12 5 18 7v141h-228l46 121h348v-270c-13 -9 -26 -17 -39 -25zM261 925h62c12 -49 54 -62 100 -62c45 0 88 14 100 62h62c-8 -90 -72 -147 -162 -147c-92 0 -153 56 -162 147z" />
    <glyph glyph-name="Gcircumflex" unicode="&#x11c;" horiz-adv-x="786" 
d="M711 95l-73 -42c-74 -43 -157 -68 -254 -68c-205 0 -366 160 -366 358c0 131 70 246 178 307l74 43c54 31 118 50 188 50c97 0 177 -25 248 -70l-55 -147c-65 52 -152 97 -260 97c-36 0 -73 -3 -100 -21c-68 -45 -104 -129 -104 -217c0 -155 121 -280 277 -280
c38 0 71 6 102 16c6 3 12 5 18 7v141h-228l46 121h348v-270c-13 -9 -26 -17 -39 -25zM306 771l-51 47l146 137h46l144 -138l-52 -48l-115 83z" />
    <glyph glyph-name="Gcommaaccent" unicode="&#x122;" horiz-adv-x="786" 
d="M711 95l-73 -42c-74 -43 -157 -68 -254 -68c-205 0 -366 160 -366 358c0 131 70 246 178 307l74 43c54 31 118 50 188 50c97 0 177 -25 248 -70l-55 -147c-65 52 -152 97 -260 97c-36 0 -73 -3 -100 -21c-68 -45 -104 -129 -104 -217c0 -155 121 -280 277 -280
c38 0 71 6 102 16c6 3 12 5 18 7v141h-228l46 121h348v-270c-13 -9 -26 -17 -39 -25zM418 -253l-64 22c19 26 35 53 46 83c-20 11 -32 30 -32 53c0 36 31 59 62 59c40 0 62 -31 62 -67c0 -50 -27 -108 -74 -150z" />
    <glyph glyph-name="Gdotaccent" unicode="&#x120;" horiz-adv-x="786" 
d="M711 95l-73 -42c-74 -43 -157 -68 -254 -68c-205 0 -366 160 -366 358c0 131 70 246 178 307l74 43c54 31 118 50 188 50c97 0 177 -25 248 -70l-55 -147c-65 52 -152 97 -260 97c-36 0 -73 -3 -100 -21c-68 -45 -104 -129 -104 -217c0 -155 121 -280 277 -280
c38 0 71 6 102 16c6 3 12 5 18 7v141h-228l46 121h348v-270c-13 -9 -26 -17 -39 -25zM492 849c0 -38 -31 -69 -69 -69s-69 31 -69 69c0 37 32 69 69 69c38 0 69 -31 69 -69z" />
    <glyph glyph-name="Hbar" unicode="&#x126;" horiz-adv-x="704" 
d="M58 0v534h-45l13 79h32v49l-39 66h204v-115h258v49l-38 66h204v-115h45l-13 -79h-32v-534h-166v316h-258v-316h-165zM223 439h258v95h-258v-95z" />
    <glyph glyph-name="Hcircumflex" unicode="&#x124;" horiz-adv-x="704" 
d="M58 0v662l-39 66h204v-288h258v222l-38 66h204v-728h-166v315h-258v-315h-165zM235 771l-51 47l146 137h46l144 -138l-52 -48l-115 83z" />
    <glyph glyph-name="Iacute" unicode="&#xcd;" horiz-adv-x="291" 
d="M63 0v662l-39 66h204v-728h-165zM137 766l-73 31l112 165l110 -41z" />
    <glyph glyph-name="Ibreve" unicode="&#x12c;" horiz-adv-x="291" 
d="M63 0v662l-39 66h204v-728h-165zM-17 925h62c12 -49 54 -62 100 -62c45 0 88 14 100 62h62c-8 -90 -72 -147 -162 -147c-92 0 -153 56 -162 147z" />
    <glyph glyph-name="Icircumflex" unicode="&#xce;" horiz-adv-x="291" 
d="M63 0v662l-39 66h204v-728h-165zM28 771l-51 47l146 137h46l144 -138l-52 -48l-115 83z" />
    <glyph glyph-name="Idieresis" unicode="&#xcf;" horiz-adv-x="291" 
d="M63 0v662l-39 66h204v-728h-165zM317 849c0 -38 -30 -68 -68 -68c-37 0 -67 30 -67 68c0 36 32 68 67 68c37 0 68 -31 68 -68zM108 849c0 -38 -30 -68 -67 -68s-68 31 -68 68c0 36 32 68 68 68s67 -31 67 -68z" />
    <glyph glyph-name="Idotaccent" unicode="&#x130;" horiz-adv-x="291" 
d="M63 0v662l-39 66h204v-728h-165zM214 849c0 -38 -31 -69 -69 -69s-69 31 -69 69c0 37 32 69 69 69c38 0 69 -31 69 -69z" />
    <glyph glyph-name="Igrave" unicode="&#xcc;" horiz-adv-x="291" 
d="M63 0v662l-39 66h204v-728h-165zM153 766l-149 155l110 41l112 -165z" />
    <glyph glyph-name="Imacron" unicode="&#x12a;" horiz-adv-x="291" 
d="M63 0v662l-39 66h204v-728h-165zM-13 795v81h317v-81h-317z" />
    <glyph glyph-name="Iogonek" unicode="&#x12e;" horiz-adv-x="291" 
d="M225 -124l16 -62c-29 -17 -62 -27 -99 -27c-55 0 -101 35 -101 92c0 56 47 94 91 121h-69v662l-39 66h204v-728h-37c-27 -19 -69 -52 -69 -92c0 -28 18 -46 49 -46c19 0 38 6 54 14z" />
    <glyph glyph-name="Itilde" unicode="&#x128;" horiz-adv-x="291" 
d="M63 0v662l-39 66h204v-728h-165zM35 782l-63 28c19 50 56 98 114 98c42 0 79 -35 120 -35c25 0 39 22 47 42l65 -25c-17 -50 -53 -103 -112 -103c-43 0 -84 36 -125 36c-25 0 -38 -21 -46 -41z" />
    <glyph glyph-name="Jcircumflex" unicode="&#x134;" horiz-adv-x="325" 
d="M-23 -157l-25 122h54c22 0 44 2 65 4c20 22 31 52 31 87v606l-39 66h204v-620c0 -86 -31 -153 -98 -193l-74 -42c-33 -19 -72 -30 -118 -30zM45 771l-51 47l146 137h46l144 -138l-52 -48l-115 83z" />
    <glyph glyph-name="Kcommaaccent" unicode="&#x136;" horiz-adv-x="661" 
d="M58 0v662l-39 66h204v-327l14 17l200 244l-24 66h242l-271 -323c113 -121 222 -257 298 -405h-209c-59 112 -141 221 -224 317l-26 -17v-300h-165zM317 -253l-64 22c19 26 35 53 46 83c-20 11 -32 30 -32 53c0 36 31 59 62 59c40 0 62 -31 62 -67
c0 -50 -27 -108 -74 -150z" />
    <glyph glyph-name="Lacute" unicode="&#x139;" horiz-adv-x="504" 
d="M58 0v662l-39 66h204v-606h282l-47 -122h-400zM111 766l-73 31l112 165l110 -41z" />
    <glyph glyph-name="Lcaron" unicode="&#x13d;" horiz-adv-x="504" 
d="M58 0v662l-39 66h204v-606h282l-47 -122h-400zM320 532l-64 22c19 26 35 53 46 82c-20 12 -32 30 -32 54c0 36 31 58 62 58c40 0 62 -30 62 -67c0 -49 -27 -107 -74 -149z" />
    <glyph glyph-name="Lcommaaccent" unicode="&#x13b;" horiz-adv-x="504" 
d="M58 0v662l-39 66h204v-606h282l-47 -122h-400zM267 -253l-64 22c19 26 35 53 46 83c-20 11 -32 30 -32 53c0 36 31 59 62 59c40 0 62 -31 62 -67c0 -50 -27 -108 -74 -150z" />
    <glyph glyph-name="Ldot" unicode="&#x13f;" horiz-adv-x="504" 
d="M457 378c0 -38 -31 -68 -69 -68s-69 31 -69 68s32 69 69 69c38 0 69 -31 69 -69zM58 0v662l-39 66h204v-606h282l-47 -122h-400z" />
    <glyph glyph-name="Lslash" unicode="&#x141;" horiz-adv-x="512" 
d="M68 0v255l-51 -33l-51 88l102 65v287l-38 66h203v-248l106 69l52 -88l-158 -101v-238h282l-47 -122h-400z" />
    <glyph glyph-name="Nacute" unicode="&#x143;" horiz-adv-x="728" 
d="M58 0v651l-54 77h202l334 -469v403l-39 66h170v-728h-148l-335 469v-469h-130zM356 766l-73 31l112 165l110 -41z" />
    <glyph glyph-name="Ncaron" unicode="&#x147;" horiz-adv-x="728" 
d="M58 0v651l-54 77h202l334 -469v403l-39 66h170v-728h-148l-335 469v-469h-130zM341 769l-145 136l52 49l116 -83l117 83l51 -49l-145 -136h-46z" />
    <glyph glyph-name="Ncommaaccent" unicode="&#x145;" horiz-adv-x="728" 
d="M58 0v651l-54 77h202l334 -469v403l-39 66h170v-728h-148l-335 469v-469h-130zM359 -253l-64 22c19 26 35 53 46 83c-20 11 -32 30 -32 53c0 36 31 59 62 59c40 0 62 -31 62 -67c0 -50 -27 -108 -74 -150z" />
    <glyph glyph-name="Ntilde" unicode="&#xd1;" horiz-adv-x="728" 
d="M58 0v651l-54 77h202l334 -469v403l-39 66h170v-728h-148l-335 469v-469h-130zM254 782l-63 28c19 50 56 98 114 98c42 0 79 -35 120 -35c25 0 39 22 47 42l65 -25c-17 -50 -53 -103 -112 -103c-43 0 -84 36 -125 36c-25 0 -38 -21 -46 -41z" />
    <glyph glyph-name="Eng" unicode="&#x14a;" horiz-adv-x="728" 
d="M426 -178l-20 109h29c22 1 46 2 66 4c19 18 22 43 22 65l-335 469v-469h-130v651l-54 77h202l334 -469v403l-39 66h170v-709c0 -56 -20 -103 -69 -132c-68 -40 -98 -65 -176 -65z" />
    <glyph glyph-name="Oacute" unicode="&#xd3;" horiz-adv-x="833" 
d="M639 76l-73 -43c-54 -31 -117 -48 -186 -48c-206 0 -362 159 -362 358c0 132 69 245 176 308l73 43c53 31 117 49 186 49c208 0 363 -159 363 -358c0 -133 -69 -248 -177 -309zM547 122c66 46 100 130 100 221c0 154 -112 280 -267 280c-34 0 -68 0 -93 -18
c-67 -46 -100 -130 -100 -220c0 -154 112 -280 266 -280c34 0 68 -1 94 17zM408 766l-73 31l112 165l110 -41z" />
    <glyph glyph-name="Obreve" unicode="&#x14e;" horiz-adv-x="833" 
d="M639 76l-73 -43c-54 -31 -117 -48 -186 -48c-206 0 -362 159 -362 358c0 132 69 245 176 308l73 43c53 31 117 49 186 49c208 0 363 -159 363 -358c0 -133 -69 -248 -177 -309zM547 122c66 46 100 130 100 221c0 154 -112 280 -267 280c-34 0 -68 0 -93 -18
c-67 -46 -100 -130 -100 -220c0 -154 112 -280 266 -280c34 0 68 -1 94 17zM254 925h62c12 -49 54 -62 100 -62c45 0 88 14 100 62h62c-8 -90 -72 -147 -162 -147c-92 0 -153 56 -162 147z" />
    <glyph glyph-name="Ocircumflex" unicode="&#xd4;" horiz-adv-x="833" 
d="M639 76l-73 -43c-54 -31 -117 -48 -186 -48c-206 0 -362 159 -362 358c0 132 69 245 176 308l73 43c53 31 117 49 186 49c208 0 363 -159 363 -358c0 -133 -69 -248 -177 -309zM547 122c66 46 100 130 100 221c0 154 -112 280 -267 280c-34 0 -68 0 -93 -18
c-67 -46 -100 -130 -100 -220c0 -154 112 -280 266 -280c34 0 68 -1 94 17zM299 771l-51 47l146 137h46l144 -138l-52 -48l-115 83z" />
    <glyph glyph-name="Odieresis" unicode="&#xd6;" horiz-adv-x="833" 
d="M639 76l-73 -43c-54 -31 -117 -48 -186 -48c-206 0 -362 159 -362 358c0 132 69 245 176 308l73 43c53 31 117 49 186 49c208 0 363 -159 363 -358c0 -133 -69 -248 -177 -309zM547 122c66 46 100 130 100 221c0 154 -112 280 -267 280c-34 0 -68 0 -93 -18
c-67 -46 -100 -130 -100 -220c0 -154 112 -280 266 -280c34 0 68 -1 94 17zM588 849c0 -38 -30 -68 -68 -68c-37 0 -67 30 -67 68c0 36 32 68 67 68c37 0 68 -31 68 -68zM379 849c0 -38 -30 -68 -67 -68s-68 31 -68 68c0 36 32 68 68 68s67 -31 67 -68z" />
    <glyph glyph-name="OE" unicode="&#x152;" horiz-adv-x="1020" 
d="M525 0v13c-44 -18 -93 -28 -145 -28c-206 0 -362 159 -362 358c0 132 69 245 176 308l73 43c53 31 117 49 186 49c39 0 77 -6 112 -15h434l-46 -121h-263v-170h299l-46 -121h-253v-195h319l-46 -121h-438zM525 115v474c-41 20 -90 34 -145 34c-34 0 -71 -2 -93 -18
c-65 -47 -100 -130 -100 -220c0 -154 112 -280 266 -280c25 0 50 2 72 10z" />
    <glyph glyph-name="Ograve" unicode="&#xd2;" horiz-adv-x="833" 
d="M639 76l-73 -43c-54 -31 -117 -48 -186 -48c-206 0 -362 159 -362 358c0 132 69 245 176 308l73 43c53 31 117 49 186 49c208 0 363 -159 363 -358c0 -133 -69 -248 -177 -309zM547 122c66 46 100 130 100 221c0 154 -112 280 -267 280c-34 0 -68 0 -93 -18
c-67 -46 -100 -130 -100 -220c0 -154 112 -280 266 -280c34 0 68 -1 94 17zM424 766l-149 155l110 41l112 -165z" />
    <glyph glyph-name="Ohungarumlaut" unicode="&#x150;" horiz-adv-x="833" 
d="M639 76l-73 -43c-54 -31 -117 -48 -186 -48c-206 0 -362 159 -362 358c0 132 69 245 176 308l73 43c53 31 117 49 186 49c208 0 363 -159 363 -358c0 -133 -69 -248 -177 -309zM547 122c66 46 100 130 100 221c0 154 -112 280 -267 280c-34 0 -68 0 -93 -18
c-67 -46 -100 -130 -100 -220c0 -154 112 -280 266 -280c34 0 68 -1 94 17zM488 766l-73 31l112 165l110 -41zM327 766l-72 31l111 165l111 -41z" />
    <glyph glyph-name="Omacron" unicode="&#x14c;" horiz-adv-x="833" 
d="M639 76l-73 -43c-54 -31 -117 -48 -186 -48c-206 0 -362 159 -362 358c0 132 69 245 176 308l73 43c53 31 117 49 186 49c208 0 363 -159 363 -358c0 -133 -69 -248 -177 -309zM547 122c66 46 100 130 100 221c0 154 -112 280 -267 280c-34 0 -68 0 -93 -18
c-67 -46 -100 -130 -100 -220c0 -154 112 -280 266 -280c34 0 68 -1 94 17zM258 795v81h317v-81h-317z" />
    <glyph glyph-name="Oslash" unicode="&#xd8;" horiz-adv-x="833" 
d="M156 -77l-84 58l69 91c-76 65 -123 162 -123 271c0 132 70 245 177 308l73 43c53 31 116 49 186 49c56 0 108 -13 153 -35l54 73l8 10l85 -58l-59 -78c76 -66 122 -161 122 -270c0 -133 -70 -247 -177 -309l-74 -43c-53 -31 -117 -48 -186 -48c-54 0 -106 12 -151 35z
M594 511l-278 -367c40 -25 87 -39 138 -39c34 0 68 -1 94 17c66 46 100 130 100 221c0 64 -20 122 -54 168zM242 216l276 367c-39 25 -85 40 -138 40c-33 0 -67 0 -93 -18c-66 -46 -100 -130 -100 -220c0 -64 20 -123 55 -169z" />
    <glyph glyph-name="Otilde" unicode="&#xd5;" horiz-adv-x="833" 
d="M639 76l-73 -43c-54 -31 -117 -48 -186 -48c-206 0 -362 159 -362 358c0 132 69 245 176 308l73 43c53 31 117 49 186 49c208 0 363 -159 363 -358c0 -133 -69 -248 -177 -309zM547 122c66 46 100 130 100 221c0 154 -112 280 -267 280c-34 0 -68 0 -93 -18
c-67 -46 -100 -130 -100 -220c0 -154 112 -280 266 -280c34 0 68 -1 94 17zM306 782l-63 28c19 50 56 98 114 98c42 0 79 -35 120 -35c25 0 39 22 47 42l65 -25c-17 -50 -53 -103 -112 -103c-43 0 -84 36 -125 36c-25 0 -38 -21 -46 -41z" />
    <glyph glyph-name="Racute" unicode="&#x154;" horiz-adv-x="624" 
d="M58 0v662l-39 66h334c123 0 216 -92 216 -208c0 -76 -38 -141 -97 -179l-22 -14c-9 -5 -19 -9 -30 -10l227 -317h-206l-186 282h-32v-282h-165zM223 390h123c9 0 18 3 25 8c19 20 31 47 32 78c0 75 -57 133 -132 133h-48v-219zM304 766l-73 31l112 165l110 -41z" />
    <glyph glyph-name="Rcaron" unicode="&#x158;" horiz-adv-x="624" 
d="M58 0v662l-39 66h334c123 0 216 -92 216 -208c0 -76 -38 -141 -97 -179l-22 -14c-9 -5 -19 -9 -30 -10l227 -317h-206l-186 282h-32v-282h-165zM223 390h123c9 0 18 3 25 8c19 20 31 47 32 78c0 75 -57 133 -132 133h-48v-219zM289 769l-145 136l52 49l116 -83l117 83
l51 -49l-145 -136h-46z" />
    <glyph glyph-name="Rcommaaccent" unicode="&#x156;" horiz-adv-x="624" 
d="M58 0v662l-39 66h334c123 0 216 -92 216 -208c0 -76 -38 -141 -97 -179l-22 -14c-9 -5 -19 -9 -30 -10l227 -317h-206l-186 282h-32v-282h-165zM223 390h123c9 0 18 3 25 8c19 20 31 47 32 78c0 75 -57 133 -132 133h-48v-219zM318 -253l-64 22c19 26 35 53 46 83
c-20 11 -32 30 -32 53c0 36 31 59 62 59c40 0 62 -31 62 -67c0 -50 -27 -108 -74 -150z" />
    <glyph glyph-name="Sacute" unicode="&#x15a;" horiz-adv-x="546" 
d="M424 57l-74 -41c-36 -21 -76 -31 -118 -31c-75 0 -150 20 -212 62l54 140c74 -52 138 -83 231 -83c34 0 52 47 52 80c0 81 -76 104 -154 130c-85 28 -172 70 -172 188c0 85 48 142 98 171l74 42c33 19 70 28 108 28c70 0 140 -21 198 -59l-55 -140
c-62 44 -133 80 -211 80c-28 0 -43 -44 -43 -70c0 -82 73 -98 152 -125c85 -29 175 -69 175 -194c0 -74 -38 -141 -103 -178zM265 766l-73 31l112 165l110 -41z" />
    <glyph glyph-name="Scaron" unicode="&#x160;" horiz-adv-x="546" 
d="M424 57l-74 -41c-36 -21 -76 -31 -118 -31c-75 0 -150 20 -212 62l54 140c74 -52 138 -83 231 -83c34 0 52 47 52 80c0 81 -76 104 -154 130c-85 28 -172 70 -172 188c0 85 48 142 98 171l74 42c33 19 70 28 108 28c70 0 140 -21 198 -59l-55 -140
c-62 44 -133 80 -211 80c-28 0 -43 -44 -43 -70c0 -82 73 -98 152 -125c85 -29 175 -69 175 -194c0 -74 -38 -141 -103 -178zM250 769l-145 136l52 49l116 -83l117 83l51 -49l-145 -136h-46z" />
    <glyph glyph-name="Scedilla" unicode="&#x15e;" horiz-adv-x="546" 
d="M157 -185l4 48c27 -7 55 -13 84 -14c26 0 56 4 56 38c0 30 -39 31 -63 32l6 66c-90 1 -163 20 -224 62l54 140c74 -52 138 -83 231 -83c34 0 52 47 52 80c0 81 -76 104 -154 130c-85 28 -172 70 -172 188c0 85 48 142 98 171l74 42c33 19 70 28 108 28
c70 0 140 -21 198 -59l-55 -140c-62 44 -133 80 -211 80c-28 0 -43 -44 -43 -70c0 -82 73 -98 152 -125c85 -29 175 -69 175 -194c0 -74 -38 -141 -103 -178l-74 -41c-19 -11 -39 -18 -59 -23l-2 -27c56 -5 103 -31 103 -85c0 -69 -55 -94 -117 -94c-41 0 -81 12 -118 28z
" />
    <glyph glyph-name="Scircumflex" unicode="&#x15c;" horiz-adv-x="546" 
d="M424 57l-74 -41c-36 -21 -76 -31 -118 -31c-75 0 -150 20 -212 62l54 140c74 -52 138 -83 231 -83c34 0 52 47 52 80c0 81 -76 104 -154 130c-85 28 -172 70 -172 188c0 85 48 142 98 171l74 42c33 19 70 28 108 28c70 0 140 -21 198 -59l-55 -140
c-62 44 -133 80 -211 80c-28 0 -43 -44 -43 -70c0 -82 73 -98 152 -125c85 -29 175 -69 175 -194c0 -74 -38 -141 -103 -178zM156 771l-51 47l146 137h46l144 -138l-52 -48l-115 83z" />
    <glyph glyph-name="Scommaaccent" unicode="&#x218;" horiz-adv-x="546" 
d="M424 57l-74 -41c-36 -21 -76 -31 -118 -31c-75 0 -150 20 -212 62l54 140c74 -52 138 -83 231 -83c34 0 52 47 52 80c0 81 -76 104 -154 130c-85 28 -172 70 -172 188c0 85 48 142 98 171l74 42c33 19 70 28 108 28c70 0 140 -21 198 -59l-55 -140
c-62 44 -133 80 -211 80c-28 0 -43 -44 -43 -70c0 -82 73 -98 152 -125c85 -29 175 -69 175 -194c0 -74 -38 -141 -103 -178zM270 -253l-64 22c19 26 35 53 46 83c-20 11 -32 30 -32 53c0 36 31 59 62 59c40 0 62 -31 62 -67c0 -50 -27 -108 -74 -150z" />
    <glyph glyph-name="Tbar" unicode="&#x166;" horiz-adv-x="599" 
d="M217 0v321h-129l18 102h111v183h-216l46 122h552l-46 -122h-171v-183h129l-17 -102h-112v-321h-165z" />
    <glyph glyph-name="Tcaron" unicode="&#x164;" horiz-adv-x="599" 
d="M217 0v606h-216l46 122h552l-46 -122h-171v-606h-165zM276 769l-145 136l52 49l116 -83l117 83l51 -49l-145 -136h-46z" />
    <glyph glyph-name="Thorn" unicode="&#xde;" horiz-adv-x="595" 
d="M58 0v662l-39 66h204v-111h126c130 0 229 -98 229 -219c0 -79 -42 -147 -108 -185l-73 -42c-35 -21 -76 -32 -122 -32h-52v-139h-165zM223 258h119c10 0 23 3 32 9c24 21 37 52 37 88c0 78 -65 143 -144 143h-44v-240z" />
    <glyph glyph-name="Uacute" unicode="&#xda;" horiz-adv-x="691" 
d="M566 78l-73 -43c-56 -32 -121 -50 -190 -50c-142 0 -248 104 -248 237v440l-39 66h204v-460c0 -86 69 -158 156 -158c22 0 43 3 62 10c10 3 21 8 30 12v530l-38 66h204v-607c-17 -12 -52 -34 -68 -43zM337 766l-73 31l112 165l110 -41z" />
    <glyph glyph-name="Ubreve" unicode="&#x16c;" horiz-adv-x="691" 
d="M566 78l-73 -43c-56 -32 -121 -50 -190 -50c-142 0 -248 104 -248 237v440l-39 66h204v-460c0 -86 69 -158 156 -158c22 0 43 3 62 10c10 3 21 8 30 12v530l-38 66h204v-607c-17 -12 -52 -34 -68 -43zM183 925h62c12 -49 54 -62 100 -62c45 0 88 14 100 62h62
c-8 -90 -72 -147 -162 -147c-92 0 -153 56 -162 147z" />
    <glyph glyph-name="Ucircumflex" unicode="&#xdb;" horiz-adv-x="691" 
d="M566 78l-73 -43c-56 -32 -121 -50 -190 -50c-142 0 -248 104 -248 237v440l-39 66h204v-460c0 -86 69 -158 156 -158c22 0 43 3 62 10c10 3 21 8 30 12v530l-38 66h204v-607c-17 -12 -52 -34 -68 -43zM228 771l-51 47l146 137h46l144 -138l-52 -48l-115 83z" />
    <glyph glyph-name="Udieresis" unicode="&#xdc;" horiz-adv-x="691" 
d="M566 78l-73 -43c-56 -32 -121 -50 -190 -50c-142 0 -248 104 -248 237v440l-39 66h204v-460c0 -86 69 -158 156 -158c22 0 43 3 62 10c10 3 21 8 30 12v530l-38 66h204v-607c-17 -12 -52 -34 -68 -43zM517 849c0 -38 -30 -68 -68 -68c-37 0 -67 30 -67 68
c0 36 32 68 67 68c37 0 68 -31 68 -68zM308 849c0 -38 -30 -68 -67 -68s-68 31 -68 68c0 36 32 68 68 68s67 -31 67 -68z" />
    <glyph glyph-name="Ugrave" unicode="&#xd9;" horiz-adv-x="691" 
d="M566 78l-73 -43c-56 -32 -121 -50 -190 -50c-142 0 -248 104 -248 237v440l-39 66h204v-460c0 -86 69 -158 156 -158c22 0 43 3 62 10c10 3 21 8 30 12v530l-38 66h204v-607c-17 -12 -52 -34 -68 -43zM353 766l-149 155l110 41l112 -165z" />
    <glyph glyph-name="Uhungarumlaut" unicode="&#x170;" horiz-adv-x="691" 
d="M566 78l-73 -43c-56 -32 -121 -50 -190 -50c-142 0 -248 104 -248 237v440l-39 66h204v-460c0 -86 69 -158 156 -158c22 0 43 3 62 10c10 3 21 8 30 12v530l-38 66h204v-607c-17 -12 -52 -34 -68 -43zM417 766l-73 31l112 165l110 -41zM256 766l-72 31l111 165l111 -41z
" />
    <glyph glyph-name="Umacron" unicode="&#x16a;" horiz-adv-x="691" 
d="M566 78l-73 -43c-56 -32 -121 -50 -190 -50c-142 0 -248 104 -248 237v440l-39 66h204v-460c0 -86 69 -158 156 -158c22 0 43 3 62 10c10 3 21 8 30 12v530l-38 66h204v-607c-17 -12 -52 -34 -68 -43zM187 795v81h317v-81h-317z" />
    <glyph glyph-name="uni021A" unicode="&#x21a;" horiz-adv-x="599" 
d="M217 0v606h-216l46 122h552l-46 -122h-171v-606h-165zM294 -253l-64 22c19 26 35 53 46 83c-20 11 -32 30 -32 53c0 36 31 59 62 59c40 0 62 -31 62 -67c0 -50 -27 -108 -74 -150z" />
    <glyph glyph-name="Uogonek" unicode="&#x172;" horiz-adv-x="691" 
d="M484 -124l16 -62c-29 -17 -63 -27 -100 -27c-54 0 -100 35 -100 92c0 51 39 87 79 113c-25 -5 -51 -7 -76 -7c-142 0 -248 104 -248 237v440l-39 66h204v-460c0 -86 69 -158 156 -158c33 0 62 9 92 22v530l-38 66h204v-607c-22 -15 -45 -30 -68 -43
c-37 -22 -74 -42 -109 -61c-33 -24 -76 -62 -76 -109c0 -31 17 -46 49 -46c19 0 37 6 54 14z" />
    <glyph glyph-name="Uring" unicode="&#x16e;" horiz-adv-x="691" 
d="M566 78l-73 -43c-56 -32 -121 -50 -190 -50c-142 0 -248 104 -248 237v440l-39 66h204v-460c0 -86 69 -158 156 -158c22 0 43 3 62 10c10 3 21 8 30 12v530l-38 66h204v-607c-17 -12 -52 -34 -68 -43zM478 871c0 -74 -66 -113 -133 -113c-68 0 -133 38 -133 113
c0 74 65 115 133 115s133 -41 133 -115zM404 872c0 33 -29 51 -59 51s-59 -18 -59 -51s29 -51 59 -51s59 18 59 51z" />
    <glyph glyph-name="Utilde" unicode="&#x168;" horiz-adv-x="691" 
d="M566 78l-73 -43c-56 -32 -121 -50 -190 -50c-142 0 -248 104 -248 237v440l-39 66h204v-460c0 -86 69 -158 156 -158c22 0 43 3 62 10c10 3 21 8 30 12v530l-38 66h204v-607c-17 -12 -52 -34 -68 -43zM235 782l-63 28c19 50 56 98 114 98c42 0 79 -35 120 -35
c25 0 39 22 47 42l65 -25c-17 -50 -53 -103 -112 -103c-43 0 -84 36 -125 36c-25 0 -38 -21 -46 -41z" />
    <glyph glyph-name="Wacute" unicode="&#x1e82;" horiz-adv-x="1009" 
d="M282 0l-306 728h180l205 -492l74 174l-134 318h180l206 -492l180 426l-26 66h193l-306 -728h-121l-103 244l-102 -244h-120zM496 766l-73 31l112 165l110 -41z" />
    <glyph glyph-name="Wcircumflex" unicode="&#x174;" horiz-adv-x="1009" 
d="M282 0l-306 728h180l205 -492l74 174l-134 318h180l206 -492l180 426l-26 66h193l-306 -728h-121l-103 244l-102 -244h-120zM387 771l-51 47l146 137h46l144 -138l-52 -48l-115 83z" />
    <glyph glyph-name="Wdieresis" unicode="&#x1e84;" horiz-adv-x="1009" 
d="M282 0l-306 728h180l205 -492l74 174l-134 318h180l206 -492l180 426l-26 66h193l-306 -728h-121l-103 244l-102 -244h-120zM676 849c0 -38 -30 -68 -68 -68c-37 0 -67 30 -67 68c0 36 32 68 67 68c37 0 68 -31 68 -68zM467 849c0 -38 -30 -68 -67 -68s-68 31 -68 68
c0 36 32 68 68 68s67 -31 67 -68z" />
    <glyph glyph-name="Wgrave" unicode="&#x1e80;" horiz-adv-x="1009" 
d="M282 0l-306 728h180l205 -492l74 174l-134 318h180l206 -492l180 426l-26 66h193l-306 -728h-121l-103 244l-102 -244h-120zM512 766l-149 155l110 41l112 -165z" />
    <glyph glyph-name="Yacute" unicode="&#xdd;" horiz-adv-x="655" 
d="M247 0v290l-266 438h196l172 -293l135 227l-26 66h217l-263 -436v-292h-165zM320 766l-73 31l112 165l110 -41z" />
    <glyph glyph-name="Ycircumflex" unicode="&#x176;" horiz-adv-x="655" 
d="M247 0v290l-266 438h196l172 -293l135 227l-26 66h217l-263 -436v-292h-165zM211 771l-51 47l146 137h46l144 -138l-52 -48l-115 83z" />
    <glyph glyph-name="Ydieresis" unicode="&#x178;" horiz-adv-x="655" 
d="M247 0v290l-266 438h196l172 -293l135 227l-26 66h217l-263 -436v-292h-165zM500 849c0 -38 -30 -68 -68 -68c-37 0 -67 30 -67 68c0 36 32 68 67 68c37 0 68 -31 68 -68zM291 849c0 -38 -30 -68 -67 -68s-68 31 -68 68c0 36 32 68 68 68s67 -31 67 -68z" />
    <glyph glyph-name="Ygrave" unicode="&#x1ef2;" horiz-adv-x="655" 
d="M247 0v290l-266 438h196l172 -293l135 227l-26 66h217l-263 -436v-292h-165zM336 766l-149 155l110 41l112 -165z" />
    <glyph glyph-name="Zacute" unicode="&#x179;" horiz-adv-x="601" 
d="M16 0v61l335 545h-333l48 122h509v-61l-336 -545h358l-46 -122h-535zM292 766l-73 31l112 165l110 -41z" />
    <glyph glyph-name="Zcaron" unicode="&#x17d;" horiz-adv-x="601" 
d="M16 0v61l335 545h-333l48 122h509v-61l-336 -545h358l-46 -122h-535zM277 769l-145 136l52 49l116 -83l117 83l51 -49l-145 -136h-46z" />
    <glyph glyph-name="Zdotaccent" unicode="&#x17b;" horiz-adv-x="601" 
d="M16 0v61l335 545h-333l48 122h509v-61l-336 -545h358l-46 -122h-535zM369 849c0 -38 -31 -69 -69 -69s-69 31 -69 69c0 37 32 69 69 69c38 0 69 -31 69 -69z" />
    <glyph glyph-name="aacute" unicode="&#xe1;" horiz-adv-x="508" 
d="M473 -4h-52c-53 0 -92 17 -109 59c-16 -11 -40 -26 -56 -36l-12 -7c-27 -16 -54 -23 -82 -23c-79 0 -144 49 -144 133c0 59 27 100 72 126l69 40c35 20 82 31 134 36c0 6 0 13 -1 19c-6 42 -46 59 -88 59c-43 0 -86 -14 -124 -34l-25 64c23 15 48 29 70 40
c44 21 103 41 165 41c87 0 159 -44 159 -142v-208c0 -44 17 -61 62 -61h2zM297 117v122c-41 -1 -79 -3 -111 -16c-11 -13 -17 -29 -17 -50c0 -48 40 -78 89 -78c12 0 29 10 39 22zM245 545l-73 30l112 165l110 -41z" />
    <glyph glyph-name="abreve" unicode="&#x103;" horiz-adv-x="508" 
d="M473 -4h-52c-53 0 -92 17 -109 59c-16 -11 -40 -26 -56 -36l-12 -7c-27 -16 -54 -23 -82 -23c-79 0 -144 49 -144 133c0 59 27 100 72 126l69 40c35 20 82 31 134 36c0 6 0 13 -1 19c-6 42 -46 59 -88 59c-43 0 -86 -14 -124 -34l-25 64c23 15 48 29 70 40
c44 21 103 41 165 41c87 0 159 -44 159 -142v-208c0 -44 17 -61 62 -61h2zM297 117v122c-41 -1 -79 -3 -111 -16c-11 -13 -17 -29 -17 -50c0 -48 40 -78 89 -78c12 0 29 10 39 22zM91 704h62c12 -49 54 -63 100 -63c45 0 88 14 100 63h62c-8 -91 -72 -148 -162 -148
c-92 0 -153 56 -162 148z" />
    <glyph glyph-name="acircumflex" unicode="&#xe2;" horiz-adv-x="508" 
d="M473 -4h-52c-53 0 -92 17 -109 59c-16 -11 -40 -26 -56 -36l-12 -7c-27 -16 -54 -23 -82 -23c-79 0 -144 49 -144 133c0 59 27 100 72 126l69 40c35 20 82 31 134 36c0 6 0 13 -1 19c-6 42 -46 59 -88 59c-43 0 -86 -14 -124 -34l-25 64c23 15 48 29 70 40
c44 21 103 41 165 41c87 0 159 -44 159 -142v-208c0 -44 17 -61 62 -61h2zM297 117v122c-41 -1 -79 -3 -111 -16c-11 -13 -17 -29 -17 -50c0 -48 40 -78 89 -78c12 0 29 10 39 22zM136 549l-51 47l146 137h46l144 -138l-52 -48l-115 84z" />
    <glyph glyph-name="adieresis" unicode="&#xe4;" horiz-adv-x="508" 
d="M473 -4h-52c-53 0 -92 17 -109 59c-16 -11 -40 -26 -56 -36l-12 -7c-27 -16 -54 -23 -82 -23c-79 0 -144 49 -144 133c0 59 27 100 72 126l69 40c35 20 82 31 134 36c0 6 0 13 -1 19c-6 42 -46 59 -88 59c-43 0 -86 -14 -124 -34l-25 64c23 15 48 29 70 40
c44 21 103 41 165 41c87 0 159 -44 159 -142v-208c0 -44 17 -61 62 -61h2zM297 117v122c-41 -1 -79 -3 -111 -16c-11 -13 -17 -29 -17 -50c0 -48 40 -78 89 -78c12 0 29 10 39 22zM425 627c0 -37 -30 -67 -68 -67c-37 0 -67 30 -67 67c0 36 32 68 67 68c37 0 68 -31 68 -68z
M216 627c0 -37 -30 -67 -67 -67s-68 30 -68 67c0 36 32 68 68 68s67 -31 67 -68z" />
    <glyph glyph-name="ae" unicode="&#xe6;" horiz-adv-x="822" 
d="M282 28l-26 -14c-28 -16 -60 -25 -92 -25c-81 0 -146 49 -146 133c0 56 25 93 67 117l24 14c59 34 110 53 197 59c0 64 -34 90 -98 90c-48 0 -94 -15 -128 -34l-26 62c75 47 147 83 241 83c65 0 120 -30 133 -78c9 13 23 26 40 36l19 11c35 21 69 31 111 31
c110 0 186 -88 196 -203c2 -26 4 -59 4 -89h-333c15 -70 78 -123 156 -123c59 0 97 17 151 54l31 -64c-62 -52 -162 -99 -256 -99c-79 0 -149 34 -192 91c-23 -19 -47 -37 -73 -52zM320 143c-9 23 -15 57 -15 91c-44 -1 -87 -2 -120 -14c-11 -13 -16 -30 -16 -46
c0 -48 41 -78 93 -78c19 0 43 25 58 47zM462 319h205c-19 52 -64 85 -121 85c-14 0 -27 -3 -41 -7c-21 -20 -37 -46 -43 -78z" />
    <glyph glyph-name="agrave" unicode="&#xe0;" horiz-adv-x="508" 
d="M473 -4h-52c-53 0 -92 17 -109 59c-16 -11 -40 -26 -56 -36l-12 -7c-27 -16 -54 -23 -82 -23c-79 0 -144 49 -144 133c0 59 27 100 72 126l69 40c35 20 82 31 134 36c0 6 0 13 -1 19c-6 42 -46 59 -88 59c-43 0 -86 -14 -124 -34l-25 64c23 15 48 29 70 40
c44 21 103 41 165 41c87 0 159 -44 159 -142v-208c0 -44 17 -61 62 -61h2zM297 117v122c-41 -1 -79 -3 -111 -16c-11 -13 -17 -29 -17 -50c0 -48 40 -78 89 -78c12 0 29 10 39 22zM261 545l-149 154l110 41l112 -165z" />
    <glyph glyph-name="amacron" unicode="&#x101;" horiz-adv-x="508" 
d="M473 -4h-52c-53 0 -92 17 -109 59c-16 -11 -40 -26 -56 -36l-12 -7c-27 -16 -54 -23 -82 -23c-79 0 -144 49 -144 133c0 59 27 100 72 126l69 40c35 20 82 31 134 36c0 6 0 13 -1 19c-6 42 -46 59 -88 59c-43 0 -86 -14 -124 -34l-25 64c23 15 48 29 70 40
c44 21 103 41 165 41c87 0 159 -44 159 -142v-208c0 -44 17 -61 62 -61h2zM297 117v122c-41 -1 -79 -3 -111 -16c-11 -13 -17 -29 -17 -50c0 -48 40 -78 89 -78c12 0 29 10 39 22zM95 574v80h317v-80h-317z" />
    <glyph glyph-name="aogonek" unicode="&#x105;" horiz-adv-x="508" 
d="M498 -124l16 -62c-30 -17 -63 -27 -100 -27c-54 0 -100 35 -100 92c0 54 42 92 86 119c-41 4 -73 21 -88 57c-18 -12 -38 -25 -56 -36l-12 -7c-27 -16 -54 -23 -82 -23c-79 0 -144 49 -144 133c0 59 27 100 72 126l69 40c35 20 82 31 134 36c0 6 0 13 -1 19
c-6 42 -46 59 -88 59c-43 0 -86 -14 -124 -34l-25 64c23 15 48 29 70 40c44 21 103 41 165 41c87 0 159 -44 159 -142v-208c0 -44 17 -61 64 -61l-40 -106h-16c-26 -19 -62 -50 -62 -88c0 -28 17 -46 48 -46c20 0 38 6 55 14zM297 117v122c-41 -1 -79 -3 -111 -16
c-11 -13 -17 -29 -17 -50c0 -48 40 -78 89 -78c12 0 29 10 39 22z" />
    <glyph glyph-name="aring" unicode="&#xe5;" horiz-adv-x="508" 
d="M473 -4h-52c-53 0 -92 17 -109 59c-16 -11 -40 -26 -56 -36l-12 -7c-27 -16 -54 -23 -82 -23c-79 0 -144 49 -144 133c0 59 27 100 72 126l69 40c35 20 82 31 134 36c0 6 0 13 -1 19c-6 42 -46 59 -88 59c-43 0 -86 -14 -124 -34l-25 64c23 15 48 29 70 40
c44 21 103 41 165 41c87 0 159 -44 159 -142v-208c0 -44 17 -61 62 -61h2zM297 117v122c-41 -1 -79 -3 -111 -16c-11 -13 -17 -29 -17 -50c0 -48 40 -78 89 -78c12 0 29 10 39 22zM386 650c0 -75 -66 -114 -133 -114c-68 0 -133 39 -133 114c0 73 65 114 133 114
s133 -41 133 -114zM312 650c0 33 -29 51 -59 51s-59 -18 -59 -51c0 -32 29 -51 59 -51s59 19 59 51z" />
    <glyph glyph-name="atilde" unicode="&#xe3;" horiz-adv-x="508" 
d="M473 -4h-52c-53 0 -92 17 -109 59c-16 -11 -40 -26 -56 -36l-12 -7c-27 -16 -54 -23 -82 -23c-79 0 -144 49 -144 133c0 59 27 100 72 126l69 40c35 20 82 31 134 36c0 6 0 13 -1 19c-6 42 -46 59 -88 59c-43 0 -86 -14 -124 -34l-25 64c23 15 48 29 70 40
c44 21 103 41 165 41c87 0 159 -44 159 -142v-208c0 -44 17 -61 62 -61h2zM297 117v122c-41 -1 -79 -3 -111 -16c-11 -13 -17 -29 -17 -50c0 -48 40 -78 89 -78c12 0 29 10 39 22zM143 560l-63 28c19 50 56 98 114 98c42 0 79 -35 120 -35c25 0 39 22 47 42l65 -25
c-17 -50 -53 -103 -112 -103c-43 0 -84 36 -125 36c-25 0 -38 -21 -46 -41z" />
    <glyph glyph-name="cacute" unicode="&#x107;" horiz-adv-x="491" 
d="M466 127l9 -72c-63 -39 -129 -66 -208 -66c-143 0 -252 108 -252 241c0 88 48 166 121 208l70 40c37 22 82 35 130 35c49 0 90 -11 129 -30l-48 -128c-45 30 -92 47 -144 47c-17 0 -36 -2 -49 -12c-36 -26 -50 -71 -50 -120c0 -93 75 -170 169 -170c41 0 81 7 123 27z
M278 545l-73 30l112 165l110 -41z" />
    <glyph glyph-name="ccaron" unicode="&#x10d;" horiz-adv-x="491" 
d="M466 127l9 -72c-63 -39 -129 -66 -208 -66c-143 0 -252 108 -252 241c0 88 48 166 121 208l70 40c37 22 82 35 130 35c49 0 90 -11 129 -30l-48 -128c-45 30 -92 47 -144 47c-17 0 -36 -2 -49 -12c-36 -26 -50 -71 -50 -120c0 -93 75 -170 169 -170c41 0 81 7 123 27z
M263 547l-145 137l52 48l116 -83l117 83l51 -48l-145 -137h-46z" />
    <glyph glyph-name="ccedilla" unicode="&#xe7;" horiz-adv-x="491" 
d="M169 -185l3 48c28 -7 56 -13 85 -14c26 0 56 4 56 38c0 33 -40 31 -63 32l6 70c-138 5 -241 111 -241 241c0 88 48 166 121 208l70 40c37 22 82 35 130 35c49 0 90 -11 129 -30l-48 -128c-45 30 -92 47 -144 47c-17 0 -36 -2 -49 -12c-36 -26 -50 -71 -50 -120
c0 -93 75 -170 169 -170c41 0 81 7 123 27l9 -72c-52 -32 -104 -56 -172 -64l-3 -25c57 -5 104 -31 104 -85c0 -69 -56 -94 -117 -94c-41 0 -81 12 -118 28z" />
    <glyph glyph-name="ccircumflex" unicode="&#x109;" horiz-adv-x="491" 
d="M466 127l9 -72c-63 -39 -129 -66 -208 -66c-143 0 -252 108 -252 241c0 88 48 166 121 208l70 40c37 22 82 35 130 35c49 0 90 -11 129 -30l-48 -128c-45 30 -92 47 -144 47c-17 0 -36 -2 -49 -12c-36 -26 -50 -71 -50 -120c0 -93 75 -170 169 -170c41 0 81 7 123 27z
M169 549l-51 47l146 137h46l144 -138l-52 -48l-115 84z" />
    <glyph glyph-name="cdotaccent" unicode="&#x10b;" horiz-adv-x="491" 
d="M466 127l9 -72c-63 -39 -129 -66 -208 -66c-143 0 -252 108 -252 241c0 88 48 166 121 208l70 40c37 22 82 35 130 35c49 0 90 -11 129 -30l-48 -128c-45 30 -92 47 -144 47c-17 0 -36 -2 -49 -12c-36 -26 -50 -71 -50 -120c0 -93 75 -170 169 -170c41 0 81 7 123 27z
M355 627c0 -38 -31 -68 -69 -68s-69 31 -69 68s32 69 69 69c38 0 69 -31 69 -69z" />
    <glyph glyph-name="dcaron" unicode="&#x10f;" horiz-adv-x="632" 
d="M378 0v37l-26 -16l-13 -7c-28 -17 -61 -25 -97 -25c-119 0 -227 98 -227 241c0 97 49 173 117 212l70 41c32 19 71 30 110 30c22 0 45 -5 63 -15v139l-35 62l189 49v-748h-151zM375 113v241c-29 30 -69 48 -113 48c-13 0 -30 -2 -40 -9c-32 -28 -48 -72 -48 -123
c0 -100 73 -170 158 -170c15 0 31 4 43 13zM617 532l-64 22c19 26 35 53 46 82c-20 12 -32 30 -32 54c0 36 31 58 62 58c40 0 62 -30 62 -67c0 -49 -27 -107 -74 -149z" />
    <glyph glyph-name="dcroat" unicode="&#x111;" horiz-adv-x="581" 
d="M378 0v37l-26 -16l-13 -7c-28 -17 -61 -25 -97 -25c-119 0 -227 98 -227 241c0 97 49 173 117 212l70 41c32 19 71 30 110 30c22 0 45 -5 63 -15v54h-126l13 73h113v21l-35 53l189 49v-123h75l-12 -73h-63v-552h-151zM375 113v241c-29 30 -69 48 -113 48
c-13 0 -30 -2 -40 -9c-32 -28 -48 -72 -48 -123c0 -100 73 -170 158 -170c15 0 31 4 43 13z" />
    <glyph glyph-name="dotlessi" unicode="&#x131;" horiz-adv-x="260" 
d="M53 0v402l-36 61l190 50v-513h-154z" />
    <glyph glyph-name="dotlessj" unicode="&#x237;" horiz-adv-x="267" 
d="M-30 -200l-20 110c30 0 68 1 95 7c11 11 15 28 15 44v441l-35 61l190 50v-516c0 -56 -20 -103 -69 -132c-68 -40 -98 -65 -176 -65z" />
    <glyph glyph-name="eacute" unicode="&#xe9;" horiz-adv-x="548" 
d="M497 153l31 -65c-53 -41 -144 -99 -263 -99c-138 0 -250 98 -250 241c0 96 50 173 116 213l66 40c29 18 72 30 116 30c127 0 210 -103 210 -261v-32h-343c15 -72 84 -122 161 -122c62 0 100 16 156 55zM177 319h211c-18 50 -60 86 -124 86c-13 0 -34 -2 -44 -9
c-23 -17 -37 -45 -43 -77zM272 545l-73 30l112 165l110 -41z" />
    <glyph glyph-name="ebreve" unicode="&#x115;" horiz-adv-x="548" 
d="M497 153l31 -65c-53 -41 -144 -99 -263 -99c-138 0 -250 98 -250 241c0 96 50 173 116 213l66 40c29 18 72 30 116 30c127 0 210 -103 210 -261v-32h-343c15 -72 84 -122 161 -122c62 0 100 16 156 55zM177 319h211c-18 50 -60 86 -124 86c-13 0 -34 -2 -44 -9
c-23 -17 -37 -45 -43 -77zM118 704h62c12 -49 54 -63 100 -63c45 0 88 14 100 63h62c-8 -91 -72 -148 -162 -148c-92 0 -153 56 -162 148z" />
    <glyph glyph-name="ecaron" unicode="&#x11b;" horiz-adv-x="548" 
d="M497 153l31 -65c-53 -41 -144 -99 -263 -99c-138 0 -250 98 -250 241c0 96 50 173 116 213l66 40c29 18 72 30 116 30c127 0 210 -103 210 -261v-32h-343c15 -72 84 -122 161 -122c62 0 100 16 156 55zM177 319h211c-18 50 -60 86 -124 86c-13 0 -34 -2 -44 -9
c-23 -17 -37 -45 -43 -77zM257 547l-145 137l52 48l116 -83l117 83l51 -48l-145 -137h-46z" />
    <glyph glyph-name="ecircumflex" unicode="&#xea;" horiz-adv-x="548" 
d="M497 153l31 -65c-53 -41 -144 -99 -263 -99c-138 0 -250 98 -250 241c0 96 50 173 116 213l66 40c29 18 72 30 116 30c127 0 210 -103 210 -261v-32h-343c15 -72 84 -122 161 -122c62 0 100 16 156 55zM177 319h211c-18 50 -60 86 -124 86c-13 0 -34 -2 -44 -9
c-23 -17 -37 -45 -43 -77zM163 549l-51 47l146 137h46l144 -138l-52 -48l-115 84z" />
    <glyph glyph-name="edieresis" unicode="&#xeb;" horiz-adv-x="548" 
d="M497 153l31 -65c-53 -41 -144 -99 -263 -99c-138 0 -250 98 -250 241c0 96 50 173 116 213l66 40c29 18 72 30 116 30c127 0 210 -103 210 -261v-32h-343c15 -72 84 -122 161 -122c62 0 100 16 156 55zM177 319h211c-18 50 -60 86 -124 86c-13 0 -34 -2 -44 -9
c-23 -17 -37 -45 -43 -77zM452 627c0 -37 -30 -67 -68 -67c-37 0 -67 30 -67 67c0 36 32 68 67 68c37 0 68 -31 68 -68zM243 627c0 -37 -30 -67 -67 -67s-68 30 -68 67c0 36 32 68 68 68s67 -31 67 -68z" />
    <glyph glyph-name="edotaccent" unicode="&#x117;" horiz-adv-x="548" 
d="M497 153l31 -65c-53 -41 -144 -99 -263 -99c-138 0 -250 98 -250 241c0 96 50 173 116 213l66 40c29 18 72 30 116 30c127 0 210 -103 210 -261v-32h-343c15 -72 84 -122 161 -122c62 0 100 16 156 55zM177 319h211c-18 50 -60 86 -124 86c-13 0 -34 -2 -44 -9
c-23 -17 -37 -45 -43 -77zM349 627c0 -38 -31 -68 -69 -68s-69 31 -69 68s32 69 69 69c38 0 69 -31 69 -69z" />
    <glyph glyph-name="egrave" unicode="&#xe8;" horiz-adv-x="548" 
d="M497 153l31 -65c-53 -41 -144 -99 -263 -99c-138 0 -250 98 -250 241c0 96 50 173 116 213l66 40c29 18 72 30 116 30c127 0 210 -103 210 -261v-32h-343c15 -72 84 -122 161 -122c62 0 100 16 156 55zM177 319h211c-18 50 -60 86 -124 86c-13 0 -34 -2 -44 -9
c-23 -17 -37 -45 -43 -77zM288 545l-149 154l110 41l112 -165z" />
    <glyph glyph-name="emacron" unicode="&#x113;" horiz-adv-x="548" 
d="M497 153l31 -65c-53 -41 -144 -99 -263 -99c-138 0 -250 98 -250 241c0 96 50 173 116 213l66 40c29 18 72 30 116 30c127 0 210 -103 210 -261v-32h-343c15 -72 84 -122 161 -122c62 0 100 16 156 55zM177 319h211c-18 50 -60 86 -124 86c-13 0 -34 -2 -44 -9
c-23 -17 -37 -45 -43 -77zM122 574v80h317v-80h-317z" />
    <glyph glyph-name="eogonek" unicode="&#x119;" horiz-adv-x="548" 
d="M438 -124l16 -62c-29 -17 -63 -27 -100 -27c-54 0 -100 35 -100 92c0 54 44 91 87 118c-24 -4 -50 -8 -76 -8c-138 0 -250 98 -250 241c0 96 50 173 116 213l66 40c29 18 72 30 116 30c127 0 210 -103 210 -261v-32h-343c15 -72 84 -122 161 -122c62 0 100 16 156 55
l31 -65c-23 -18 -59 -41 -93 -59c-43 -29 -100 -67 -100 -121c0 -28 17 -46 48 -46c20 0 38 6 55 14zM177 319h211c-18 50 -60 86 -124 86c-13 0 -34 -2 -44 -9c-23 -17 -37 -45 -43 -77z" />
    <glyph glyph-name="eth" unicode="&#xf0;" horiz-adv-x="565" 
d="M437 62l-67 -39c-35 -22 -78 -34 -121 -34c-122 0 -234 94 -234 241c0 85 43 160 108 200l59 35c23 14 55 22 75 22c15 0 31 -4 45 -11c-19 23 -46 48 -70 68l-102 -69l-44 51l92 62c-30 23 -59 45 -91 65l125 79c32 -19 61 -41 90 -63l95 63l44 -51l-86 -57
c99 -88 194 -210 194 -354c0 -95 -47 -169 -112 -208zM348 106c29 31 46 76 46 124c0 97 -59 172 -143 172c-11 0 -26 -2 -35 -9c-29 -30 -44 -74 -44 -123c0 -93 59 -170 142 -170c13 0 24 2 34 6z" />
    <glyph glyph-name="gbreve" unicode="&#x11f;" horiz-adv-x="501" 
d="M414 -131l-49 -28c-45 -25 -90 -45 -165 -45c-131 0 -192 64 -192 130c0 75 39 98 164 153c-5 9 -8 19 -8 30c0 15 10 30 25 45c-2 0 -8 1 -16 1c-79 16 -141 64 -144 148c-1 12 0 23 2 34c8 58 45 91 96 121l48 28c23 13 50 22 78 25c10 1 19 1 29 1c21 -1 41 -4 59 -11
h151v-104h-58c11 -15 19 -31 19 -48c0 -57 -32 -100 -78 -130c-36 -26 -74 -41 -74 -55c0 -48 178 -50 186 -160c1 -10 1 -21 -1 -33c-6 -41 -31 -78 -72 -102zM213 42c-27 -21 -49 -37 -53 -62c0 -6 0 -11 1 -17c5 -32 35 -62 98 -67c8 -1 17 -1 27 -1c32 2 44 13 47 37
c1 9 1 16 0 23c-9 58 -74 65 -120 87zM311 307c0 51 -32 95 -77 107c-13 3 -26 3 -39 1c-11 -5 -18 -32 -20 -53c-1 -8 0 -16 1 -24c4 -43 34 -77 73 -87c13 -4 27 -5 41 -4c9 6 21 38 21 60zM88 704h62c12 -49 54 -63 100 -63c45 0 88 14 100 63h62
c-8 -91 -72 -148 -162 -148c-92 0 -153 56 -162 148z" />
    <glyph glyph-name="gcircumflex" unicode="&#x11d;" horiz-adv-x="501" 
d="M414 -131l-49 -28c-45 -25 -90 -45 -165 -45c-131 0 -192 64 -192 130c0 75 39 98 164 153c-5 9 -8 19 -8 30c0 15 10 30 25 45c-2 0 -8 1 -16 1c-79 16 -141 64 -144 148c-1 12 0 23 2 34c8 58 45 91 96 121l48 28c23 13 50 22 78 25c10 1 19 1 29 1c21 -1 41 -4 59 -11
h151v-104h-58c11 -15 19 -31 19 -48c0 -57 -32 -100 -78 -130c-36 -26 -74 -41 -74 -55c0 -48 178 -50 186 -160c1 -10 1 -21 -1 -33c-6 -41 -31 -78 -72 -102zM213 42c-27 -21 -49 -37 -53 -62c0 -6 0 -11 1 -17c5 -32 35 -62 98 -67c8 -1 17 -1 27 -1c32 2 44 13 47 37
c1 9 1 16 0 23c-9 58 -74 65 -120 87zM311 307c0 51 -32 95 -77 107c-13 3 -26 3 -39 1c-11 -5 -18 -32 -20 -53c-1 -8 0 -16 1 -24c4 -43 34 -77 73 -87c13 -4 27 -5 41 -4c9 6 21 38 21 60zM133 549l-51 47l146 137h46l144 -138l-52 -48l-115 84z" />
    <glyph glyph-name="gcommaaccent" unicode="&#x123;" horiz-adv-x="501" 
d="M414 -131l-49 -28c-45 -25 -90 -45 -165 -45c-131 0 -192 64 -192 130c0 75 39 98 164 153c-5 9 -8 19 -8 30c0 15 10 30 25 45c-2 0 -8 1 -16 1c-79 16 -141 64 -144 148c-1 12 0 23 2 34c8 58 45 91 96 121l48 28c23 13 50 22 78 25c10 1 19 1 29 1c21 -1 41 -4 59 -11
h151v-104h-58c11 -15 19 -31 19 -48c0 -57 -32 -100 -78 -130c-36 -26 -74 -41 -74 -55c0 -48 178 -50 186 -160c1 -10 1 -21 -1 -33c-6 -41 -31 -78 -72 -102zM213 42c-27 -21 -49 -37 -53 -62c0 -6 0 -11 1 -17c5 -32 35 -62 98 -67c8 -1 17 -1 27 -1c32 2 44 13 47 37
c1 9 1 16 0 23c-9 58 -74 65 -120 87zM311 307c0 51 -32 95 -77 107c-13 3 -26 3 -39 1c-11 -5 -18 -32 -20 -53c-1 -8 0 -16 1 -24c4 -43 34 -77 73 -87c13 -4 27 -5 41 -4c9 6 21 38 21 60zM254 763l64 -22c-19 -27 -35 -53 -46 -83c20 -12 32 -30 32 -53
c0 -37 -31 -59 -62 -59c-40 0 -62 30 -62 67c0 49 27 107 74 150z" />
    <glyph glyph-name="gdotaccent" unicode="&#x121;" horiz-adv-x="501" 
d="M414 -131l-49 -28c-45 -25 -90 -45 -165 -45c-131 0 -192 64 -192 130c0 75 39 98 164 153c-5 9 -8 19 -8 30c0 15 10 30 25 45c-2 0 -8 1 -16 1c-79 16 -141 64 -144 148c-1 12 0 23 2 34c8 58 45 91 96 121l48 28c23 13 50 22 78 25c10 1 19 1 29 1c21 -1 41 -4 59 -11
h151v-104h-58c11 -15 19 -31 19 -48c0 -57 -32 -100 -78 -130c-36 -26 -74 -41 -74 -55c0 -48 178 -50 186 -160c1 -10 1 -21 -1 -33c-6 -41 -31 -78 -72 -102zM213 42c-27 -21 -49 -37 -53 -62c0 -6 0 -11 1 -17c5 -32 35 -62 98 -67c8 -1 17 -1 27 -1c32 2 44 13 47 37
c1 9 1 16 0 23c-9 58 -74 65 -120 87zM311 307c0 51 -32 95 -77 107c-13 3 -26 3 -39 1c-11 -5 -18 -32 -20 -53c-1 -8 0 -16 1 -24c4 -43 34 -77 73 -87c13 -4 27 -5 41 -4c9 6 21 38 21 60zM319 627c0 -38 -31 -68 -69 -68s-69 31 -69 68s32 69 69 69c38 0 69 -31 69 -69z
" />
    <glyph glyph-name="germandbls" unicode="&#xdf;" horiz-adv-x="580" 
d="M51 0v390h-78l42 111h36v40c0 76 35 119 98 154l48 28c20 12 42 20 69 23c13 1 28 2 43 0c104 -4 166 -82 166 -150c0 -100 -65 -126 -65 -187c0 -82 151 -77 151 -218c0 -61 -33 -110 -81 -137l-70 -40c-20 -12 -45 -20 -71 -23c-12 -1 -25 -2 -38 -1
c-25 1 -61 11 -83 31l61 111c27 -22 57 -32 88 -32c20 6 36 23 36 49c0 115 -135 105 -135 212c0 79 66 91 66 186c0 47 -50 86 -102 90c-19 0 -29 -52 -29 -84v-553h-152z" />
    <glyph glyph-name="hbar" unicode="&#x127;" horiz-adv-x="566" 
d="M53 0v552h-76l13 73h63v21l-36 53l190 49v-123h125l-12 -73h-113v-100c16 11 33 22 49 31l12 7c30 16 60 23 89 23c84 0 161 -58 161 -158v-355h-155v306c0 62 -44 96 -98 96c-13 0 -26 -3 -38 -8c-7 -4 -13 -10 -20 -17v-377h-154z" />
    <glyph glyph-name="hcircumflex" unicode="&#x125;" horiz-adv-x="566" 
d="M53 0v637l-36 62l190 49v-296c15 11 36 23 49 31l12 7c30 16 60 23 89 23c84 0 161 -58 161 -158v-355h-155v306c0 62 -44 96 -98 96c-13 0 -25 -3 -36 -8c-8 -4 -15 -10 -22 -17v-377h-154zM166 771l-51 47l146 137h46l144 -138l-52 -48l-115 83z" />
    <glyph glyph-name="iacute" unicode="&#xed;" horiz-adv-x="260" 
d="M121 545l-73 30l112 165l110 -41zM53 0v402l-36 61l190 50v-513h-154z" />
    <glyph glyph-name="ibreve" unicode="&#x12d;" horiz-adv-x="260" 
d="M-33 704h62c12 -49 54 -63 100 -63c45 0 88 14 100 63h62c-8 -91 -72 -148 -162 -148c-92 0 -153 56 -162 148zM53 0v402l-36 61l190 50v-513h-154z" />
    <glyph glyph-name="icircumflex" unicode="&#xee;" horiz-adv-x="260" 
d="M12 549l-51 47l146 137h46l144 -138l-52 -48l-115 84zM53 0v402l-36 61l190 50v-513h-154z" />
    <glyph glyph-name="idieresis" unicode="&#xef;" horiz-adv-x="260" 
d="M301 627c0 -37 -30 -67 -68 -67c-37 0 -67 30 -67 67c0 36 32 68 67 68c37 0 68 -31 68 -68zM92 627c0 -37 -30 -67 -67 -67s-68 30 -68 67c0 36 32 68 68 68s67 -31 67 -68zM53 0v402l-36 61l190 50v-513h-154z" />
    <glyph glyph-name="igrave" unicode="&#xec;" horiz-adv-x="260" 
d="M137 545l-149 154l110 41l112 -165zM53 0v402l-36 61l190 50v-513h-154z" />
    <glyph glyph-name="imacron" unicode="&#x12b;" horiz-adv-x="260" 
d="M-29 574v80h317v-80h-317zM53 0v402l-36 61l190 50v-513h-154z" />
    <glyph glyph-name="iogonek" unicode="&#x12f;" horiz-adv-x="260" 
d="M211 -124l16 -62c-30 -17 -63 -27 -100 -27c-54 0 -101 35 -101 92c0 56 47 94 91 121h-64v402l-36 61l190 50v-513h-31c-26 -19 -68 -52 -68 -92c0 -27 17 -46 48 -46c19 0 38 6 55 14zM214 634c0 -53 -60 -80 -106 -80c-43 0 -75 28 -75 72c0 53 59 82 105 82
c44 0 76 -29 76 -74z" />
    <glyph glyph-name="itilde" unicode="&#x129;" horiz-adv-x="260" 
d="M19 560l-63 28c19 50 56 98 114 98c42 0 79 -35 120 -35c25 0 39 22 47 42l65 -25c-17 -50 -53 -103 -112 -103c-43 0 -84 36 -125 36c-25 0 -38 -21 -46 -41zM53 0v402l-36 61l190 50v-513h-154z" />
    <glyph glyph-name="jcircumflex" unicode="&#x135;" horiz-adv-x="267" 
d="M-30 -200l-20 110c30 0 68 1 95 7c11 11 15 28 15 44v441l-35 61l190 50v-516c0 -56 -20 -103 -69 -132c-68 -40 -98 -65 -176 -65zM16 549l-51 47l146 137h46l144 -138l-52 -48l-115 84z" />
    <glyph glyph-name="kcommaaccent" unicode="&#x137;" horiz-adv-x="534" 
d="M53 0v637l-36 62l190 49v-470l28 32l107 132l-25 59h213l-174 -220c77 -85 145 -178 194 -281h-194c-35 70 -78 138 -127 202l-22 -11v-191h-154zM265 -253l-64 22c19 26 35 53 46 83c-20 11 -32 30 -32 53c0 36 31 59 62 59c40 0 62 -31 62 -67c0 -50 -27 -108 -74 -150
z" />
    <glyph glyph-name="kgreenlandic" unicode="&#x138;" horiz-adv-x="534" 
d="M53 0v402l-36 62l190 49v-237l27 32l111 134l-25 59h212l-176 -222c77 -85 145 -177 194 -279h-195c-34 70 -77 138 -126 201l-22 -10v-191h-154z" />
    <glyph glyph-name="lacute" unicode="&#x13a;" horiz-adv-x="260" 
d="M53 0v637l-36 62l190 49v-748h-154zM121 766l-73 31l112 165l110 -41z" />
    <glyph glyph-name="lcaron" unicode="&#x13e;" horiz-adv-x="310" 
d="M53 0v637l-36 62l190 49v-748h-154zM295 532l-64 22c19 26 35 53 46 82c-20 12 -32 30 -32 54c0 36 31 58 62 58c40 0 62 -30 62 -67c0 -49 -27 -107 -74 -149z" />
    <glyph glyph-name="lcommaaccent" unicode="&#x13c;" horiz-adv-x="260" 
d="M53 0v637l-36 62l190 49v-748h-154zM124 -253l-64 22c19 26 35 53 46 83c-20 11 -32 30 -32 53c0 36 31 59 62 59c40 0 62 -31 62 -67c0 -50 -27 -108 -74 -150z" />
    <glyph glyph-name="ldot" unicode="&#x140;" horiz-adv-x="371" 
d="M53 0v637l-36 62l190 49v-748h-154zM384 302c0 -38 -31 -68 -69 -68s-69 31 -69 68s32 69 69 69c38 0 69 -31 69 -69z" />
    <glyph glyph-name="lslash" unicode="&#x142;" horiz-adv-x="279" 
d="M63 0v273l-50 -32l-37 68l87 56v272l-36 62l190 49v-286l52 34l38 -67l-90 -58v-371h-154z" />
    <glyph glyph-name="nacute" unicode="&#x144;" horiz-adv-x="566" 
d="M53 0v402l-36 62l186 49v-63c14 10 32 21 46 28l11 7c32 18 65 28 97 28c84 0 161 -58 161 -158v-355h-155v306c0 62 -44 96 -98 96c-23 0 -40 -9 -58 -25v-377h-154zM275 545l-73 30l112 165l110 -41z" />
    <glyph glyph-name="ncaron" unicode="&#x148;" horiz-adv-x="566" 
d="M53 0v402l-36 62l186 49v-63c14 10 32 21 46 28l11 7c32 18 65 28 97 28c84 0 161 -58 161 -158v-355h-155v306c0 62 -44 96 -98 96c-23 0 -40 -9 -58 -25v-377h-154zM260 547l-145 137l52 48l116 -83l117 83l51 -48l-145 -137h-46z" />
    <glyph glyph-name="ncommaaccent" unicode="&#x146;" horiz-adv-x="566" 
d="M53 0v402l-36 62l186 49v-63c14 10 32 21 46 28l11 7c32 18 65 28 97 28c84 0 161 -58 161 -158v-355h-155v306c0 62 -44 96 -98 96c-23 0 -40 -9 -58 -25v-377h-154zM278 -253l-64 22c19 26 35 53 46 83c-20 11 -32 30 -32 53c0 36 31 59 62 59c40 0 62 -31 62 -67
c0 -50 -27 -108 -74 -150z" />
    <glyph glyph-name="ntilde" unicode="&#xf1;" horiz-adv-x="566" 
d="M53 0v402l-36 62l186 49v-63c14 10 32 21 46 28l11 7c32 18 65 28 97 28c84 0 161 -58 161 -158v-355h-155v306c0 62 -44 96 -98 96c-23 0 -40 -9 -58 -25v-377h-154zM173 560l-63 28c19 50 56 98 114 98c42 0 79 -35 120 -35c25 0 39 22 47 42l65 -25
c-17 -50 -53 -103 -112 -103c-43 0 -84 36 -125 36c-25 0 -38 -21 -46 -41z" />
    <glyph glyph-name="eng" unicode="&#x14b;" horiz-adv-x="566" 
d="M280 -200l-20 109h22c22 1 46 3 67 6c10 10 14 28 14 43v348c0 59 -39 96 -98 96c-22 0 -44 -9 -58 -25v-377h-154v402l-36 62l186 49v-63c34 24 91 63 154 63c92 0 161 -65 161 -158v-358c0 -56 -20 -103 -69 -132c-68 -40 -90 -65 -169 -65z" />
    <glyph glyph-name="oacute" unicode="&#xf3;" horiz-adv-x="589" 
d="M456 62l-69 -39c-38 -22 -82 -34 -127 -34c-128 0 -245 93 -245 241c0 95 49 169 118 209l69 40c38 22 82 34 127 34c128 0 245 -95 245 -243c0 -96 -49 -168 -118 -208zM366 106c30 31 49 76 49 124c0 94 -64 172 -155 172c-14 0 -27 0 -37 -8c-33 -28 -49 -75 -49 -124
c0 -93 63 -170 155 -170c13 0 26 2 37 6zM286 545l-73 30l112 165l110 -41z" />
    <glyph glyph-name="obreve" unicode="&#x14f;" horiz-adv-x="589" 
d="M456 62l-69 -39c-38 -22 -82 -34 -127 -34c-128 0 -245 93 -245 241c0 95 49 169 118 209l69 40c38 22 82 34 127 34c128 0 245 -95 245 -243c0 -96 -49 -168 -118 -208zM366 106c30 31 49 76 49 124c0 94 -64 172 -155 172c-14 0 -27 0 -37 -8c-33 -28 -49 -75 -49 -124
c0 -93 63 -170 155 -170c13 0 26 2 37 6zM132 704h62c12 -49 54 -63 100 -63c45 0 88 14 100 63h62c-8 -91 -72 -148 -162 -148c-92 0 -153 56 -162 148z" />
    <glyph glyph-name="ocircumflex" unicode="&#xf4;" horiz-adv-x="589" 
d="M456 62l-69 -39c-38 -22 -82 -34 -127 -34c-128 0 -245 93 -245 241c0 95 49 169 118 209l69 40c38 22 82 34 127 34c128 0 245 -95 245 -243c0 -96 -49 -168 -118 -208zM366 106c30 31 49 76 49 124c0 94 -64 172 -155 172c-14 0 -27 0 -37 -8c-33 -28 -49 -75 -49 -124
c0 -93 63 -170 155 -170c13 0 26 2 37 6zM177 549l-51 47l146 137h46l144 -138l-52 -48l-115 84z" />
    <glyph glyph-name="odieresis" unicode="&#xf6;" horiz-adv-x="589" 
d="M456 62l-69 -39c-38 -22 -82 -34 -127 -34c-128 0 -245 93 -245 241c0 95 49 169 118 209l69 40c38 22 82 34 127 34c128 0 245 -95 245 -243c0 -96 -49 -168 -118 -208zM366 106c30 31 49 76 49 124c0 94 -64 172 -155 172c-14 0 -27 0 -37 -8c-33 -28 -49 -75 -49 -124
c0 -93 63 -170 155 -170c13 0 26 2 37 6zM466 627c0 -37 -30 -67 -68 -67c-37 0 -67 30 -67 67c0 36 32 68 67 68c37 0 68 -31 68 -68zM257 627c0 -37 -30 -67 -67 -67s-68 30 -68 67c0 36 32 68 68 68s67 -31 67 -68z" />
    <glyph glyph-name="oe" unicode="&#x153;" horiz-adv-x="822" 
d="M771 153l32 -65c-62 -55 -150 -99 -257 -99c-45 0 -101 15 -148 47c-45 -26 -88 -47 -145 -47c-124 0 -238 93 -238 241c0 111 58 178 135 221l47 28c30 18 75 34 124 34c43 0 95 -15 142 -47c5 3 11 7 15 10l9 5c35 21 68 32 111 32c116 0 201 -91 201 -236v-57h-334
l2 -9c18 -66 81 -113 153 -113c60 0 101 19 151 55zM341 113c-21 35 -36 74 -36 116c0 48 11 95 40 139c-21 18 -54 34 -92 34c-59 0 -84 -76 -84 -132c0 -88 56 -170 138 -170c12 0 25 5 34 13zM461 319h205c-17 50 -59 85 -120 85c-57 0 -76 -38 -85 -85z" />
    <glyph glyph-name="ograve" unicode="&#xf2;" horiz-adv-x="589" 
d="M456 62l-69 -39c-38 -22 -82 -34 -127 -34c-128 0 -245 93 -245 241c0 95 49 169 118 209l69 40c38 22 82 34 127 34c128 0 245 -95 245 -243c0 -96 -49 -168 -118 -208zM366 106c30 31 49 76 49 124c0 94 -64 172 -155 172c-14 0 -27 0 -37 -8c-33 -28 -49 -75 -49 -124
c0 -93 63 -170 155 -170c13 0 26 2 37 6zM302 545l-149 154l110 41l112 -165z" />
    <glyph glyph-name="ohungarumlaut" unicode="&#x151;" horiz-adv-x="589" 
d="M456 62l-69 -39c-38 -22 -82 -34 -127 -34c-128 0 -245 93 -245 241c0 95 49 169 118 209l69 40c38 22 82 34 127 34c128 0 245 -95 245 -243c0 -96 -49 -168 -118 -208zM366 106c30 31 49 76 49 124c0 94 -64 172 -155 172c-14 0 -27 0 -37 -8c-33 -28 -49 -75 -49 -124
c0 -93 63 -170 155 -170c13 0 26 2 37 6zM366 545l-73 30l112 165l110 -41zM205 545l-72 30l111 165l111 -41z" />
    <glyph glyph-name="omacron" unicode="&#x14d;" horiz-adv-x="589" 
d="M456 62l-69 -39c-38 -22 -82 -34 -127 -34c-128 0 -245 93 -245 241c0 95 49 169 118 209l69 40c38 22 82 34 127 34c128 0 245 -95 245 -243c0 -96 -49 -168 -118 -208zM366 106c30 31 49 76 49 124c0 94 -64 172 -155 172c-14 0 -27 0 -37 -8c-33 -28 -49 -75 -49 -124
c0 -93 63 -170 155 -170c13 0 26 2 37 6zM136 574v80h317v-80h-317z" />
    <glyph glyph-name="oslash" unicode="&#xf8;" horiz-adv-x="589" 
d="M105 -71l-63 43l56 76c-49 42 -83 107 -83 182c0 95 49 169 118 209l69 40c38 22 82 34 127 34c34 0 67 -8 95 -21l62 82l63 -43l-58 -77c49 -43 83 -108 83 -184c0 -96 -49 -168 -118 -208l-69 -39c-38 -22 -82 -34 -127 -34c-33 0 -66 9 -95 22zM197 187l146 190
c-24 16 -52 25 -83 25c-17 0 -30 -3 -39 -10c-31 -29 -47 -73 -47 -122c0 -30 8 -60 23 -83zM392 315l-145 -190c23 -16 50 -25 82 -25c13 0 26 3 37 7c31 31 49 75 49 123c0 31 -8 61 -23 85z" />
    <glyph glyph-name="otilde" unicode="&#xf5;" horiz-adv-x="589" 
d="M456 62l-69 -39c-38 -22 -82 -34 -127 -34c-128 0 -245 93 -245 241c0 95 49 169 118 209l69 40c38 22 82 34 127 34c128 0 245 -95 245 -243c0 -96 -49 -168 -118 -208zM366 106c30 31 49 76 49 124c0 94 -64 172 -155 172c-14 0 -27 0 -37 -8c-33 -28 -49 -75 -49 -124
c0 -93 63 -170 155 -170c13 0 26 2 37 6zM184 560l-63 28c19 50 56 98 114 98c42 0 79 -35 120 -35c25 0 39 22 47 42l65 -25c-17 -50 -53 -103 -112 -103c-43 0 -84 36 -125 36c-25 0 -38 -21 -46 -41z" />
    <glyph glyph-name="racute" unicode="&#x155;" horiz-adv-x="386" 
d="M53 0v402l-36 61l186 50v-57c15 11 37 25 53 34l12 7c21 12 45 16 71 16c19 0 36 -4 50 -13l-35 -129l-48 15c-19 6 -41 9 -60 9c-8 0 -15 -1 -22 -5c-6 -5 -13 -11 -17 -19v-371h-154zM185 545l-73 30l112 165l110 -41z" />
    <glyph glyph-name="rcaron" unicode="&#x159;" horiz-adv-x="386" 
d="M53 0v402l-36 61l186 50v-57c15 11 37 25 53 34l12 7c21 12 45 16 71 16c19 0 36 -4 50 -13l-35 -129l-48 15c-19 6 -41 9 -60 9c-8 0 -15 -1 -22 -5c-6 -5 -13 -11 -17 -19v-371h-154zM170 547l-145 137l52 48l116 -83l117 83l51 -48l-145 -137h-46z" />
    <glyph glyph-name="rcommaaccent" unicode="&#x157;" horiz-adv-x="386" 
d="M53 0v402l-36 61l186 50v-57c15 11 37 25 53 34l12 7c21 12 45 16 71 16c19 0 36 -4 50 -13l-35 -129l-48 15c-19 6 -41 9 -60 9c-8 0 -15 -1 -22 -5c-6 -5 -13 -11 -17 -19v-371h-154zM134 -253l-64 22c19 26 35 53 46 83c-20 11 -32 30 -32 53c0 36 31 59 62 59
c40 0 62 -31 62 -67c0 -50 -27 -108 -74 -150z" />
    <glyph glyph-name="sacute" unicode="&#x15b;" horiz-adv-x="420" 
d="M309 38l-49 -27c-27 -15 -57 -22 -87 -22c-54 0 -107 16 -151 46l48 125c41 -28 102 -63 153 -63c14 0 23 12 23 27c0 57 -53 65 -108 84c-55 18 -110 46 -110 130c0 47 25 90 67 113l48 28c32 17 64 34 103 34c51 0 100 -17 141 -44l-45 -118c-33 23 -89 53 -133 53
c-5 0 -11 -1 -15 -3c-8 -4 -12 -14 -12 -23c3 -49 52 -59 102 -75c60 -18 117 -48 117 -132c0 -69 -45 -106 -92 -133zM202 545l-73 30l112 165l110 -41z" />
    <glyph glyph-name="scaron" unicode="&#x161;" horiz-adv-x="420" 
d="M309 38l-49 -27c-27 -15 -57 -22 -87 -22c-54 0 -107 16 -151 46l48 125c41 -28 102 -63 153 -63c14 0 23 12 23 27c0 57 -53 65 -108 84c-55 18 -110 46 -110 130c0 47 25 90 67 113l48 28c32 17 64 34 103 34c51 0 100 -17 141 -44l-45 -118c-33 23 -89 53 -133 53
c-5 0 -11 -1 -15 -3c-8 -4 -12 -14 -12 -23c3 -49 52 -59 102 -75c60 -18 117 -48 117 -132c0 -69 -45 -106 -92 -133zM187 547l-145 137l52 48l116 -83l117 83l51 -48l-145 -137h-46z" />
    <glyph glyph-name="scedilla" unicode="&#x15f;" horiz-adv-x="420" 
d="M93 -185l3 48c27 -7 56 -13 84 -14c26 0 57 4 57 38c0 30 -40 31 -64 32l6 70c-64 1 -115 17 -157 46l48 125c41 -28 102 -63 153 -63c14 0 23 12 23 27c0 57 -53 65 -108 84c-55 18 -110 46 -110 130c0 47 25 90 67 113l48 28c32 17 64 34 103 34c51 0 100 -17 141 -44
l-45 -118c-33 23 -89 53 -133 53c-5 0 -11 -1 -15 -3c-8 -4 -12 -14 -12 -23c3 -49 52 -59 102 -75c60 -18 117 -48 117 -132c0 -69 -45 -106 -92 -133l-49 -27c-10 -6 -22 -10 -32 -13l-4 -32c57 -5 104 -31 104 -85c0 -69 -56 -94 -118 -94c-41 0 -80 12 -117 28z" />
    <glyph glyph-name="scircumflex" unicode="&#x15d;" horiz-adv-x="420" 
d="M309 38l-49 -27c-27 -15 -57 -22 -87 -22c-54 0 -107 16 -151 46l48 125c41 -28 102 -63 153 -63c14 0 23 12 23 27c0 57 -53 65 -108 84c-55 18 -110 46 -110 130c0 47 25 90 67 113l48 28c32 17 64 34 103 34c51 0 100 -17 141 -44l-45 -118c-33 23 -89 53 -133 53
c-5 0 -11 -1 -15 -3c-8 -4 -12 -14 -12 -23c3 -49 52 -59 102 -75c60 -18 117 -48 117 -132c0 -69 -45 -106 -92 -133zM93 549l-51 47l146 137h46l144 -138l-52 -48l-115 84z" />
    <glyph glyph-name="scommaaccent" unicode="&#x219;" horiz-adv-x="420" 
d="M309 38l-49 -27c-27 -15 -57 -22 -87 -22c-54 0 -107 16 -151 46l48 125c41 -28 102 -63 153 -63c14 0 23 12 23 27c0 57 -53 65 -108 84c-55 18 -110 46 -110 130c0 47 25 90 67 113l48 28c32 17 64 34 103 34c51 0 100 -17 141 -44l-45 -118c-33 23 -89 53 -133 53
c-5 0 -11 -1 -15 -3c-8 -4 -12 -14 -12 -23c3 -49 52 -59 102 -75c60 -18 117 -48 117 -132c0 -69 -45 -106 -92 -133zM205 -253l-64 22c19 26 35 53 46 83c-20 11 -32 30 -32 53c0 36 31 59 62 59c40 0 62 -31 62 -67c0 -50 -27 -108 -74 -150z" />
    <glyph glyph-name="tbar" unicode="&#x167;" horiz-adv-x="365" 
d="M311 -4h-63c-116 0 -174 54 -174 146v104h-95l12 73h83v71h-106l42 111h64v111l154 63v-174h122v-111h-122v-71h105l-12 -73h-93v-55c0 -49 32 -85 109 -85h16z" />
    <glyph glyph-name="tcaron" unicode="&#x165;" horiz-adv-x="365" 
d="M311 -4h-36c-144 0 -201 48 -201 156v238h-106l42 111h64v111l154 63v-174h122v-111h-122v-199c0 -49 32 -85 109 -85h16zM315 532l-64 22c19 26 35 53 46 82c-20 12 -32 30 -32 54c0 36 31 58 62 58c40 0 62 -30 62 -67c0 -49 -27 -107 -74 -149z" />
    <glyph glyph-name="thorn" unicode="&#xfe;" horiz-adv-x="581" 
d="M53 -194v825l-36 60l190 51v-276c18 14 41 24 63 28c25 11 51 19 82 18c113 -6 214 -102 214 -242c0 -97 -48 -173 -117 -212l-69 -40c-34 -19 -72 -29 -111 -29c-22 0 -44 6 -62 16v-199h-154zM207 387v-241c29 -29 69 -46 112 -46c13 0 28 -1 39 6c33 27 51 73 51 124
c0 101 -73 172 -160 172c-17 0 -29 -5 -42 -15z" />
    <glyph glyph-name="uacute" unicode="&#xfa;" horiz-adv-x="566" 
d="M363 0v51c-14 -10 -33 -21 -45 -29l-11 -6c-32 -18 -66 -27 -97 -27c-84 0 -161 56 -161 157v256l-35 61l189 50v-318c0 -61 44 -95 99 -95c11 0 25 1 38 7c6 4 12 9 19 16v279l-35 61l189 50v-513h-150zM275 545l-73 30l112 165l110 -41z" />
    <glyph glyph-name="ubreve" unicode="&#x16d;" horiz-adv-x="566" 
d="M363 0v51c-14 -10 -33 -21 -45 -29l-11 -6c-32 -18 -66 -27 -97 -27c-84 0 -161 56 -161 157v256l-35 61l189 50v-318c0 -61 44 -95 99 -95c11 0 25 1 38 7c6 4 12 9 19 16v279l-35 61l189 50v-513h-150zM121 704h62c12 -49 54 -63 100 -63c45 0 88 14 100 63h62
c-8 -91 -72 -148 -162 -148c-92 0 -153 56 -162 148z" />
    <glyph glyph-name="ucircumflex" unicode="&#xfb;" horiz-adv-x="566" 
d="M363 0v51c-14 -10 -33 -21 -45 -29l-11 -6c-32 -18 -66 -27 -97 -27c-84 0 -161 56 -161 157v256l-35 61l189 50v-318c0 -61 44 -95 99 -95c11 0 25 1 38 7c6 4 12 9 19 16v279l-35 61l189 50v-513h-150zM166 549l-51 47l146 137h46l144 -138l-52 -48l-115 84z" />
    <glyph glyph-name="udieresis" unicode="&#xfc;" horiz-adv-x="566" 
d="M363 0v51c-14 -10 -33 -21 -45 -29l-11 -6c-32 -18 -66 -27 -97 -27c-84 0 -161 56 -161 157v256l-35 61l189 50v-318c0 -61 44 -95 99 -95c11 0 25 1 38 7c6 4 12 9 19 16v279l-35 61l189 50v-513h-150zM455 627c0 -37 -30 -67 -68 -67c-37 0 -67 30 -67 67
c0 36 32 68 67 68c37 0 68 -31 68 -68zM246 627c0 -37 -30 -67 -67 -67s-68 30 -68 67c0 36 32 68 68 68s67 -31 67 -68z" />
    <glyph glyph-name="ugrave" unicode="&#xf9;" horiz-adv-x="566" 
d="M363 0v51c-14 -10 -33 -21 -45 -29l-11 -6c-32 -18 -66 -27 -97 -27c-84 0 -161 56 -161 157v256l-35 61l189 50v-318c0 -61 44 -95 99 -95c11 0 25 1 38 7c6 4 12 9 19 16v279l-35 61l189 50v-513h-150zM291 545l-149 154l110 41l112 -165z" />
    <glyph glyph-name="uhungarumlaut" unicode="&#x171;" horiz-adv-x="566" 
d="M363 0v51c-14 -10 -33 -21 -45 -29l-11 -6c-32 -18 -66 -27 -97 -27c-84 0 -161 56 -161 157v256l-35 61l189 50v-318c0 -61 44 -95 99 -95c11 0 25 1 38 7c6 4 12 9 19 16v279l-35 61l189 50v-513h-150zM355 545l-73 30l112 165l110 -41zM194 545l-72 30l111 165
l111 -41z" />
    <glyph glyph-name="umacron" unicode="&#x16b;" horiz-adv-x="566" 
d="M363 0v51c-14 -10 -33 -21 -45 -29l-11 -6c-32 -18 -66 -27 -97 -27c-84 0 -161 56 -161 157v256l-35 61l189 50v-318c0 -61 44 -95 99 -95c11 0 25 1 38 7c6 4 12 9 19 16v279l-35 61l189 50v-513h-150zM125 574v80h317v-80h-317z" />
    <glyph glyph-name="uni021B" unicode="&#x21b;" horiz-adv-x="365" 
d="M311 -4h-36c-144 0 -201 48 -201 156v238h-106l42 111h64v111l154 63v-174h122v-111h-122v-199c0 -49 32 -85 109 -85h16zM178 -253l-64 22c19 26 35 53 46 83c-20 11 -32 30 -32 53c0 36 31 59 62 59c40 0 62 -31 62 -67c0 -50 -27 -108 -74 -150z" />
    <glyph glyph-name="uogonek" unicode="&#x173;" horiz-adv-x="566" 
d="M506 -124l16 -62c-29 -16 -64 -27 -100 -27c-43 0 -101 29 -101 92c0 56 47 94 91 121h-49v51c-15 -10 -30 -20 -45 -29l-11 -6c-32 -18 -65 -27 -97 -27c-84 0 -161 56 -161 157v256l-35 61l189 50v-318c0 -61 44 -95 99 -95c18 0 40 5 57 23v279l-35 61l189 50v-513
h-42c-26 -19 -68 -52 -68 -92c0 -28 17 -46 48 -46c19 0 38 6 55 14z" />
    <glyph glyph-name="uring" unicode="&#x16f;" horiz-adv-x="566" 
d="M363 0v51c-14 -10 -33 -21 -45 -29l-11 -6c-32 -18 -66 -27 -97 -27c-84 0 -161 56 -161 157v256l-35 61l189 50v-318c0 -61 44 -95 99 -95c11 0 25 1 38 7c6 4 12 9 19 16v279l-35 61l189 50v-513h-150zM416 650c0 -75 -66 -114 -133 -114c-68 0 -133 39 -133 114
c0 73 65 114 133 114s133 -41 133 -114zM342 650c0 33 -29 51 -59 51s-59 -18 -59 -51c0 -32 29 -51 59 -51s59 19 59 51z" />
    <glyph glyph-name="utilde" unicode="&#x169;" horiz-adv-x="566" 
d="M363 0v51c-14 -10 -33 -21 -45 -29l-11 -6c-32 -18 -66 -27 -97 -27c-84 0 -161 56 -161 157v256l-35 61l189 50v-318c0 -61 44 -95 99 -95c11 0 25 1 38 7c6 4 12 9 19 16v279l-35 61l189 50v-513h-150zM173 560l-63 28c19 50 56 98 114 98c42 0 79 -35 120 -35
c25 0 39 22 47 42l65 -25c-17 -50 -53 -103 -112 -103c-43 0 -84 36 -125 36c-25 0 -38 -21 -46 -41z" />
    <glyph glyph-name="wacute" unicode="&#x1e83;" horiz-adv-x="774" 
d="M199 0l-210 501h166l120 -287l48 116l-71 171h165l121 -287l95 230l-23 57h175l-211 -501h-112l-75 178l-75 -178h-113zM379 545l-73 30l112 165l110 -41z" />
    <glyph glyph-name="wcircumflex" unicode="&#x175;" horiz-adv-x="774" 
d="M199 0l-210 501h166l120 -287l48 116l-71 171h165l121 -287l95 230l-23 57h175l-211 -501h-112l-75 178l-75 -178h-113zM270 549l-51 47l146 137h46l144 -138l-52 -48l-115 84z" />
    <glyph glyph-name="wdieresis" unicode="&#x1e85;" horiz-adv-x="774" 
d="M199 0l-210 501h166l120 -287l48 116l-71 171h165l121 -287l95 230l-23 57h175l-211 -501h-112l-75 178l-75 -178h-113zM559 627c0 -37 -30 -67 -68 -67c-37 0 -67 30 -67 67c0 36 32 68 67 68c37 0 68 -31 68 -68zM350 627c0 -37 -30 -67 -67 -67s-68 30 -68 67
c0 36 32 68 68 68s67 -31 67 -68z" />
    <glyph glyph-name="wgrave" unicode="&#x1e81;" horiz-adv-x="774" 
d="M199 0l-210 501h166l120 -287l48 116l-71 171h165l121 -287l95 230l-23 57h175l-211 -501h-112l-75 178l-75 -178h-113zM395 545l-149 154l110 41l112 -165z" />
    <glyph glyph-name="yacute" unicode="&#xfd;" horiz-adv-x="516" 
d="M98 -194l97 211l-206 484h167l122 -287l98 230l-23 57h175l-295 -695h-135zM250 545l-73 30l112 165l110 -41z" />
    <glyph glyph-name="ycircumflex" unicode="&#x177;" horiz-adv-x="516" 
d="M98 -194l97 211l-206 484h167l122 -287l98 230l-23 57h175l-295 -695h-135zM141 549l-51 47l146 137h46l144 -138l-52 -48l-115 84z" />
    <glyph glyph-name="ydieresis" unicode="&#xff;" horiz-adv-x="516" 
d="M98 -194l97 211l-206 484h167l122 -287l98 230l-23 57h175l-295 -695h-135zM430 627c0 -37 -30 -67 -68 -67c-37 0 -67 30 -67 67c0 36 32 68 67 68c37 0 68 -31 68 -68zM221 627c0 -37 -30 -67 -67 -67s-68 30 -68 67c0 36 32 68 68 68s67 -31 67 -68z" />
    <glyph glyph-name="ygrave" unicode="&#x1ef3;" horiz-adv-x="516" 
d="M98 -194l97 211l-206 484h167l122 -287l98 230l-23 57h175l-295 -695h-135zM266 545l-149 154l110 41l112 -165z" />
    <glyph glyph-name="zacute" unicode="&#x17a;" horiz-adv-x="472" 
d="M16 0v56l225 334h-222l43 111h383v-56l-225 -333h246l-43 -112h-407zM228 545l-73 30l112 165l110 -41z" />
    <glyph glyph-name="zcaron" unicode="&#x17e;" horiz-adv-x="472" 
d="M16 0v56l225 334h-222l43 111h383v-56l-225 -333h246l-43 -112h-407zM213 547l-145 137l52 48l116 -83l117 83l51 -48l-145 -137h-46z" />
    <glyph glyph-name="zdotaccent" unicode="&#x17c;" horiz-adv-x="472" 
d="M16 0v56l225 334h-222l43 111h383v-56l-225 -333h246l-43 -112h-407zM305 627c0 -38 -31 -68 -69 -68s-69 31 -69 68s32 69 69 69c38 0 69 -31 69 -69z" />
    <glyph glyph-name="s_t" unicode="&#xfb06;" horiz-adv-x="750" 
d="M696 -4h-36c-144 0 -201 48 -201 156v238h-250c-5 0 -11 -1 -15 -3c-8 -4 -12 -14 -12 -23c0 -39 52 -47 102 -63c60 -18 117 -49 117 -132c0 -68 -45 -107 -92 -132l-49 -26c-27 -15 -57 -23 -87 -23c-54 0 -107 17 -151 45l48 123c41 -27 102 -62 153 -62
c14 0 23 14 23 29c0 56 -53 64 -108 82s-110 45 -110 127c0 46 25 86 67 109l48 27c32 17 74 33 123 33h193v111l154 63v-174h122v-111h-122v-199c0 -49 32 -85 109 -85h16z" />
    <glyph glyph-name="ampersand.sc" unicode="&#xe003;" horiz-adv-x="586" 
d="M516 271l64 -62c-16 -16 -32 -34 -48 -51c21 -32 37 -65 54 -109l-151 -57c-7 21 -17 44 -28 68c-56 -41 -127 -72 -208 -72c-106 0 -181 63 -181 144c0 83 56 127 129 170c-44 35 -77 76 -77 128c0 89 125 166 214 166c79 0 141 -50 141 -126c0 -57 -46 -96 -91 -130
c48 -31 103 -70 143 -111c13 12 29 30 39 42zM275 380c13 14 25 31 25 49c0 43 -23 75 -61 75c-23 0 -35 -15 -35 -37c0 -28 32 -61 71 -87zM363 126c-38 46 -89 84 -152 126c-23 -20 -41 -45 -41 -79c0 -46 49 -80 98 -80c36 0 67 13 95 33z" />
    <glyph glyph-name="a.sc" unicode="&#xe005;" horiz-adv-x="609" 
d="M-20 0l241 524l-28 60h169l267 -584h-170l-57 122h-234l-31 -61l25 -61h-182zM216 231h138l-69 151z" />
    <glyph glyph-name="b.sc" unicode="&#xe006;" horiz-adv-x="523" 
d="M56 0v524l-37 60h291c95 0 163 -61 163 -145c0 -50 -28 -94 -77 -116c53 -20 101 -63 102 -129c0 -55 -33 -104 -80 -132l-69 -39c-27 -15 -60 -23 -96 -23h-197zM208 355h90c6 0 11 0 16 5c8 8 13 21 14 35c0 46 -36 79 -82 79h-38v-119zM208 111h102c7 0 14 1 18 6
c9 12 15 25 15 43c0 51 -41 90 -94 90h-41v-139z" />
    <glyph glyph-name="c.sc" unicode="&#xe007;" horiz-adv-x="569" 
d="M538 145l17 -77c-29 -19 -54 -35 -85 -49c-46 -22 -99 -31 -156 -31c-167 0 -297 127 -297 285c0 103 57 194 144 243l69 40c43 25 96 40 153 40c58 0 108 -12 155 -31l-52 -138c-46 32 -105 58 -172 58c-20 0 -45 0 -64 -13c-49 -34 -74 -97 -74 -160
c0 -117 94 -212 213 -212c60 0 98 15 149 45z" />
    <glyph glyph-name="d.sc" unicode="&#xe008;" horiz-adv-x="606" 
d="M55 0v524l-36 60h290c157 0 280 -121 280 -272c0 -100 -54 -187 -137 -235l-68 -39c-41 -23 -90 -38 -144 -38h-185zM210 113h90c24 0 51 2 65 11c45 33 67 89 67 149c0 109 -87 199 -192 199h-30v-359z" />
    <glyph glyph-name="e.sc" unicode="&#xe009;" horiz-adv-x="484" 
d="M56 0v524l-37 60h441l-42 -112h-207v-113h241l-43 -114h-198v-132h258l-43 -113h-370z" />
    <glyph glyph-name="f.sc" unicode="&#xe00a;" horiz-adv-x="475" 
d="M56 0v524l-37 60h437l-44 -112h-201v-133h228l-43 -113h-185v-226h-155z" />
    <glyph glyph-name="g.sc" unicode="&#xe00b;" horiz-adv-x="654" 
d="M464 118v91h-174l43 113h286v-220c-87 -62 -191 -114 -305 -114c-167 0 -297 127 -297 285c0 103 57 194 144 243l69 40c43 25 96 40 153 40c78 0 143 -19 200 -54l-53 -137c-51 42 -122 80 -210 80c-26 0 -51 0 -70 -13c-49 -34 -74 -97 -74 -160
c0 -118 92 -212 213 -212c26 0 51 4 75 18z" />
    <glyph glyph-name="h.sc" unicode="&#xe00c;" horiz-adv-x="610" 
d="M56 0v524l-37 60h192v-223h188v163l-36 60h192v-584h-156v245h-188v-245h-155z" />
    <glyph glyph-name="i.sc" unicode="&#xe00d;" horiz-adv-x="275" 
d="M60 0v524l-37 60h192v-584h-155z" />
    <glyph glyph-name="j.sc" unicode="&#xe00e;" horiz-adv-x="283" 
d="M-27 -128l-16 74l-7 39h88c6 0 10 1 14 1c17 19 20 41 20 71v467l-36 60h191v-491c0 -71 -26 -125 -82 -157l-70 -39c-29 -17 -62 -25 -102 -25z" />
    <glyph glyph-name="k.sc" unicode="&#xe00f;" horiz-adv-x="570" 
d="M56 0v524l-37 60h192v-259l18 22l138 177l-24 60h227l-204 -259c88 -98 170 -206 225 -325h-195c-42 86 -102 169 -162 245l-23 -12v-233h-155z" />
    <glyph glyph-name="l.sc" unicode="&#xe010;" horiz-adv-x="437" 
d="M56 0v524l-37 60h192v-470h227l-44 -114h-338z" />
    <glyph glyph-name="m.sc" unicode="&#xe011;" horiz-adv-x="744" 
d="M56 0v514l-50 70h190l180 -242l178 242h134v-584h-154v349l-144 -196h-70l-144 196v-349h-120z" />
    <glyph glyph-name="n.sc" unicode="&#xe012;" horiz-adv-x="626" 
d="M56 0v514l-50 70h190l253 -343v283l-37 60h159v-584h-140l-253 344v-344h-122z" />
    <glyph glyph-name="o.sc" unicode="&#xe013;" horiz-adv-x="687" 
d="M529 65l-70 -39c-42 -26 -94 -38 -149 -38c-167 0 -293 126 -293 285c0 104 55 195 142 245l68 40c42 25 94 38 151 38c169 0 292 -126 292 -284c0 -105 -54 -198 -141 -247zM447 114c40 30 64 93 64 159c0 116 -83 212 -201 212c-26 0 -51 -3 -66 -14
c-43 -33 -68 -94 -68 -159c0 -117 84 -212 202 -212c23 0 54 2 69 14z" />
    <glyph glyph-name="p.sc" unicode="&#xe014;" horiz-adv-x="519" 
d="M56 0v524l-37 60h250c17 0 35 0 52 -1c103 -5 181 -80 181 -175c0 -64 -35 -117 -90 -148l-69 -39c-32 -18 -68 -27 -111 -26h-21v-195h-155zM211 306h92c26 0 41 38 41 63c0 71 -65 102 -133 105v-168z" />
    <glyph glyph-name="q.sc" unicode="&#xe015;" horiz-adv-x="700" 
d="M683 96l-39 -108c-65 0 -114 24 -154 55l-19 -10l-12 -6c-43 -26 -94 -39 -149 -39c-167 0 -293 126 -293 285c0 104 55 195 142 245l68 40c42 25 94 38 151 38c169 0 292 -126 292 -284c0 -72 -25 -137 -68 -186c23 -16 50 -27 81 -30zM235 183l32 92c22 6 46 9 67 9
c58 0 108 -26 158 -65c12 16 19 35 19 54c0 116 -83 212 -201 212c-23 0 -52 -3 -66 -13c-44 -35 -68 -95 -68 -160c0 -117 84 -212 202 -212c15 0 28 4 41 11c-40 38 -89 77 -142 77c-14 0 -28 -2 -42 -5z" />
    <glyph glyph-name="r.sc" horiz-adv-x="540" 
d="M564 0h-193l-138 221h-22v-221h-155v524l-37 60h294c104 0 183 -74 183 -167c0 -61 -32 -112 -73 -139l-16 -11c-8 -5 -18 -9 -27 -10zM211 322h90c7 0 14 2 19 7c12 12 18 29 19 49c0 54 -50 96 -100 96h-28v-152z" />
    <glyph glyph-name="s.sc" unicode="&#xe017;" horiz-adv-x="474" 
d="M369 52l-70 -38c-29 -16 -63 -26 -99 -26c-72 0 -132 18 -180 49l50 131c69 -44 121 -68 190 -68c7 0 13 2 18 5c12 11 18 26 18 43c0 61 -57 75 -114 93c-74 22 -153 52 -153 154c0 60 33 111 83 139l70 39c27 15 57 23 92 23c61 0 119 -17 167 -46l-50 -128
c-44 28 -107 63 -172 63c-7 0 -12 -3 -17 -9c-9 -9 -13 -20 -13 -32c0 -57 52 -71 105 -87c78 -22 161 -53 161 -161c0 -63 -34 -115 -86 -144z" />
    <glyph glyph-name="t.sc" unicode="&#xe018;" horiz-adv-x="510" 
d="M176 0v471h-175l43 113h465l-43 -113h-134v-471h-156z" />
    <glyph glyph-name="u.sc" unicode="&#xe019;" horiz-adv-x="598" 
d="M490 69l-69 -38c-49 -28 -106 -43 -163 -43c-118 0 -206 83 -206 190v346l-37 60h193v-363c0 -64 53 -117 120 -117c21 0 41 4 59 15v405l-36 60h192v-482c-11 -8 -43 -26 -53 -33z" />
    <glyph glyph-name="v.sc" unicode="&#xe01a;" horiz-adv-x="571" 
d="M230 0l-255 584h170l160 -364l136 304l-25 60h181l-254 -584h-113z" />
    <glyph glyph-name="w.sc" unicode="&#xe01b;" horiz-adv-x="846" 
d="M230 0l-255 584h170l160 -364l52 115l-110 249h171l160 -364l136 304l-24 60h182l-255 -584h-114l-80 180l-80 -180h-113z" />
    <glyph glyph-name="x.sc" unicode="&#xe01c;" horiz-adv-x="569" 
d="M-20 0l212 302l-198 282h188l122 -176l83 116l-25 60h214l-197 -281l211 -303h-187l-137 197l-139 -197h-147z" />
    <glyph glyph-name="y.sc" unicode="&#xe01d;" horiz-adv-x="555" 
d="M201 0v232l-220 352h184l132 -217l99 157l-26 60h205l-218 -351v-233h-156z" />
    <glyph glyph-name="z.sc" unicode="&#xe01e;" horiz-adv-x="515" 
d="M17 0v57l262 414h-262l45 113h427v-56l-261 -414h283l-44 -114h-450z" />
    <glyph glyph-name="agrave.sc" unicode="&#xe01f;" horiz-adv-x="609" 
d="M-20 0l241 524l-28 60h169l267 -584h-170l-57 122h-234l-31 -61l25 -61h-182zM216 231h138l-69 151zM312 628l-149 154l110 41l112 -165z" />
    <glyph glyph-name="aacute.sc" unicode="&#xe020;" horiz-adv-x="609" 
d="M-20 0l241 524l-28 60h169l267 -584h-170l-57 122h-234l-31 -61l25 -61h-182zM216 231h138l-69 151zM296 628l-73 30l112 165l110 -41z" />
    <glyph glyph-name="acircumflex.sc" unicode="&#xe021;" horiz-adv-x="609" 
d="M-20 0l241 524l-28 60h169l267 -584h-170l-57 122h-234l-31 -61l25 -61h-182zM216 231h138l-69 151zM187 632l-51 47l146 137h46l144 -138l-52 -48l-115 84z" />
    <glyph glyph-name="atilde.sc" unicode="&#xe022;" horiz-adv-x="609" 
d="M-20 0l241 524l-28 60h169l267 -584h-170l-57 122h-234l-31 -61l25 -61h-182zM216 231h138l-69 151zM194 643l-63 28c19 50 56 98 114 98c42 0 79 -35 120 -35c25 0 39 22 47 42l65 -25c-17 -50 -53 -103 -112 -103c-43 0 -84 36 -125 36c-25 0 -38 -21 -46 -41z" />
    <glyph glyph-name="adieresis.sc" unicode="&#xe023;" horiz-adv-x="609" 
d="M-20 0l241 524l-28 60h169l267 -584h-170l-57 122h-234l-31 -61l25 -61h-182zM216 231h138l-69 151zM476 710c0 -37 -30 -67 -68 -67c-37 0 -67 30 -67 67c0 36 32 68 67 68c37 0 68 -31 68 -68zM267 710c0 -37 -30 -67 -67 -67s-68 30 -68 67c0 36 32 68 68 68
s67 -31 67 -68z" />
    <glyph glyph-name="aring.sc" unicode="&#xe024;" horiz-adv-x="609" 
d="M-20 0l241 524l-28 60h169l267 -584h-170l-57 122h-234l-31 -61l25 -61h-182zM216 231h138l-69 151zM437 732c0 -74 -66 -113 -133 -113c-68 0 -133 39 -133 113s65 115 133 115s133 -41 133 -115zM363 733c0 33 -29 51 -59 51s-59 -18 -59 -51c0 -32 29 -51 59 -51
s59 19 59 51z" />
    <glyph glyph-name="amacron.sc" unicode="&#xe025;" horiz-adv-x="609" 
d="M-20 0l241 524l-28 60h169l267 -584h-170l-57 122h-234l-31 -61l25 -61h-182zM216 231h138l-69 151zM146 657v80h317v-80h-317z" />
    <glyph glyph-name="abreve.sc" unicode="&#xe026;" horiz-adv-x="609" 
d="M-20 0l241 524l-28 60h169l267 -584h-170l-57 122h-234l-31 -61l25 -61h-182zM216 231h138l-69 151zM142 787h62c12 -49 54 -63 100 -63c45 0 88 14 100 63h62c-8 -91 -72 -148 -162 -148c-92 0 -153 56 -162 148z" />
    <glyph glyph-name="aogonek.sc" unicode="&#xe027;" horiz-adv-x="609" 
d="M617 -124l16 -62c-30 -17 -63 -27 -100 -27c-54 0 -101 35 -101 92c0 56 47 94 91 121h-64l-57 122h-234l-31 -61l25 -61h-182l241 524l-28 60h169l267 -584h-47c-26 -19 -68 -52 -68 -92c0 -28 17 -46 48 -46c19 0 38 6 55 14zM216 231h138l-69 151z" />
    <glyph glyph-name="ae.sc" unicode="&#xe028;" horiz-adv-x="850" 
d="M-31 0l419 584h439l-43 -112h-206v-113h242l-43 -114h-199v-132h257l-42 -113h-371v122h-221l-42 -58v-64h-190zM278 231h144v199z" />
    <glyph glyph-name="cacute.sc" unicode="&#xe029;" horiz-adv-x="569" 
d="M538 145l17 -77c-29 -19 -54 -35 -85 -49c-46 -22 -99 -31 -156 -31c-167 0 -297 127 -297 285c0 103 57 194 144 243l69 40c43 25 96 40 153 40c58 0 108 -12 155 -31l-52 -138c-46 32 -105 58 -172 58c-20 0 -45 0 -64 -13c-49 -34 -74 -97 -74 -160
c0 -117 94 -212 213 -212c60 0 98 15 149 45zM326 628l-73 30l112 165l110 -41z" />
    <glyph glyph-name="ccircumflex.sc" unicode="&#xe02a;" horiz-adv-x="569" 
d="M538 145l17 -77c-29 -19 -54 -35 -85 -49c-46 -22 -99 -31 -156 -31c-167 0 -297 127 -297 285c0 103 57 194 144 243l69 40c43 25 96 40 153 40c58 0 108 -12 155 -31l-52 -138c-46 32 -105 58 -172 58c-20 0 -45 0 -64 -13c-49 -34 -74 -97 -74 -160
c0 -117 94 -212 213 -212c60 0 98 15 149 45zM217 632l-51 47l146 137h46l144 -138l-52 -48l-115 84z" />
    <glyph glyph-name="ccaron.sc" unicode="&#xe02b;" horiz-adv-x="569" 
d="M538 145l17 -77c-29 -19 -54 -35 -85 -49c-46 -22 -99 -31 -156 -31c-167 0 -297 127 -297 285c0 103 57 194 144 243l69 40c43 25 96 40 153 40c58 0 108 -12 155 -31l-52 -138c-46 32 -105 58 -172 58c-20 0 -45 0 -64 -13c-49 -34 -74 -97 -74 -160
c0 -117 94 -212 213 -212c60 0 98 15 149 45zM311 630l-145 137l52 48l116 -83l117 83l51 -48l-145 -137h-46z" />
    <glyph glyph-name="cdotaccent.sc" unicode="&#xe02c;" horiz-adv-x="569" 
d="M538 145l17 -77c-29 -19 -54 -35 -85 -49c-46 -22 -99 -31 -156 -31c-167 0 -297 127 -297 285c0 103 57 194 144 243l69 40c43 25 96 40 153 40c58 0 108 -12 155 -31l-52 -138c-46 32 -105 58 -172 58c-20 0 -45 0 -64 -13c-49 -34 -74 -97 -74 -160
c0 -117 94 -212 213 -212c60 0 98 15 149 45zM403 710c0 -38 -31 -68 -69 -68s-69 31 -69 68s32 69 69 69c38 0 69 -31 69 -69z" />
    <glyph glyph-name="ccedilla.sc" unicode="&#xe02d;" horiz-adv-x="569" 
d="M222 -185l3 48c28 -7 56 -13 85 -14c26 0 56 4 56 38c0 30 -40 31 -63 32l6 69c-167 5 -292 130 -292 285c0 103 57 194 144 243l69 40c43 25 96 40 153 40c58 0 108 -12 155 -31l-52 -138c-46 32 -105 58 -172 58c-20 0 -45 0 -64 -13c-49 -34 -74 -97 -74 -160
c0 -117 94 -212 213 -212c60 0 98 15 149 45l17 -77c-61 -43 -125 -70 -199 -78l-3 -24c57 -5 104 -31 104 -85c0 -69 -56 -94 -117 -94c-41 0 -81 12 -118 28z" />
    <glyph glyph-name="dcaron.sc" unicode="&#xe02e;" horiz-adv-x="606" 
d="M55 0v524l-36 60h290c157 0 280 -121 280 -272c0 -100 -54 -187 -137 -235l-68 -39c-41 -23 -90 -38 -144 -38h-185zM210 113h90c24 0 51 2 65 11c45 33 67 89 67 149c0 109 -87 199 -192 199h-30v-359zM280 630l-145 137l52 48l116 -83l117 83l51 -48l-145 -137h-46z
" />
    <glyph glyph-name="dcroat.sc" unicode="&#xe02f;" horiz-adv-x="601" 
d="M63 0v250h-71l17 95h54v179l-36 60h290c157 0 280 -121 280 -272c0 -100 -54 -187 -137 -235l-68 -39c-41 -23 -90 -38 -144 -38h-185zM218 113h90c24 0 51 2 65 11c45 33 67 89 67 149c0 109 -87 199 -192 199h-30v-127h138l-16 -95h-122v-137z" />
    <glyph glyph-name="eth.sc" unicode="&#xe030;" horiz-adv-x="601" 
d="M63 0v250h-71l17 95h54v179l-36 60h290c157 0 280 -121 280 -272c0 -100 -54 -187 -137 -235l-68 -39c-41 -23 -90 -38 -144 -38h-185zM218 113h90c24 0 51 2 65 11c45 33 67 89 67 149c0 109 -87 199 -192 199h-30v-127h138l-16 -95h-122v-137z" />
    <glyph glyph-name="egrave.sc" unicode="&#xe031;" horiz-adv-x="484" 
d="M56 0v524l-37 60h441l-42 -112h-207v-113h241l-43 -114h-198v-132h258l-43 -113h-370zM259 628l-149 154l110 41l112 -165z" />
    <glyph glyph-name="eacute.sc" unicode="&#xe032;" horiz-adv-x="484" 
d="M56 0v524l-37 60h441l-42 -112h-207v-113h241l-43 -114h-198v-132h258l-43 -113h-370zM243 628l-73 30l112 165l110 -41z" />
    <glyph glyph-name="ecircumflex.sc" unicode="&#xe033;" horiz-adv-x="484" 
d="M56 0v524l-37 60h441l-42 -112h-207v-113h241l-43 -114h-198v-132h258l-43 -113h-370zM134 632l-51 47l146 137h46l144 -138l-52 -48l-115 84z" />
    <glyph glyph-name="ecaron.sc" unicode="&#xe034;" horiz-adv-x="484" 
d="M56 0v524l-37 60h441l-42 -112h-207v-113h241l-43 -114h-198v-132h258l-43 -113h-370zM228 630l-145 137l52 48l116 -83l117 83l51 -48l-145 -137h-46z" />
    <glyph glyph-name="edieresis.sc" unicode="&#xe035;" horiz-adv-x="484" 
d="M56 0v524l-37 60h441l-42 -112h-207v-113h241l-43 -114h-198v-132h258l-43 -113h-370zM423 710c0 -37 -30 -67 -68 -67c-37 0 -67 30 -67 67c0 36 32 68 67 68c37 0 68 -31 68 -68zM214 710c0 -37 -30 -67 -67 -67s-68 30 -68 67c0 36 32 68 68 68s67 -31 67 -68z" />
    <glyph glyph-name="edotaccent.sc" unicode="&#xe036;" horiz-adv-x="484" 
d="M56 0v524l-37 60h441l-42 -112h-207v-113h241l-43 -114h-198v-132h258l-43 -113h-370zM320 710c0 -38 -31 -68 -69 -68s-69 31 -69 68s32 69 69 69c38 0 69 -31 69 -69z" />
    <glyph glyph-name="emacron.sc" unicode="&#xe037;" horiz-adv-x="484" 
d="M56 0v524l-37 60h441l-42 -112h-207v-113h241l-43 -114h-198v-132h258l-43 -113h-370zM93 657v80h317v-80h-317z" />
    <glyph glyph-name="ebreve.sc" unicode="&#xe038;" horiz-adv-x="484" 
d="M56 0v524l-37 60h441l-42 -112h-207v-113h241l-43 -114h-198v-132h258l-43 -113h-370zM89 787h62c12 -49 54 -63 100 -63c45 0 88 14 100 63h62c-8 -91 -72 -148 -162 -148c-92 0 -153 56 -162 148z" />
    <glyph glyph-name="eogonek.sc" unicode="&#xe039;" horiz-adv-x="484" 
d="M441 -124l16 -62c-30 -17 -63 -27 -100 -27c-54 0 -100 35 -100 92c0 56 47 94 91 121h-292v524l-37 60h441l-42 -112h-207v-113h241l-43 -114h-198v-132h258l-43 -113h-20c-26 -19 -68 -52 -68 -92c0 -28 17 -46 48 -46c20 0 38 6 55 14z" />
    <glyph glyph-name="gcircumflex.sc" unicode="&#xe03a;" horiz-adv-x="654" 
d="M464 118v91h-174l43 113h286v-220c-87 -62 -191 -114 -305 -114c-167 0 -297 127 -297 285c0 103 57 194 144 243l69 40c43 25 96 40 153 40c78 0 143 -19 200 -54l-53 -137c-51 42 -122 80 -210 80c-26 0 -51 0 -70 -13c-49 -34 -74 -97 -74 -160
c0 -118 92 -212 213 -212c26 0 51 4 75 18zM231 632l-51 47l146 137h46l144 -138l-52 -48l-115 84z" />
    <glyph glyph-name="gdotaccent.sc" unicode="&#xe03b;" horiz-adv-x="654" 
d="M464 118v91h-174l43 113h286v-220c-87 -62 -191 -114 -305 -114c-167 0 -297 127 -297 285c0 103 57 194 144 243l69 40c43 25 96 40 153 40c78 0 143 -19 200 -54l-53 -137c-51 42 -122 80 -210 80c-26 0 -51 0 -70 -13c-49 -34 -74 -97 -74 -160
c0 -118 92 -212 213 -212c26 0 51 4 75 18zM417 710c0 -38 -31 -68 -69 -68s-69 31 -69 68s32 69 69 69c38 0 69 -31 69 -69z" />
    <glyph glyph-name="gbreve.sc" unicode="&#xe03c;" horiz-adv-x="654" 
d="M464 118v91h-174l43 113h286v-220c-87 -62 -191 -114 -305 -114c-167 0 -297 127 -297 285c0 103 57 194 144 243l69 40c43 25 96 40 153 40c78 0 143 -19 200 -54l-53 -137c-51 42 -122 80 -210 80c-26 0 -51 0 -70 -13c-49 -34 -74 -97 -74 -160
c0 -118 92 -212 213 -212c26 0 51 4 75 18zM186 787h62c12 -49 54 -63 100 -63c45 0 88 14 100 63h62c-8 -91 -72 -148 -162 -148c-92 0 -153 56 -162 148z" />
    <glyph glyph-name="gcommaaccent.sc" unicode="&#xe03d;" horiz-adv-x="654" 
d="M464 118v91h-174l43 113h286v-220c-87 -62 -191 -114 -305 -114c-167 0 -297 127 -297 285c0 103 57 194 144 243l69 40c43 25 96 40 153 40c78 0 143 -19 200 -54l-53 -137c-51 42 -122 80 -210 80c-26 0 -51 0 -70 -13c-49 -34 -74 -97 -74 -160
c0 -118 92 -212 213 -212c26 0 51 4 75 18zM343 -253l-64 22c19 26 35 53 46 83c-20 11 -32 30 -32 53c0 36 31 59 62 59c40 0 62 -31 62 -67c0 -50 -27 -108 -74 -150z" />
    <glyph glyph-name="hcircumflex.sc" unicode="&#xe03e;" horiz-adv-x="610" 
d="M56 0v524l-37 60h192v-223h188v163l-36 60h192v-584h-156v245h-188v-245h-155zM188 632l-51 47l146 137h46l144 -138l-52 -48l-115 84z" />
    <glyph glyph-name="hbar.sc" unicode="&#xe03f;" horiz-adv-x="610" 
d="M56 0v428h-38l12 72h26v24l-37 60h192v-84h188v24l-36 60h192v-84h38l-13 -72h-25v-428h-156v245h-188v-245h-155zM211 360h188v68h-188v-68z" />
    <glyph glyph-name="igrave.sc" unicode="&#xe040;" horiz-adv-x="275" 
d="M60 0v524l-37 60h192v-584h-155zM145 628l-149 154l110 41l112 -165z" />
    <glyph glyph-name="iacute.sc" unicode="&#xe041;" horiz-adv-x="275" 
d="M60 0v524l-37 60h192v-584h-155zM129 628l-73 30l112 165l110 -41z" />
    <glyph glyph-name="ibreve.sc" unicode="&#xe092;" horiz-adv-x="275" 
d="M60 0v524l-37 60h192v-584h-155zM-25 787h62c12 -49 54 -63 100 -63c45 0 88 14 100 63h62c-8 -91 -72 -148 -162 -148c-92 0 -153 56 -162 148z" />
    <glyph glyph-name="icircumflex.sc" unicode="&#xe042;" horiz-adv-x="275" 
d="M60 0v524l-37 60h192v-584h-155zM20 632l-51 47l146 137h46l144 -138l-52 -48l-115 84z" />
    <glyph glyph-name="itilde.sc" unicode="&#xe043;" horiz-adv-x="275" 
d="M60 0v524l-37 60h192v-584h-155zM27 643l-63 28c19 50 56 98 114 98c42 0 79 -35 120 -35c25 0 39 22 47 42l65 -25c-17 -50 -53 -103 -112 -103c-43 0 -84 36 -125 36c-25 0 -38 -21 -46 -41z" />
    <glyph glyph-name="idieresis.sc" unicode="&#xe044;" horiz-adv-x="275" 
d="M60 0v524l-37 60h192v-584h-155zM309 710c0 -37 -30 -67 -68 -67c-37 0 -67 30 -67 67c0 36 32 68 67 68c37 0 68 -31 68 -68zM100 710c0 -37 -30 -67 -67 -67s-68 30 -68 67c0 36 32 68 68 68s67 -31 67 -68z" />
    <glyph glyph-name="imacron.sc" unicode="&#xe045;" horiz-adv-x="275" 
d="M60 0v524l-37 60h192v-584h-155zM-21 657v80h317v-80h-317z" />
    <glyph glyph-name="idotaccent.sc" unicode="&#xe046;" horiz-adv-x="275" 
d="M60 0v524l-37 60h192v-584h-155zM206 710c0 -38 -31 -68 -69 -68s-69 31 -69 68s32 69 69 69c38 0 69 -31 69 -69z" />
    <glyph glyph-name="iogonek.sc" unicode="&#xe047;" horiz-adv-x="275" 
d="M214 -124l16 -62c-30 -17 -63 -27 -100 -27c-54 0 -101 35 -101 92c0 56 47 94 91 121h-64v524l-37 60h192v-584h-32c-26 -19 -68 -52 -68 -92c0 -27 17 -46 48 -46c19 0 38 6 55 14z" />
    <glyph glyph-name="jcircumflex.sc" unicode="&#xe048;" horiz-adv-x="283" 
d="M-27 -128l-16 74l-7 39h88c6 0 10 1 14 1c17 19 20 41 20 71v467l-36 60h191v-491c0 -71 -26 -125 -82 -157l-70 -39c-29 -17 -62 -25 -102 -25zM24 632l-51 47l146 137h46l144 -138l-52 -48l-115 84z" />
    <glyph glyph-name="kcommaaccent.sc" unicode="&#xe049;" horiz-adv-x="570" 
d="M56 0v524l-37 60h192v-259l18 22l138 177l-24 60h227l-204 -259c88 -98 170 -206 225 -325h-195c-42 86 -102 169 -162 245l-23 -12v-233h-155zM287 -253l-64 22c19 26 35 53 46 83c-20 11 -32 30 -32 53c0 36 31 59 62 59c40 0 62 -31 62 -67c0 -50 -27 -108 -74 -150z
" />
    <glyph glyph-name="lacute.sc" unicode="&#xe04a;" horiz-adv-x="437" 
d="M56 0v524l-37 60h192v-470h227l-44 -114h-338zM210 628l-73 30l112 165l110 -41z" />
    <glyph glyph-name="lcaron.sc" unicode="&#xe04b;" horiz-adv-x="442" 
d="M311 408l-64 22c19 26 35 53 46 82c-20 12 -32 30 -32 54c0 36 31 58 62 58c40 0 62 -30 62 -67c0 -49 -27 -107 -74 -149zM55 0v524l-37 60h192v-470h227l-44 -114h-338z" />
    <glyph glyph-name="lcommaaccent.sc" unicode="&#xe04c;" horiz-adv-x="437" 
d="M56 0v524l-37 60h192v-470h227l-44 -114h-338zM227 -253l-64 22c19 26 35 53 46 83c-20 11 -32 30 -32 53c0 36 31 59 62 59c40 0 62 -31 62 -67c0 -50 -27 -108 -74 -150z" />
    <glyph glyph-name="ldot.sc" unicode="&#xe04d;" horiz-adv-x="437" 
d="M421 302c0 -38 -31 -68 -69 -68s-69 31 -69 68s32 69 69 69c38 0 69 -31 69 -69zM56 0v524l-37 60h192v-470h227l-44 -114h-338z" />
    <glyph glyph-name="lslash.sc" unicode="&#xe04e;" horiz-adv-x="428" 
d="M54 0v189l-38 -23l-48 81l86 53v224l-36 60h191v-186l82 50l48 -81l-130 -80v-173h227l-44 -114h-338z" />
    <glyph glyph-name="nacute.sc" unicode="&#xe04f;" horiz-adv-x="626" 
d="M56 0v514l-50 70h190l253 -343v283l-37 60h159v-584h-140l-253 344v-344h-122zM305 628l-73 30l112 165l110 -41z" />
    <glyph glyph-name="ncaron.sc" unicode="&#xe050;" horiz-adv-x="626" 
d="M56 0v514l-50 70h190l253 -343v283l-37 60h159v-584h-140l-253 344v-344h-122zM290 630l-145 137l52 48l116 -83l117 83l51 -48l-145 -137h-46z" />
    <glyph glyph-name="ntilde.sc" unicode="&#xe051;" horiz-adv-x="626" 
d="M56 0v514l-50 70h190l253 -343v283l-37 60h159v-584h-140l-253 344v-344h-122zM203 643l-63 28c19 50 56 98 114 98c42 0 79 -35 120 -35c25 0 39 22 47 42l65 -25c-17 -50 -53 -103 -112 -103c-43 0 -84 36 -125 36c-25 0 -38 -21 -46 -41z" />
    <glyph glyph-name="ncommaaccent.sc" unicode="&#xe052;" horiz-adv-x="626" 
d="M56 0v514l-50 70h190l253 -343v283l-37 60h159v-584h-140l-253 344v-344h-122zM308 -253l-64 22c19 26 35 53 46 83c-20 11 -32 30 -32 53c0 36 31 59 62 59c40 0 62 -31 62 -67c0 -50 -27 -108 -74 -150z" />
    <glyph glyph-name="ograve.sc" unicode="&#xe054;" horiz-adv-x="687" 
d="M529 65l-70 -39c-42 -26 -94 -38 -149 -38c-167 0 -293 126 -293 285c0 104 55 195 142 245l68 40c42 25 94 38 151 38c169 0 292 -126 292 -284c0 -105 -54 -198 -141 -247zM447 114c40 30 64 93 64 159c0 116 -83 212 -201 212c-26 0 -51 -3 -66 -14
c-43 -33 -68 -94 -68 -159c0 -117 84 -212 202 -212c23 0 54 2 69 14zM352 628l-149 154l110 41l112 -165z" />
    <glyph glyph-name="oacute.sc" unicode="&#xe055;" horiz-adv-x="687" 
d="M529 65l-70 -39c-42 -26 -94 -38 -149 -38c-167 0 -293 126 -293 285c0 104 55 195 142 245l68 40c42 25 94 38 151 38c169 0 292 -126 292 -284c0 -105 -54 -198 -141 -247zM447 114c40 30 64 93 64 159c0 116 -83 212 -201 212c-26 0 -51 -3 -66 -14
c-43 -33 -68 -94 -68 -159c0 -117 84 -212 202 -212c23 0 54 2 69 14zM336 628l-73 30l112 165l110 -41z" />
    <glyph glyph-name="ocircumflex.sc" unicode="&#xe056;" horiz-adv-x="687" 
d="M529 65l-70 -39c-42 -26 -94 -38 -149 -38c-167 0 -293 126 -293 285c0 104 55 195 142 245l68 40c42 25 94 38 151 38c169 0 292 -126 292 -284c0 -105 -54 -198 -141 -247zM447 114c40 30 64 93 64 159c0 116 -83 212 -201 212c-26 0 -51 -3 -66 -14
c-43 -33 -68 -94 -68 -159c0 -117 84 -212 202 -212c23 0 54 2 69 14zM227 632l-51 47l146 137h46l144 -138l-52 -48l-115 84z" />
    <glyph glyph-name="otilde.sc" unicode="&#xe057;" horiz-adv-x="687" 
d="M529 65l-70 -39c-42 -26 -94 -38 -149 -38c-167 0 -293 126 -293 285c0 104 55 195 142 245l68 40c42 25 94 38 151 38c169 0 292 -126 292 -284c0 -105 -54 -198 -141 -247zM447 114c40 30 64 93 64 159c0 116 -83 212 -201 212c-26 0 -51 -3 -66 -14
c-43 -33 -68 -94 -68 -159c0 -117 84 -212 202 -212c23 0 54 2 69 14zM234 643l-63 28c19 50 56 98 114 98c42 0 79 -35 120 -35c25 0 39 22 47 42l65 -25c-17 -50 -53 -103 -112 -103c-43 0 -84 36 -125 36c-25 0 -38 -21 -46 -41z" />
    <glyph glyph-name="odieresis.sc" unicode="&#xe058;" horiz-adv-x="687" 
d="M529 65l-70 -39c-42 -26 -94 -38 -149 -38c-167 0 -293 126 -293 285c0 104 55 195 142 245l68 40c42 25 94 38 151 38c169 0 292 -126 292 -284c0 -105 -54 -198 -141 -247zM447 114c40 30 64 93 64 159c0 116 -83 212 -201 212c-26 0 -51 -3 -66 -14
c-43 -33 -68 -94 -68 -159c0 -117 84 -212 202 -212c23 0 54 2 69 14zM516 710c0 -37 -30 -67 -68 -67c-37 0 -67 30 -67 67c0 36 32 68 67 68c37 0 68 -31 68 -68zM307 710c0 -37 -30 -67 -67 -67s-68 30 -68 67c0 36 32 68 68 68s67 -31 67 -68z" />
    <glyph glyph-name="omacron.sc" unicode="&#xe059;" horiz-adv-x="687" 
d="M529 65l-70 -39c-42 -26 -94 -38 -149 -38c-167 0 -293 126 -293 285c0 104 55 195 142 245l68 40c42 25 94 38 151 38c169 0 292 -126 292 -284c0 -105 -54 -198 -141 -247zM447 114c40 30 64 93 64 159c0 116 -83 212 -201 212c-26 0 -51 -3 -66 -14
c-43 -33 -68 -94 -68 -159c0 -117 84 -212 202 -212c23 0 54 2 69 14zM186 657v80h317v-80h-317z" />
    <glyph glyph-name="obreve.sc" unicode="&#xe05a;" horiz-adv-x="687" 
d="M529 65l-70 -39c-42 -26 -94 -38 -149 -38c-167 0 -293 126 -293 285c0 104 55 195 142 245l68 40c42 25 94 38 151 38c169 0 292 -126 292 -284c0 -105 -54 -198 -141 -247zM447 114c40 30 64 93 64 159c0 116 -83 212 -201 212c-26 0 -51 -3 -66 -14
c-43 -33 -68 -94 -68 -159c0 -117 84 -212 202 -212c23 0 54 2 69 14zM182 787h62c12 -49 54 -63 100 -63c45 0 88 14 100 63h62c-8 -91 -72 -148 -162 -148c-92 0 -153 56 -162 148z" />
    <glyph glyph-name="ohungarumlaut.sc" unicode="&#xe05b;" horiz-adv-x="687" 
d="M529 65l-70 -39c-42 -26 -94 -38 -149 -38c-167 0 -293 126 -293 285c0 104 55 195 142 245l68 40c42 25 94 38 151 38c169 0 292 -126 292 -284c0 -105 -54 -198 -141 -247zM447 114c40 30 64 93 64 159c0 116 -83 212 -201 212c-26 0 -51 -3 -66 -14
c-43 -33 -68 -94 -68 -159c0 -117 84 -212 202 -212c23 0 54 2 69 14zM416 628l-73 30l112 165l110 -41zM255 628l-72 30l111 165l111 -41z" />
    <glyph glyph-name="oslash.sc" unicode="&#xe05c;" horiz-adv-x="688" 
d="M147 -66l-80 54l50 68c-61 53 -99 129 -99 217c0 104 55 195 142 245l68 40c42 25 95 38 152 38c39 0 74 -9 109 -24l46 66l79 -53l-41 -59c61 -52 99 -127 99 -214c0 -105 -55 -197 -141 -247l-70 -39c-43 -25 -95 -38 -151 -38c-39 0 -75 9 -108 22zM478 393l-195 -268
c28 -16 60 -25 97 -25c23 0 51 2 68 15c42 34 64 92 64 158c0 44 -12 86 -34 120zM213 191l194 268c-28 16 -60 26 -97 26c-23 0 -48 -3 -63 -14c-44 -38 -69 -94 -69 -159c0 -45 12 -87 35 -121z" />
    <glyph glyph-name="oe.sc" unicode="&#xe05d;" horiz-adv-x="862" 
d="M434 0v9c-35 -14 -76 -21 -117 -21c-171 0 -300 126 -300 285c0 104 58 195 147 244l68 40c43 25 96 39 154 39c31 0 61 -5 89 -12h364l-42 -112h-208v-113h242l-43 -114h-199v-132h259l-43 -113h-371zM434 104v353c-33 16 -73 28 -117 28c-23 0 -52 0 -67 -11
c-48 -36 -73 -97 -73 -162c0 -117 87 -212 209 -212c16 0 33 0 48 4z" />
    <glyph glyph-name="racute.sc" unicode="&#xe05e;" horiz-adv-x="540" 
d="M564 0h-193l-138 221h-22v-221h-155v524l-37 60h294c104 0 183 -74 183 -167c0 -61 -32 -112 -73 -139l-16 -11c-8 -5 -18 -9 -27 -10zM211 322h90c7 0 14 2 19 7c12 12 18 29 19 49c0 54 -50 96 -100 96h-28v-152zM262 628l-73 30l112 165l110 -41z" />
    <glyph glyph-name="rcaron.sc" unicode="&#xe060;" horiz-adv-x="540" 
d="M564 0h-193l-138 221h-22v-221h-155v524l-37 60h294c104 0 183 -74 183 -167c0 -61 -32 -112 -73 -139l-16 -11c-8 -5 -18 -9 -27 -10zM211 322h90c7 0 14 2 19 7c12 12 18 29 19 49c0 54 -50 96 -100 96h-28v-152zM247 630l-145 137l52 48l116 -83l117 83l51 -48
l-145 -137h-46z" />
    <glyph glyph-name="rcommaaccent.sc" unicode="&#xe05f;" horiz-adv-x="540" 
d="M564 0h-193l-138 221h-22v-221h-155v524l-37 60h294c104 0 183 -74 183 -167c0 -61 -32 -112 -73 -139l-16 -11c-8 -5 -18 -9 -27 -10zM211 322h90c7 0 14 2 19 7c12 12 18 29 19 49c0 54 -50 96 -100 96h-28v-152zM273 -253l-64 22c19 26 35 53 46 83
c-20 11 -32 30 -32 53c0 36 31 59 62 59c40 0 62 -31 62 -67c0 -50 -27 -108 -74 -150z" />
    <glyph glyph-name="sacute.sc" unicode="&#xe061;" horiz-adv-x="474" 
d="M369 52l-70 -38c-29 -16 -63 -26 -99 -26c-72 0 -132 18 -180 49l50 131c69 -44 121 -68 190 -68c7 0 13 2 18 5c12 11 18 26 18 43c0 61 -57 75 -114 93c-74 22 -153 52 -153 154c0 60 33 111 83 139l70 39c27 15 57 23 92 23c61 0 119 -17 167 -46l-50 -128
c-44 28 -107 63 -172 63c-7 0 -12 -3 -17 -9c-9 -9 -13 -20 -13 -32c0 -57 52 -71 105 -87c78 -22 161 -53 161 -161c0 -63 -34 -115 -86 -144zM229 628l-73 30l112 165l110 -41z" />
    <glyph glyph-name="scircumflex.sc" unicode="&#xe062;" horiz-adv-x="474" 
d="M369 52l-70 -38c-29 -16 -63 -26 -99 -26c-72 0 -132 18 -180 49l50 131c69 -44 121 -68 190 -68c7 0 13 2 18 5c12 11 18 26 18 43c0 61 -57 75 -114 93c-74 22 -153 52 -153 154c0 60 33 111 83 139l70 39c27 15 57 23 92 23c61 0 119 -17 167 -46l-50 -128
c-44 28 -107 63 -172 63c-7 0 -12 -3 -17 -9c-9 -9 -13 -20 -13 -32c0 -57 52 -71 105 -87c78 -22 161 -53 161 -161c0 -63 -34 -115 -86 -144zM120 632l-51 47l146 137h46l144 -138l-52 -48l-115 84z" />
    <glyph glyph-name="scaron.sc" unicode="&#xe063;" horiz-adv-x="474" 
d="M369 52l-70 -38c-29 -16 -63 -26 -99 -26c-72 0 -132 18 -180 49l50 131c69 -44 121 -68 190 -68c7 0 13 2 18 5c12 11 18 26 18 43c0 61 -57 75 -114 93c-74 22 -153 52 -153 154c0 60 33 111 83 139l70 39c27 15 57 23 92 23c61 0 119 -17 167 -46l-50 -128
c-44 28 -107 63 -172 63c-7 0 -12 -3 -17 -9c-9 -9 -13 -20 -13 -32c0 -57 52 -71 105 -87c78 -22 161 -53 161 -161c0 -63 -34 -115 -86 -144zM214 630l-145 137l52 48l116 -83l117 83l51 -48l-145 -137h-46z" />
    <glyph glyph-name="scedilla.sc" unicode="&#xe064;" horiz-adv-x="474" 
d="M122 -185l3 48c27 -7 56 -13 85 -14c25 0 56 4 56 38c0 30 -40 31 -63 32l5 69c-82 0 -141 18 -188 49l50 131c69 -44 121 -68 190 -68c7 0 13 2 18 5c12 11 18 26 18 43c0 61 -57 75 -114 93c-74 22 -153 52 -153 154c0 60 33 111 83 139l70 39c27 15 57 23 92 23
c61 0 119 -17 167 -46l-50 -128c-44 28 -107 63 -172 63c-7 0 -12 -3 -17 -9c-9 -9 -13 -20 -13 -32c0 -57 51 -70 105 -87c78 -22 161 -53 161 -161c0 -63 -34 -115 -86 -144l-70 -38c-14 -7 -28 -14 -43 -17l-3 -31c57 -5 104 -31 104 -85c0 -69 -56 -94 -118 -94
c-40 0 -80 12 -117 28z" />
    <glyph glyph-name="scommaaccent.sc" unicode="&#xe065;" horiz-adv-x="474" 
d="M369 52l-70 -38c-29 -16 -63 -26 -99 -26c-72 0 -132 18 -180 49l50 131c69 -44 121 -68 190 -68c7 0 13 2 18 5c12 11 18 26 18 43c0 61 -57 75 -114 93c-74 22 -153 52 -153 154c0 60 33 111 83 139l70 39c27 15 57 23 92 23c61 0 119 -17 167 -46l-50 -128
c-44 28 -107 63 -172 63c-7 0 -12 -3 -17 -9c-9 -9 -13 -20 -13 -32c0 -57 52 -71 105 -87c78 -22 161 -53 161 -161c0 -63 -34 -115 -86 -144zM232 -253l-64 22c19 26 35 53 46 83c-20 11 -32 30 -32 53c0 36 31 59 62 59c40 0 62 -31 62 -67c0 -50 -27 -108 -74 -150z" />
    <glyph glyph-name="germandbls.sc" unicode="&#xe066;" horiz-adv-x="880" 
d="M366 52l-70 -38c-29 -16 -63 -26 -100 -26c-68 0 -122 18 -168 49l48 131c60 -40 111 -68 180 -68c7 0 14 2 19 5c12 11 17 26 17 43c0 61 -57 75 -113 93c-74 22 -153 52 -153 154c0 60 32 111 83 139l69 39c27 15 58 23 93 23c72 0 155 -27 237 -71c5 5 10 10 16 13
l63 35c27 15 58 23 93 23c60 0 119 -17 167 -46l-51 -128c-44 27 -107 63 -172 63c-6 0 -12 -3 -16 -9c-9 -9 -14 -20 -14 -32c0 -57 52 -71 105 -87c78 -22 162 -53 162 -161c0 -63 -35 -115 -87 -144l-69 -38c-30 -16 -64 -26 -100 -26c-69 0 -122 18 -169 49l49 131
c59 -40 111 -68 180 -68c7 0 14 2 19 5c11 11 17 26 17 43c0 61 -57 75 -114 93c-74 22 -152 52 -152 154c0 9 1 18 3 27c-69 37 -149 63 -223 63c-6 0 -11 -4 -16 -9c-8 -8 -14 -19 -14 -32c0 -57 52 -71 106 -87c77 -22 161 -53 161 -161c0 -63 -34 -115 -86 -144z" />
    <glyph glyph-name="tcaron.sc" unicode="&#xe067;" horiz-adv-x="510" 
d="M176 0v471h-175l43 113h465l-43 -113h-134v-471h-156zM231 630l-145 137l52 48l116 -83l117 83l51 -48l-145 -137h-46z" />
    <glyph glyph-name="tcommaaccent.sc" horiz-adv-x="510" 
d="M176 0v471h-175l43 113h465l-43 -113h-134v-471h-156zM249 -253l-64 22c19 26 35 53 46 83c-20 11 -32 30 -32 53c0 36 31 59 62 59c40 0 62 -31 62 -67c0 -50 -27 -108 -74 -150z" />
    <glyph glyph-name="tbar.sc" unicode="&#xe069;" horiz-adv-x="510" 
d="M176 0v250h-104l17 95h87v126h-175l43 113h465l-43 -113h-134v-126h106l-17 -95h-89v-250h-156z" />
    <glyph glyph-name="thorn.sc" unicode="&#xe06a;" horiz-adv-x="519" 
d="M56 0v524l-37 60h192v-86h65c15 0 29 0 44 -1c104 -4 182 -80 182 -175c0 -64 -35 -117 -90 -148l-69 -39c-35 -20 -75 -27 -120 -27h-12v-108h-155zM211 219h62c36 0 71 4 71 63c0 71 -65 103 -133 106v-169z" />
    <glyph glyph-name="ugrave.sc" unicode="&#xe06b;" horiz-adv-x="598" 
d="M490 69l-69 -38c-49 -28 -106 -43 -163 -43c-118 0 -206 83 -206 190v346l-37 60h193v-363c0 -64 53 -117 120 -117c21 0 41 4 59 15v405l-36 60h192v-482c-11 -8 -43 -26 -53 -33zM307 628l-149 154l110 41l112 -165z" />
    <glyph glyph-name="uacute.sc" unicode="&#xe06c;" horiz-adv-x="598" 
d="M490 69l-69 -38c-49 -28 -106 -43 -163 -43c-118 0 -206 83 -206 190v346l-37 60h193v-363c0 -64 53 -117 120 -117c21 0 41 4 59 15v405l-36 60h192v-482c-11 -8 -43 -26 -53 -33zM291 628l-73 30l112 165l110 -41z" />
    <glyph glyph-name="ucircumflex.sc" unicode="&#xe06d;" horiz-adv-x="598" 
d="M490 69l-69 -38c-49 -28 -106 -43 -163 -43c-118 0 -206 83 -206 190v346l-37 60h193v-363c0 -64 53 -117 120 -117c21 0 41 4 59 15v405l-36 60h192v-482c-11 -8 -43 -26 -53 -33zM182 632l-51 47l146 137h46l144 -138l-52 -48l-115 84z" />
    <glyph glyph-name="utilde.sc" unicode="&#xe06e;" horiz-adv-x="598" 
d="M490 69l-69 -38c-49 -28 -106 -43 -163 -43c-118 0 -206 83 -206 190v346l-37 60h193v-363c0 -64 53 -117 120 -117c21 0 41 4 59 15v405l-36 60h192v-482c-11 -8 -43 -26 -53 -33zM189 643l-63 28c19 50 56 98 114 98c42 0 79 -35 120 -35c25 0 39 22 47 42l65 -25
c-17 -50 -53 -103 -112 -103c-43 0 -84 36 -125 36c-25 0 -38 -21 -46 -41z" />
    <glyph glyph-name="udieresis.sc" unicode="&#xe06f;" horiz-adv-x="598" 
d="M490 69l-69 -38c-49 -28 -106 -43 -163 -43c-118 0 -206 83 -206 190v346l-37 60h193v-363c0 -64 53 -117 120 -117c21 0 41 4 59 15v405l-36 60h192v-482c-11 -8 -43 -26 -53 -33zM471 710c0 -37 -30 -67 -68 -67c-37 0 -67 30 -67 67c0 36 32 68 67 68
c37 0 68 -31 68 -68zM262 710c0 -37 -30 -67 -67 -67s-68 30 -68 67c0 36 32 68 68 68s67 -31 67 -68z" />
    <glyph glyph-name="umacron.sc" unicode="&#xe070;" horiz-adv-x="598" 
d="M490 69l-69 -38c-49 -28 -106 -43 -163 -43c-118 0 -206 83 -206 190v346l-37 60h193v-363c0 -64 53 -117 120 -117c21 0 41 4 59 15v405l-36 60h192v-482c-11 -8 -43 -26 -53 -33zM141 657v80h317v-80h-317z" />
    <glyph glyph-name="ubreve.sc" unicode="&#xe071;" horiz-adv-x="598" 
d="M490 69l-69 -38c-49 -28 -106 -43 -163 -43c-118 0 -206 83 -206 190v346l-37 60h193v-363c0 -64 53 -117 120 -117c21 0 41 4 59 15v405l-36 60h192v-482c-11 -8 -43 -26 -53 -33zM137 787h62c12 -49 54 -63 100 -63c45 0 88 14 100 63h62c-8 -91 -72 -148 -162 -148
c-92 0 -153 56 -162 148z" />
    <glyph glyph-name="uring.sc" unicode="&#xe072;" horiz-adv-x="598" 
d="M490 69l-69 -38c-49 -28 -106 -43 -163 -43c-118 0 -206 83 -206 190v346l-37 60h193v-363c0 -64 53 -117 120 -117c21 0 41 4 59 15v405l-36 60h192v-482c-11 -8 -43 -26 -53 -33zM432 732c0 -74 -66 -113 -133 -113c-68 0 -133 39 -133 113s65 115 133 115
s133 -41 133 -115zM358 733c0 33 -29 51 -59 51s-59 -18 -59 -51c0 -32 29 -51 59 -51s59 19 59 51z" />
    <glyph glyph-name="uhungarumlaut.sc" unicode="&#xe073;" horiz-adv-x="598" 
d="M490 69l-69 -38c-49 -28 -106 -43 -163 -43c-118 0 -206 83 -206 190v346l-37 60h193v-363c0 -64 53 -117 120 -117c21 0 41 4 59 15v405l-36 60h192v-482c-11 -8 -43 -26 -53 -33zM371 628l-73 30l112 165l110 -41zM210 628l-72 30l111 165l111 -41z" />
    <glyph glyph-name="uogonek.sc" unicode="&#xe074;" horiz-adv-x="598" 
d="M437 -124l16 -62c-29 -17 -62 -27 -100 -27c-54 0 -100 35 -100 92c0 50 38 91 78 118c-25 -6 -50 -9 -73 -9c-118 0 -206 83 -206 190v346l-37 60h193v-363c0 -64 53 -117 120 -117c21 0 41 4 59 15v405l-36 60h192v-482c-33 -22 -75 -48 -115 -67
c-41 -29 -94 -76 -94 -127c0 -28 17 -46 49 -46c19 0 37 6 54 14z" />
    <glyph glyph-name="wacute.sc" unicode="&#xe09c;" horiz-adv-x="846" 
d="M230 0l-255 584h170l160 -364l52 115l-110 249h171l160 -364l136 304l-24 60h182l-255 -584h-114l-80 180l-80 -180h-113zM415 628l-73 30l112 165l110 -41z" />
    <glyph glyph-name="wcircumflex.sc" unicode="&#xe075;" horiz-adv-x="846" 
d="M230 0l-255 584h170l160 -364l52 115l-110 249h171l160 -364l136 304l-24 60h182l-255 -584h-114l-80 180l-80 -180h-113zM306 632l-51 47l146 137h46l144 -138l-52 -48l-115 84z" />
    <glyph glyph-name="wdieresis.sc" unicode="&#xe09d;" horiz-adv-x="846" 
d="M230 0l-255 584h170l160 -364l52 115l-110 249h171l160 -364l136 304l-24 60h182l-255 -584h-114l-80 180l-80 -180h-113zM595 710c0 -37 -30 -67 -68 -67c-37 0 -67 30 -67 67c0 36 32 68 67 68c37 0 68 -31 68 -68zM386 710c0 -37 -30 -67 -67 -67s-68 30 -68 67
c0 36 32 68 68 68s67 -31 67 -68z" />
    <glyph glyph-name="wgrave.sc" unicode="&#xe09e;" horiz-adv-x="846" 
d="M230 0l-255 584h170l160 -364l52 115l-110 249h171l160 -364l136 304l-24 60h182l-255 -584h-114l-80 180l-80 -180h-113zM431 628l-149 154l110 41l112 -165z" />
    <glyph glyph-name="yacute.sc" unicode="&#xe076;" horiz-adv-x="555" 
d="M201 0v232l-220 352h184l132 -217l99 157l-26 60h205l-218 -351v-233h-156zM269 628l-73 30l112 165l110 -41z" />
    <glyph glyph-name="ycircumflex.sc" unicode="&#xe077;" horiz-adv-x="555" 
d="M201 0v232l-220 352h184l132 -217l99 157l-26 60h205l-218 -351v-233h-156zM160 632l-51 47l146 137h46l144 -138l-52 -48l-115 84z" />
    <glyph glyph-name="ydieresis.sc" unicode="&#xe078;" horiz-adv-x="555" 
d="M201 0v232l-220 352h184l132 -217l99 157l-26 60h205l-218 -351v-233h-156zM449 710c0 -37 -30 -67 -68 -67c-37 0 -67 30 -67 67c0 36 32 68 67 68c37 0 68 -31 68 -68zM240 710c0 -37 -30 -67 -67 -67s-68 30 -68 67c0 36 32 68 68 68s67 -31 67 -68z" />
    <glyph glyph-name="ygrave.sc" unicode="&#xe09f;" horiz-adv-x="555" 
d="M201 0v232l-220 352h184l132 -217l99 157l-26 60h205l-218 -351v-233h-156zM285 628l-149 154l110 41l112 -165z" />
    <glyph glyph-name="zacute.sc" unicode="&#xe079;" horiz-adv-x="515" 
d="M17 0v57l262 414h-262l45 113h427v-56l-261 -414h283l-44 -114h-450zM249 628l-73 30l112 165l110 -41z" />
    <glyph glyph-name="zcaron.sc" unicode="&#xe07a;" horiz-adv-x="515" 
d="M17 0v57l262 414h-262l45 113h427v-56l-261 -414h283l-44 -114h-450zM234 630l-145 137l52 48l116 -83l117 83l51 -48l-145 -137h-46z" />
    <glyph glyph-name="zdotaccent.sc" unicode="&#xe07b;" horiz-adv-x="515" 
d="M17 0v57l262 414h-262l45 113h427v-56l-261 -414h283l-44 -114h-450zM326 710c0 -38 -31 -68 -69 -68s-69 31 -69 68s32 69 69 69c38 0 69 -31 69 -69z" />
    <glyph glyph-name="fi.sc" unicode="&#xe07c;" horiz-adv-x="706" 
d="M491 0v472h-280v-133h208l-43 -113h-165v-226h-155v524l-37 60h627v-584h-155z" />
    <glyph glyph-name="fl.sc" unicode="&#xe07d;" horiz-adv-x="872" 
d="M491 0v472h-280v-133h208l-43 -113h-165v-226h-155v524l-37 60h627v-470h227l-44 -114h-338z" />
    <glyph glyph-name="f_f.sc" unicode="&#xe0a0;" horiz-adv-x="910" 
d="M491 0v472h-280v-133h208l-43 -113h-165v-226h-155v524l-37 60h872l-44 -112h-201v-133h228l-43 -113h-185v-226h-155z" />
    <glyph glyph-name="f_f_i.sc" unicode="&#xe0a1;" horiz-adv-x="1141" 
d="M491 0v472h-280v-133h208l-43 -113h-165v-226h-155v524l-37 60h1062v-584h-155v472h-280v-133h208l-43 -113h-165v-226h-155z" />
    <glyph glyph-name="f_f_l.sc" unicode="&#xe0a2;" horiz-adv-x="1307" 
d="M491 0v472h-280v-133h208l-43 -113h-165v-226h-155v524l-37 60h1062v-470h227l-44 -114h-338v472h-280v-133h208l-43 -113h-165v-226h-155z" />
    <glyph glyph-name="ij.sc" unicode="&#xe07e;" horiz-adv-x="554" 
d="M60 0v524l-37 60h192v-584h-155zM244 -128l-16 74l-7 39h88c6 0 10 1 14 1c17 19 20 41 20 71v467l-36 60h191v-491c0 -71 -26 -125 -82 -157l-70 -39c-29 -17 -62 -25 -102 -25z" />
    <glyph glyph-name="uni021B.sc" horiz-adv-x="510" 
d="M176 0v471h-175l43 113h465l-43 -113h-134v-471h-156zM249 -253l-64 22c19 26 35 53 46 83c-20 11 -32 30 -32 53c0 36 31 59 62 59c40 0 62 -31 62 -67c0 -50 -27 -108 -74 -150z" />
    <glyph glyph-name="napostrophe.sc" unicode="&#xe053;" horiz-adv-x="626" 
d="M51 598l-64 22c19 26 35 53 46 82c-20 12 -32 30 -32 54c0 36 31 58 62 58c40 0 62 -30 62 -67c0 -49 -27 -107 -74 -149zM56 0v514l-50 70h190l253 -343v283l-37 60h159v-584h-140l-253 344v-344h-122z" />
    <glyph glyph-name="eng.sc" unicode="&#xe0a3;" horiz-adv-x="626" 
d="M354 -144l-19 101l27 1c19 0 39 1 56 3c11 10 13 25 13 39l-253 344v-344h-122v514l-50 70h190l253 -343v283l-37 60h159v-568c0 -42 -18 -79 -57 -102c-62 -35 -88 -58 -160 -58z" />
    <glyph glyph-name="ellipsis" unicode="&#x2026;" horiz-adv-x="1000" 
d="M927 82c0 -61 -49 -91 -98 -91c-50 0 -89 30 -89 79c0 60 50 91 99 91c50 0 88 -28 88 -79zM594 82c0 -61 -49 -91 -98 -91c-50 0 -89 30 -89 79c0 60 50 91 99 91c50 0 88 -28 88 -79zM261 82c0 -61 -49 -91 -98 -91c-50 0 -89 30 -89 79c0 60 50 91 99 91
c50 0 88 -28 88 -79z" />
    <glyph glyph-name="uni00AD" unicode="&#xad;" horiz-adv-x="365" 
d="M28 201v115h310v-115h-310z" />
    <glyph glyph-name="exclamdown" unicode="&#xa1;" horiz-adv-x="315" 
d="M71 -224l14 497h144l13 -497h-171zM251 435c0 -61 -50 -92 -99 -92c-50 0 -89 31 -89 80c0 60 51 91 100 91c50 0 88 -28 88 -79z" />
    <glyph glyph-name="questiondown" unicode="&#xbf;" horiz-adv-x="513" 
d="M463 -59l25 -83c-25 -18 -51 -33 -81 -50c-52 -29 -111 -46 -174 -46c-116 0 -207 75 -207 184c0 89 60 133 112 172c27 20 48 46 48 79v76h151v-49c0 -48 -24 -77 -54 -103c-39 -34 -89 -58 -89 -127c0 -61 51 -112 115 -112c36 0 69 10 103 28c21 11 39 22 51 31z
M168 423c0 61 50 91 99 91c50 0 89 -30 89 -79c0 -60 -51 -92 -100 -92c-50 0 -88 29 -88 80z" />
    <glyph glyph-name="quoteleft" unicode="&#x2018;" horiz-adv-x="195" 
d="M143 765l50 -22c-24 -32 -46 -67 -58 -103c18 -13 34 -34 34 -60c0 -42 -29 -70 -71 -70c-43 0 -72 33 -72 75c0 74 54 138 117 180z" />
    <glyph glyph-name="quoteright" unicode="&#x2019;" horiz-adv-x="195" 
d="M52 510l-49 21c24 33 45 69 57 105c-18 12 -34 33 -34 58c0 43 30 71 71 71c44 0 72 -33 72 -74c0 -75 -53 -139 -117 -181z" />
    <glyph glyph-name="quotedblleft" unicode="&#x201c;" horiz-adv-x="371" 
d="M143 765l50 -22c-24 -32 -46 -67 -58 -103c18 -13 34 -34 34 -60c0 -42 -29 -70 -71 -70c-43 0 -72 33 -72 75c0 74 54 138 117 180zM320 765l50 -22c-25 -32 -47 -67 -59 -103c18 -13 34 -34 34 -60c0 -42 -29 -70 -71 -70c-43 0 -72 33 -72 75c0 74 54 138 118 180z
" />
    <glyph glyph-name="quotedblright" unicode="&#x201d;" horiz-adv-x="371" 
d="M228 510l-49 21c24 33 45 69 57 105c-18 12 -34 33 -34 58c0 43 30 71 72 71c43 0 71 -33 71 -74c0 -75 -52 -139 -117 -181zM52 510l-49 21c24 33 45 69 57 105c-18 12 -34 33 -34 58c0 43 30 71 71 71c44 0 72 -33 72 -74c0 -75 -53 -139 -117 -181z" />
    <glyph glyph-name="quotesinglbase" unicode="&#x201a;" horiz-adv-x="195" 
d="M52 -127l-49 22c24 33 45 68 57 104c-18 13 -34 33 -34 59c0 43 30 71 71 71c44 0 72 -34 72 -75c0 -74 -53 -138 -117 -181z" />
    <glyph glyph-name="quotedblbase" unicode="&#x201e;" horiz-adv-x="371" 
d="M228 -127l-49 22c24 33 45 68 57 104c-18 13 -34 33 -34 59c0 43 30 71 72 71c43 0 71 -34 71 -75c0 -74 -52 -138 -117 -181zM52 -127l-49 22c24 33 45 68 57 104c-18 13 -34 33 -34 59c0 43 30 71 71 71c44 0 72 -34 72 -75c0 -74 -53 -138 -117 -181z" />
    <glyph glyph-name="guilsinglleft" unicode="&#x2039;" horiz-adv-x="249" 
d="M170 46l-160 184l165 227l54 -25l-83 -162l93 -184z" />
    <glyph glyph-name="guilsinglright" unicode="&#x203a;" horiz-adv-x="249" 
d="M74 44l-54 25l84 162l-94 184l70 40l159 -184z" />
    <glyph glyph-name="guillemotleft" unicode="&#xab;" horiz-adv-x="438" 
d="M358 46l-159 184l165 227l54 -25l-84 -162l94 -184zM170 46l-160 184l165 227l54 -25l-83 -162l93 -184z" />
    <glyph glyph-name="guillemotright" unicode="&#xbb;" horiz-adv-x="438" 
d="M263 44l-54 25l83 162l-93 184l69 40l160 -184zM74 44l-54 25l84 162l-94 184l70 40l159 -184z" />
    <glyph glyph-name="endash" unicode="&#x2013;" 
d="M0 201v115h500v-115h-500z" />
    <glyph glyph-name="emdash" unicode="&#x2014;" horiz-adv-x="1000" 
d="M0 201v115h1000v-115h-1000z" />
    <glyph glyph-name="uni02C9" unicode="&#x2c9;" 
d="M92 574v80h317v-80h-317z" />
    <glyph glyph-name="bullet" unicode="&#x2022;" horiz-adv-x="587" 
d="M457 340c0 -90 -73 -164 -164 -164c-90 0 -164 74 -164 164c0 91 74 164 164 164c91 0 164 -73 164 -164z" />
    <glyph glyph-name="periodcentered" unicode="&#xb7;" horiz-adv-x="293" 
d="M241 279c0 -61 -50 -92 -98 -92c-51 0 -90 31 -90 80c0 60 51 91 100 91c50 0 88 -28 88 -79z" />
    <glyph glyph-name="uni2219" unicode="&#x2219;" horiz-adv-x="293" 
d="M241 279c0 -61 -50 -92 -98 -92c-51 0 -90 31 -90 80c0 60 51 91 100 91c50 0 88 -28 88 -79z" />
    <glyph glyph-name="dagger" unicode="&#x2020;" horiz-adv-x="587" 
d="M229 -184v601h-162v114h162v197h129v-197h161v-114h-161v-601h-129z" />
    <glyph glyph-name="daggerdbl" unicode="&#x2021;" horiz-adv-x="587" 
d="M229 -184v197h-162v114h162v290h-162v114h162v197h129v-197h161v-114h-161v-290h161v-114h-161v-197h-129z" />
    <glyph glyph-name="section" unicode="&#xa7;" horiz-adv-x="587" 
d="M416 -64l-49 -28c-37 -20 -67 -36 -115 -36c-62 0 -118 21 -167 54l62 125c44 -38 107 -69 167 -69c20 0 33 33 33 54c0 55 -44 75 -99 91c-107 32 -204 67 -204 169c0 62 45 108 89 140c-31 27 -45 63 -45 100c0 57 27 111 82 143l49 29c37 20 66 35 115 35
c62 0 117 -21 166 -54l-59 -124c-35 29 -120 69 -170 68c-17 0 -32 -30 -32 -53c0 -62 59 -81 124 -103c88 -29 180 -59 180 -159c0 -59 -43 -110 -90 -139c26 -21 45 -53 45 -100c0 -55 -29 -111 -82 -143zM392 278c0 71 -103 78 -179 104c-10 -11 -19 -28 -19 -44
c0 -70 108 -79 178 -106c10 10 20 26 20 46z" />
    <glyph glyph-name="paragraph" unicode="&#xb6;" horiz-adv-x="602" 
d="M189 -107v409c-106 13 -180 94 -180 198c0 69 35 141 94 173l70 37c25 13 74 18 106 18h320l-29 -102h-40v-733h-129v733h-83v-733h-129zM189 426v191c-17 -3 -33 -10 -42 -19c-17 -16 -27 -41 -27 -68c0 -49 23 -90 69 -104z" />
    <glyph glyph-name="brokenbar" unicode="&#xa6;" 
d="M185 403v333h129v-333h-129zM185 -97v333h129v-333h-129z" />
    <glyph glyph-name="copyright" unicode="&#xa9;" horiz-adv-x="813" 
d="M603 45l-15 -8c-60 -33 -118 -50 -188 -50c-208 0 -376 166 -376 373c0 138 75 260 187 325l16 9c55 32 120 49 187 49c208 0 374 -167 374 -374c0 -138 -73 -262 -185 -324zM718 360c0 177 -142 320 -318 320c-57 0 -109 -14 -154 -40c-92 -52 -152 -153 -152 -271
c0 -177 142 -321 320 -321c56 0 108 14 152 40c92 53 152 154 152 272zM586 269l9 -59c-23 -14 -39 -21 -63 -32c-34 -15 -72 -22 -114 -22c-123 0 -219 86 -219 194c0 70 42 132 105 167l54 30c31 17 71 25 113 25c43 0 74 -6 109 -20l-35 -99c-34 21 -77 37 -127 37
c-13 0 -33 -1 -44 -8c-35 -22 -52 -63 -52 -104c0 -77 68 -139 154 -139c44 0 71 10 110 30z" />
    <glyph glyph-name="registered" unicode="&#xae;" horiz-adv-x="813" 
d="M603 45l-15 -8c-60 -33 -118 -50 -188 -50c-208 0 -376 166 -376 373c0 138 75 260 187 325l16 9c55 32 120 49 187 49c208 0 374 -167 374 -374c0 -138 -73 -262 -185 -324zM718 360c0 177 -142 320 -318 320c-57 0 -109 -14 -154 -40c-92 -52 -152 -153 -152 -271
c0 -177 142 -321 320 -321c56 0 108 14 152 40c92 53 152 154 152 272zM251 164v356l-28 44h218c76 0 134 -50 134 -115c0 -39 -21 -77 -56 -98c-8 -5 -15 -7 -22 -9l119 -178h-135l-95 150h-16v-150h-119zM370 388h56c6 0 11 1 15 3c8 7 12 19 12 30c0 35 -27 62 -61 62
h-22v-95z" />
    <glyph glyph-name="trademark" unicode="&#x2122;" horiz-adv-x="908" 
d="M124 328v317h-125l34 83h338l-34 -83h-93v-317h-120zM417 328v351l-37 49h145l124 -160l124 160h103v-400h-119v227l-97 -125h-53l-97 125v-227h-93z" />
    <glyph glyph-name="currency" unicode="&#xa4;" horiz-adv-x="587" 
d="M131 117l-63 62l52 53c-21 31 -33 70 -33 110c0 41 12 80 33 111l-52 52l63 63l52 -52c32 21 69 32 110 32c42 0 80 -11 112 -32l53 53l61 -64l-52 -52c21 -31 33 -70 33 -111c0 -40 -12 -79 -33 -110l52 -52l-61 -64l-53 53c-32 -21 -70 -33 -112 -33
c-41 0 -78 12 -110 33zM413 342c0 66 -53 120 -120 120c-65 0 -118 -54 -118 -120c0 -65 53 -119 118 -119c67 0 120 54 120 119z" />
    <glyph glyph-name="Euro" unicode="&#x20ac;" horiz-adv-x="587" 
d="M566 142l14 -84c-69 -46 -123 -73 -225 -73c-169 0 -254 116 -280 257h-85v85h76c0 5 -1 10 -1 16c0 21 2 42 4 65h-79v85h98c21 71 60 135 123 174c19 12 55 34 74 43c42 21 82 33 129 33c54 0 104 -11 152 -32l-45 -150c-57 43 -101 62 -173 62c-27 0 -44 -13 -60 -35
c-21 -27 -33 -61 -40 -95h224v-85h-236c0 -8 -1 -15 -1 -23c0 -18 1 -37 3 -58h185v-85h-164c22 -73 72 -137 156 -137c59 0 107 14 151 37z" />
    <glyph glyph-name="cent" unicode="&#xa2;" horiz-adv-x="587" 
d="M298 153v66c-140 3 -246 110 -246 241c0 88 48 166 121 208l70 40c17 10 35 18 55 24v77h87v-66c44 -2 81 -13 117 -30l-48 -128c-45 30 -92 46 -144 46c-17 0 -36 -1 -49 -11c-36 -26 -50 -71 -50 -120c0 -93 74 -171 168 -171c42 0 82 8 124 28l8 -72
c-40 -26 -81 -46 -126 -57v-75h-87z" />
    <glyph glyph-name="sterling" unicode="&#xa3;" horiz-adv-x="587" 
d="M49 -9l-24 72l30 17c20 12 20 10 31 20c35 30 51 69 51 119c0 23 -5 45 -14 67h-92v84h50c-21 42 -42 83 -42 129c0 73 38 136 100 172l73 43c32 17 70 29 112 29c83 0 151 -28 212 -68l-70 -130c-58 45 -127 83 -203 85c-8 0 -17 -1 -25 -5c-19 -18 -34 -50 -34 -82
c0 -58 39 -113 66 -173h180v-84h-159c3 -17 3 -33 2 -48c-8 -47 -31 -85 -63 -112c14 3 29 3 47 2c43 0 79 -20 117 -20c50 0 88 34 127 67l47 -77c-34 -29 -69 -55 -115 -81c-32 -17 -67 -31 -110 -31c-59 0 -123 28 -182 28c-32 0 -50 -3 -112 -23z" />
    <glyph glyph-name="florin" unicode="&#x192;" horiz-adv-x="587" 
d="M2 -161v119c24 -4 55 -8 83 -8c20 0 47 2 63 9c21 24 28 58 36 99l59 332h-111v111h133l15 69c12 52 44 86 75 105l23 14c38 21 109 44 154 44c19 0 36 -3 52 -5v-109c-5 0 -29 1 -48 1c-27 0 -73 0 -100 -3c-11 -17 -18 -38 -23 -63l-10 -53h140v-111h-158l-52 -306
c-15 -85 -46 -155 -105 -189l-70 -41c-26 -14 -59 -23 -101 -23c-15 0 -34 2 -55 8z" />
    <glyph glyph-name="yen" unicode="&#xa5;" horiz-adv-x="587" 
d="M212 0v177h-173v116h173l-44 80h-129v116h70l-126 239h185l146 -275l109 209l-25 66h206l-126 -239h66v-116h-124l-43 -80h167v-116h-167v-177h-165z" />
    <glyph glyph-name="ordfeminine" unicode="&#xaa;" horiz-adv-x="337" 
d="M307 420h-38c-32 0 -60 9 -72 32c-10 -5 -25 -13 -35 -18l-7 -5c-16 -9 -34 -13 -51 -13c-50 0 -91 30 -91 80c0 35 17 59 45 75l52 29c19 10 47 17 76 21v6c-5 20 -29 27 -52 27c-27 0 -55 -9 -80 -21l-19 45c18 12 37 22 52 30c29 13 69 26 109 26
c56 0 103 -26 103 -88v-115c0 -25 11 -35 37 -35h2zM187 499v64c-20 1 -42 0 -60 -5c-5 -6 -8 -15 -7 -23c0 -27 22 -47 49 -47c5 0 14 5 18 11zM13 290v71h310v-71h-310z" />
    <glyph glyph-name="ordmasculine" unicode="&#xba;" horiz-adv-x="384" 
d="M298 465l-52 -29c-24 -13 -52 -20 -80 -20c-79 0 -154 53 -154 144c0 58 31 101 74 125l51 29c24 13 52 20 80 20c80 0 154 -55 154 -145c0 -58 -30 -101 -73 -124zM217 496c18 0 35 30 35 64c0 51 -34 94 -86 94c-22 0 -36 -38 -36 -65c0 -51 34 -93 87 -93zM32 290v71
h319v-71h-319z" />
    <glyph glyph-name="onesuperior" unicode="&#xb9;" horiz-adv-x="381" 
d="M166 448v280l-91 -48l-42 66l192 103h60v-401h-119z" />
    <glyph glyph-name="twosuperior" unicode="&#xb2;" horiz-adv-x="381" 
d="M27 448v45l135 123c37 34 63 63 63 104c0 34 -33 57 -69 57c-41 0 -66 -17 -102 -36l-31 49c22 15 45 29 73 42c34 16 72 25 107 25c83 0 146 -40 146 -115c0 -56 -27 -96 -78 -138l-94 -74l190 3l-36 -85h-304z" />
    <glyph glyph-name="threesuperior" unicode="&#xb3;" horiz-adv-x="381" 
d="M292 486l-54 -27c-22 -12 -50 -19 -84 -19c-50 0 -84 11 -125 34l42 95c47 -37 88 -54 129 -54c6 0 11 2 16 4c9 9 13 23 13 36c0 35 -33 61 -75 61h-37c22 77 0 1 22 77h53c12 0 22 17 22 27c0 36 -29 57 -66 57c-33 0 -61 -12 -89 -26l-22 53c20 12 43 23 69 34
c37 13 64 19 103 19c74 0 125 -47 125 -104c0 -36 -20 -61 -51 -81c42 -18 69 -54 69 -95c0 -38 -22 -72 -60 -91z" />
    <glyph glyph-name="fraction" unicode="&#x2044;" horiz-adv-x="77" 
d="M-212 -30l413 788h88l-413 -788h-88z" />
    <glyph glyph-name="uni2215" unicode="&#x2215;" horiz-adv-x="77" 
d="M-212 -30l413 788h88l-413 -788h-88z" />
    <glyph glyph-name="onehalf" unicode="&#xbd;" horiz-adv-x="839" 
d="M166 334v280l-91 -48l-42 66l192 103h60v-401h-119zM169 -30l413 788h88l-413 -788h-88zM485 0v45l135 123c37 34 63 63 63 104c0 34 -33 57 -69 57c-41 0 -66 -17 -102 -36l-31 49c22 15 45 29 73 42c34 16 72 25 107 25c83 0 146 -40 146 -115c0 -56 -27 -96 -78 -138
l-94 -74l190 3l-36 -85h-304z" />
    <glyph glyph-name="onethird" unicode="&#x2153;" horiz-adv-x="839" 
d="M166 334v280l-91 -48l-42 66l192 103h60v-401h-119zM169 -30l413 788h88l-413 -788h-88zM750 38l-54 -27c-22 -12 -50 -19 -84 -19c-50 0 -84 11 -125 34l42 95c47 -37 88 -54 129 -54c6 0 11 2 16 4c9 9 13 23 13 36c0 35 -33 61 -75 61h-37l22 77h53c12 0 22 17 22 27
c0 36 -29 57 -66 57c-33 0 -61 -12 -89 -26l-22 53c20 12 43 23 69 34c37 13 64 19 103 19c74 0 125 -47 125 -104c0 -36 -20 -61 -51 -81c42 -18 69 -54 69 -95c0 -38 -22 -72 -60 -91z" />
    <glyph glyph-name="onequarter" unicode="&#xbc;" horiz-adv-x="839" 
d="M166 334v280l-91 -48l-42 66l192 103h60v-401h-119zM169 -30l413 788h88l-413 -788h-88zM669 0v79h-203v43l206 279h115l-193 -242h75v57l118 19v-76h43v-80h-43v-79h-118z" />
    <glyph glyph-name="oneeighth" unicode="&#x215b;" horiz-adv-x="839" 
d="M166 334v280l-91 -48l-42 66l192 103h60v-401h-119zM169 -30l413 788h88l-413 -788h-88zM752 38l-53 -29c-22 -11 -48 -17 -76 -17c-80 0 -140 47 -140 111c0 35 21 66 54 84c5 2 11 6 15 8c-35 14 -59 44 -59 81c0 38 22 69 58 88l52 28c21 10 46 17 72 17
c72 0 129 -46 129 -104c0 -35 -18 -63 -47 -78c-3 -2 -7 -4 -10 -5c41 -16 67 -51 67 -90c0 -42 -25 -75 -62 -94zM699 107c0 34 -35 62 -75 62c-13 0 -25 -12 -25 -33c0 -35 34 -64 75 -64c14 0 24 18 25 35zM698 272c0 25 -25 58 -74 58c-16 0 -22 -14 -22 -28
c0 -21 20 -59 74 -59c13 0 22 15 22 29z" />
    <glyph glyph-name="twothirds" unicode="&#x2154;" horiz-adv-x="839" 
d="M27 334v45l135 123c37 34 63 63 63 104c0 34 -33 57 -69 57c-41 0 -66 -17 -102 -36l-31 49c22 15 45 29 73 42c34 16 72 25 107 25c83 0 146 -40 146 -115c0 -56 -27 -96 -78 -138l-94 -74l190 3l-36 -85h-304zM169 -30l413 788h88l-413 -788h-88zM750 38l-54 -27
c-22 -12 -50 -19 -84 -19c-50 0 -84 11 -125 34l42 95c47 -37 88 -54 129 -54c6 0 11 2 16 4c9 9 13 23 13 36c0 35 -33 61 -75 61h-37l22 77h53c12 0 22 17 22 27c0 36 -29 57 -66 57c-33 0 -61 -12 -89 -26l-22 53c20 12 43 23 69 34c37 13 64 19 103 19
c74 0 125 -47 125 -104c0 -36 -20 -61 -51 -81c42 -18 69 -54 69 -95c0 -38 -22 -72 -60 -91z" />
    <glyph glyph-name="threequarters" unicode="&#xbe;" horiz-adv-x="839" 
d="M292 372l-54 -27c-22 -12 -50 -19 -84 -19c-50 0 -84 11 -125 34l42 95c47 -37 88 -54 129 -54c6 0 11 2 16 4c9 9 13 23 13 36c0 35 -33 61 -75 61h-37l22 77h53c12 0 22 17 22 27c0 36 -29 57 -66 57c-33 0 -61 -12 -89 -26l-22 53c20 12 43 23 69 34
c37 13 64 19 103 19c74 0 125 -47 125 -104c0 -36 -20 -61 -51 -81c42 -18 69 -54 69 -95c0 -38 -22 -72 -60 -91zM169 -30l413 788h88l-413 -788h-88zM669 0v79h-203v43l206 279h115l-193 -242h75v57l118 19v-76h43v-80h-43v-79h-118z" />
    <glyph glyph-name="threeeighths" unicode="&#x215c;" horiz-adv-x="839" 
d="M292 372l-54 -27c-22 -12 -50 -19 -84 -19c-50 0 -84 11 -125 34l42 95c47 -37 88 -54 129 -54c6 0 11 2 16 4c9 9 13 23 13 36c0 35 -33 61 -75 61h-37l22 77h53c12 0 22 17 22 27c0 36 -29 57 -66 57c-33 0 -61 -12 -89 -26l-22 53c20 12 43 23 69 34
c37 13 64 19 103 19c74 0 125 -47 125 -104c0 -36 -20 -61 -51 -81c42 -18 69 -54 69 -95c0 -38 -22 -72 -60 -91zM169 -30l413 788h88l-413 -788h-88zM752 38l-53 -29c-22 -11 -48 -17 -76 -17c-80 0 -140 47 -140 111c0 35 21 66 54 84c5 2 11 6 15 8
c-35 14 -59 44 -59 81c0 38 22 69 58 88l52 28c21 10 46 17 72 17c72 0 129 -46 129 -104c0 -35 -18 -63 -47 -78c-3 -2 -7 -4 -10 -5c41 -16 67 -51 67 -90c0 -42 -25 -75 -62 -94zM699 107c0 34 -35 62 -75 62c-13 0 -25 -12 -25 -33c0 -35 34 -64 75 -64
c14 0 24 18 25 35zM698 272c0 25 -25 58 -74 58c-16 0 -22 -14 -22 -28c0 -21 20 -59 74 -59c13 0 22 15 22 29z" />
    <glyph glyph-name="fiveeighths" unicode="&#x215d;" horiz-adv-x="839" 
d="M295 373l-53 -28c-25 -13 -58 -19 -90 -19c-47 0 -93 13 -133 34l55 92c48 -30 89 -46 130 -46c22 0 34 23 34 48c0 41 -32 77 -76 77c-22 0 -44 -7 -63 -18l-59 15l35 207h275l-35 -85l-161 3l-12 -64c23 7 47 11 72 11c85 0 147 -48 147 -121c0 -46 -24 -86 -66 -106z
M169 -30l413 788h88l-413 -788h-88zM752 38l-53 -29c-22 -11 -48 -17 -76 -17c-80 0 -140 47 -140 111c0 35 21 66 54 84c5 2 11 6 15 8c-35 14 -59 44 -59 81c0 38 22 69 58 88l52 28c21 10 46 17 72 17c72 0 129 -46 129 -104c0 -35 -18 -63 -47 -78c-3 -2 -7 -4 -10 -5
c41 -16 67 -51 67 -90c0 -42 -25 -75 -62 -94zM699 107c0 34 -35 62 -75 62c-13 0 -25 -12 -25 -33c0 -35 34 -64 75 -64c14 0 24 18 25 35zM698 272c0 25 -25 58 -74 58c-16 0 -22 -14 -22 -28c0 -21 20 -59 74 -59c13 0 22 15 22 29z" />
    <glyph glyph-name="seveneighths" unicode="&#x215e;" horiz-adv-x="839" 
d="M84 334l156 319l-232 -3l35 85h316v-46l-158 -355h-117zM169 -30l413 788h88l-413 -788h-88zM752 38l-53 -29c-22 -11 -48 -17 -76 -17c-80 0 -140 47 -140 111c0 35 21 66 54 84c5 2 11 6 15 8c-35 14 -59 44 -59 81c0 38 22 69 58 88l52 28c21 10 46 17 72 17
c72 0 129 -46 129 -104c0 -35 -18 -63 -47 -78c-3 -2 -7 -4 -10 -5c41 -16 67 -51 67 -90c0 -42 -25 -75 -62 -94zM699 107c0 34 -35 62 -75 62c-13 0 -25 -12 -25 -33c0 -35 34 -64 75 -64c14 0 24 18 25 35zM698 272c0 25 -25 58 -74 58c-16 0 -22 -14 -22 -28
c0 -21 20 -59 74 -59c13 0 22 15 22 29z" />
    <glyph glyph-name="perthousand" unicode="&#x2030;" horiz-adv-x="1220" 
d="M285 369l-53 -28c-20 -9 -42 -15 -69 -15c-110 0 -151 94 -151 194c0 76 23 148 82 179l54 28c19 10 42 16 69 16c111 0 152 -95 152 -195c0 -76 -23 -149 -84 -179zM247 520c0 70 -16 143 -78 143c-7 0 -13 -11 -17 -18c-12 -27 -17 -63 -17 -97c0 -73 19 -142 80 -142
c7 0 13 11 17 19c11 25 15 62 15 95zM169 -30l413 788h88l-413 -788h-88zM743 35l-53 -28c-20 -9 -42 -15 -69 -15c-110 0 -151 94 -151 194c0 76 23 148 82 179l54 28c19 10 42 16 69 16c111 0 152 -95 152 -195c0 -76 -23 -149 -84 -179zM705 186c0 70 -16 143 -78 143
c-7 0 -13 -11 -17 -18c-12 -27 -17 -63 -17 -97c0 -73 19 -142 80 -142c7 0 13 11 17 19c11 25 15 62 15 95zM1124 35l-53 -28c-20 -9 -42 -15 -69 -15c-110 0 -151 94 -151 194c0 76 23 148 82 179l54 28c19 10 42 16 69 16c111 0 152 -95 152 -195
c0 -76 -23 -149 -84 -179zM1086 186c0 70 -16 143 -78 143c-7 0 -13 -11 -17 -18c-12 -27 -17 -63 -17 -97c0 -73 19 -142 80 -142c7 0 13 11 17 19c11 25 15 62 15 95z" />
    <glyph glyph-name="minus" unicode="&#x2212;" horiz-adv-x="556" 
d="M30 194v112h496v-112h-496z" />
    <glyph glyph-name="plusminus" unicode="&#xb1;" horiz-adv-x="556" 
d="M222 132v141h-192v110h192v144h112v-144h192v-110h-192v-141h-112zM30 -27v111h496v-111h-496z" />
    <glyph glyph-name="multiply" unicode="&#xd7;" horiz-adv-x="556" 
d="M112 7l-77 77l167 166l-167 166l77 77l166 -167l166 167l77 -77l-167 -166l167 -166l-77 -77l-166 167z" />
    <glyph glyph-name="divide" unicode="&#xf7;" horiz-adv-x="556" 
d="M349 429c0 -38 -32 -70 -71 -70c-40 0 -71 31 -71 70c0 40 32 71 71 71c38 0 71 -32 71 -71zM30 202v96h496v-96h-496zM349 71c0 -39 -32 -71 -71 -71c-40 0 -71 32 -71 71c0 40 32 70 71 70c38 0 71 -31 71 -70z" />
    <glyph glyph-name="notequal" unicode="&#x2260;" horiz-adv-x="593" 
d="M158 -41l-90 54l53 82h-91v110h152l62 91h-214v108h277l90 137l88 -54l-53 -83h94v-108h-155l-63 -91h218v-110h-279z" />
    <glyph glyph-name="approxequal" unicode="&#x2248;" horiz-adv-x="556" 
d="M86 273h-72c6 74 54 179 141 179c80 0 165 -67 248 -67c40 0 59 30 66 64h73c-9 -75 -50 -179 -141 -179c-74 0 -171 67 -249 67c-37 0 -59 -30 -66 -64zM86 51h-72c6 74 54 179 141 179c80 0 166 -66 248 -66c40 0 59 29 66 63h73c-9 -75 -50 -178 -141 -178
c-75 0 -173 66 -249 66c-37 0 -59 -29 -66 -64z" />
    <glyph glyph-name="lessequal" unicode="&#x2264;" horiz-adv-x="593" 
d="M30 -27v110h496v-110h-496zM526 121l-496 156v104c165 52 331 104 496 157v-114l-322 -95c108 -32 214 -63 322 -94v-114z" />
    <glyph glyph-name="greaterequal" unicode="&#x2265;" horiz-adv-x="593" 
d="M30 -27v110h496v-110h-496zM30 121v114c108 31 214 62 322 94l-322 95v114c165 -53 331 -105 496 -157v-104z" />
    <glyph glyph-name="logicalnot" unicode="&#xac;" horiz-adv-x="556" 
d="M414 86v164h-384v109h496v-273h-112z" />
    <glyph glyph-name="Delta" unicode="&#x2206;" horiz-adv-x="686" 
d="M12 0l261 712h122l279 -712h-662zM166 107h348l-178 473z" />
    <glyph glyph-name="uni0394" unicode="&#x394;" horiz-adv-x="726" 
d="M9 0v65l265 597l-30 66h179l293 -663v-65h-707zM343 505l-169 -384h337z" />
    <glyph glyph-name="Omega" unicode="&#x2126;" horiz-adv-x="760" 
d="M54 0v104h182v51c-122 32 -182 139 -182 260c0 188 149 306 329 306c178 0 322 -121 322 -305c0 -118 -61 -232 -181 -260v-52h181v-104h-274v199c101 19 149 107 149 204c0 116 -78 213 -198 213c-121 0 -202 -101 -202 -217c0 -96 49 -184 149 -200v-199h-275z" />
    <glyph glyph-name="uni03A9" unicode="&#x3a9;" horiz-adv-x="833" 
d="M763 0h-290v61c87 92 150 201 150 324c0 143 -101 242 -241 242c-29 0 -64 -3 -82 -16c-58 -49 -90 -123 -90 -207c0 -132 52 -238 150 -343v-61h-290l-46 125h145c-73 74 -125 172 -125 267c0 116 65 213 164 269l70 39c50 27 109 43 174 43c193 0 337 -132 337 -318
c0 -109 -48 -220 -126 -300h147z" />
    <glyph glyph-name="mu" unicode="&#xb5;" horiz-adv-x="566" 
d="M50 -194v596l-35 61l190 50v-318c0 -61 43 -95 98 -95c11 0 25 2 37 7c7 5 14 10 20 17v278l-35 61l189 50v-513h-150v51c-14 -10 -32 -21 -56 -35c-23 -13 -56 -24 -71 -24c-12 0 -23 3 -32 8v-194h-155z" />
    <glyph glyph-name="uni03BC" unicode="&#x3bc;" horiz-adv-x="566" 
d="M50 -194v596l-35 61l190 50v-318c0 -61 43 -95 98 -95c11 0 25 2 37 7c7 5 13 10 20 17v348l154 41v-513h-150v51c-17 -12 -36 -23 -56 -35c-23 -13 -56 -24 -71 -24c-12 0 -23 3 -32 8v-194h-155z" />
    <glyph glyph-name="pi" unicode="&#x3c0;" horiz-adv-x="557" 
d="M53 0v442l-36 59h487v-501h-155v389h-142v-389h-154z" />
    <glyph glyph-name="degree" unicode="&#xb0;" horiz-adv-x="442" 
d="M335 447l-69 -41c-24 -13 -50 -19 -78 -19c-85 0 -154 67 -154 153c0 57 30 106 76 133l70 40c22 13 49 21 78 21c84 0 153 -68 153 -153c0 -57 -30 -108 -76 -134zM251 483c20 0 34 33 34 57c0 46 -35 97 -92 97c-22 0 -33 -33 -33 -56c0 -47 35 -98 91 -98z" />
    <glyph glyph-name="afii61289" unicode="&#x2113;" 
d="M405 106l40 -58c-48 -41 -98 -62 -155 -62c-93 0 -149 54 -149 139v70l-59 -53l-40 59l98 86v247c0 111 67 187 160 187c81 0 134 -55 134 -141c0 -101 -61 -201 -183 -311v-126c0 -58 35 -75 66 -75c26 0 56 13 88 38zM251 554v-190c63 70 93 144 93 209
c0 42 -19 73 -45 73s-48 -32 -48 -92z" />
    <glyph glyph-name="estimated" unicode="&#x212e;" horiz-adv-x="600" 
d="M174 431v-126h259v125c-36 31 -80 46 -130 46s-94 -15 -129 -45zM174 249v-159c35 -32 78 -48 130 -48c75 0 134 32 180 94l46 -38c-62 -80 -128 -112 -228 -112c-158 0 -261 120 -261 273s103 273 261 273c162 0 257 -117 259 -283h-387z" />
    <glyph glyph-name="infinity" unicode="&#x221e;" horiz-adv-x="834" 
d="M787 265c0 -107 -65 -190 -176 -190c-85 0 -142 56 -194 116c-52 -60 -104 -115 -190 -115c-112 0 -180 80 -180 189c0 106 66 184 176 184c86 0 143 -59 194 -121c50 64 108 121 195 121c109 0 175 -78 175 -184zM692 263c0 49 -32 88 -83 88c-52 0 -104 -53 -135 -90
c33 -39 80 -87 135 -87c54 0 83 38 83 89zM360 261c-32 37 -85 90 -137 90c-50 0 -80 -42 -80 -89c0 -50 30 -87 82 -87c57 0 101 46 135 86z" />
    <glyph glyph-name="partialdiff" unicode="&#x2202;" horiz-adv-x="544" 
d="M128 582l-60 68c53 45 105 71 177 71c199 0 258 -192 258 -358c0 -160 -43 -377 -245 -377c-132 0 -219 103 -219 233c0 122 84 224 211 224c53 0 104 -25 141 -62c0 9 1 19 1 28c0 88 -30 227 -144 227c-49 0 -85 -23 -120 -54zM389 294c-30 35 -74 65 -123 65
c-81 0 -120 -74 -120 -145c0 -67 37 -145 113 -145c103 0 133 146 130 225z" />
    <glyph glyph-name="integral" unicode="&#x222b;" horiz-adv-x="602" 
d="M240 51v427c0 132 7 308 162 308c46 0 108 -23 108 -78c0 -33 -24 -56 -56 -56c-71 0 -40 80 -71 80c-24 0 -27 -40 -28 -56c-1 -58 4 -120 5 -180v-386c0 -148 -1 -325 -162 -325c-45 0 -107 24 -107 78c0 33 23 56 56 56c71 0 43 -79 72 -79c20 0 24 30 25 54
c1 47 -4 113 -4 157z" />
    <glyph glyph-name="radical" unicode="&#x221a;" horiz-adv-x="556" 
d="M242 -216l-156 319l-53 -25l-41 87l152 71l129 -278l174 826h117l-223 -1000h-99z" />
    <glyph glyph-name="summation" unicode="&#x2211;" horiz-adv-x="668" 
d="M34 -214v97l304 410l-291 395v98h574v-111h-427l276 -382l-291 -396h454v-111h-599z" />
    <glyph glyph-name="product" unicode="&#x220f;" horiz-adv-x="741" 
d="M62 -214v1000h616v-1000h-111v890h-393v-890h-112z" />
    <glyph glyph-name="lozenge" unicode="&#x25ca;" horiz-adv-x="556" 
d="M228 -35l-187 391l188 391h97l188 -391l-188 -391h-98zM278 84l120 272l-120 272l-121 -272z" />
    <glyph glyph-name="uniF8FF" unicode="&#xf8ff;" horiz-adv-x="485" 
d="M210 111v63h53v-63h-53zM211 222v16c0 68 12 90 57 131c40 38 46 57 46 80c0 45 -33 80 -72 80c-38 0 -70 -25 -77 -90c-16 3 -32 5 -48 8c9 91 60 130 128 130c69 0 118 -49 118 -124c0 -41 -12 -69 -60 -113c-50 -45 -46 -51 -46 -118h-46zM47 47h391v585h-391v-585z
M0 0v680h485v-680h-485z" />
    <glyph glyph-name="zero.onum" unicode="&#xe100;" horiz-adv-x="587" 
d="M439 41l-73 -34c-32 -14 -67 -22 -109 -22c-179 0 -245 142 -245 291c0 114 38 224 134 269l74 36c31 14 67 22 110 22c179 0 245 -143 245 -292c0 -114 -38 -225 -136 -270zM405 278c0 100 -30 205 -142 205c-15 0 -28 -12 -37 -22c-33 -36 -44 -95 -44 -152
c0 -105 34 -204 145 -204c16 0 28 12 37 23c31 34 41 93 41 150z" />
    <glyph glyph-name="one.onum" unicode="&#xe101;" horiz-adv-x="587" 
d="M269 0v407l-161 -98l-59 100l301 179h84v-588h-165z" />
    <glyph glyph-name="two.onum" unicode="&#xe102;" horiz-adv-x="587" 
d="M38 0v69l226 166c60 46 106 89 106 150c0 67 -49 99 -119 99c-63 0 -119 -32 -175 -69l-43 74c33 24 68 49 111 72c53 28 112 42 167 42c131 0 230 -68 230 -190c0 -103 -50 -156 -125 -205l-130 -84l278 3l-48 -127h-478z" />
    <glyph glyph-name="three.onum" unicode="&#xe103;" horiz-adv-x="587" 
d="M447 -80l-73 -42c-37 -20 -81 -33 -133 -33c-77 0 -135 20 -199 65l58 143c73 -66 138 -95 204 -95c16 0 28 1 38 9c23 22 33 53 33 85c0 72 -59 127 -132 127h-60l32 115h95c28 0 43 40 43 72c0 73 -54 117 -121 117c-55 0 -100 -24 -146 -52l-32 78c30 20 63 40 104 59
c56 25 100 35 159 35c118 0 201 -82 201 -187c0 -71 -35 -119 -91 -154c70 -31 117 -99 117 -177c0 -71 -36 -131 -97 -165z" />
    <glyph glyph-name="four.onum" unicode="&#xe104;" horiz-adv-x="587" 
d="M345 -140v150h-340v65l344 513h159l-325 -458v-1h162v158h163v-158h71v-119h-71v-150h-163z" />
    <glyph glyph-name="five.onum" unicode="&#xe105;" horiz-adv-x="587" 
d="M454 -79l-74 -42c-39 -22 -90 -34 -140 -34c-77 0 -150 23 -214 64l74 138c76 -55 143 -82 212 -82c13 0 31 2 40 9c27 26 40 63 40 104c0 82 -59 155 -139 155c-41 0 -80 -14 -115 -37l-82 22l56 370h432l-48 -127l-274 4l-24 -155c42 18 83 27 127 27
c136 0 237 -91 237 -222c0 -83 -40 -156 -108 -194z" />
    <glyph glyph-name="six.onum" unicode="&#xe106;" horiz-adv-x="587" 
d="M457 52l-74 -41c-32 -19 -77 -26 -124 -26c-137 0 -243 110 -243 245c0 59 16 119 45 179c50 104 131 209 234 319h169c-77 -88 -150 -179 -206 -268c23 10 55 17 83 17c136 0 231 -99 231 -221c0 -84 -48 -165 -115 -204zM189 258c0 -84 60 -153 148 -153
c13 0 26 2 33 9c26 25 43 64 43 103c0 86 -57 153 -150 153c-11 0 -27 -3 -37 -7c-25 -27 -37 -64 -37 -105z" />
    <glyph glyph-name="seven.onum" unicode="&#xe107;" horiz-adv-x="587" 
d="M128 -140l265 605l-383 -4l49 127h497v-68l-264 -660h-164z" />
    <glyph glyph-name="eight.onum" unicode="&#xe108;" horiz-adv-x="587" 
d="M450 58l-73 -42c-34 -20 -75 -31 -120 -31c-125 0 -222 87 -222 201c0 68 35 124 90 157c12 7 21 12 27 16c-60 25 -101 83 -101 154c0 68 36 125 94 159l72 42c32 18 71 29 112 29c116 0 207 -82 207 -188c0 -63 -32 -116 -80 -145c-8 -4 -14 -8 -21 -12
c69 -27 117 -93 117 -170c0 -74 -41 -135 -102 -170zM377 509c0 58 -46 117 -122 117c-26 0 -43 -40 -43 -75c0 -55 42 -117 120 -117c23 0 45 36 45 75zM382 190c0 71 -54 126 -125 126c-11 0 -21 -10 -28 -18c-15 -17 -24 -40 -24 -66c0 -69 53 -127 124 -127
c13 0 23 10 30 19c14 17 23 40 23 66z" />
    <glyph glyph-name="nine.onum" unicode="&#xe109;" horiz-adv-x="587" 
d="M293 -140h-171c78 88 150 179 207 268c-23 -10 -55 -17 -83 -17c-135 0 -230 99 -230 221c0 84 47 165 114 204l74 41c32 19 77 26 124 26c137 0 243 -110 243 -245c0 -59 -16 -119 -45 -179c-50 -104 -131 -209 -233 -319zM399 330c0 84 -61 153 -149 153
c-12 0 -25 -2 -33 -9c-26 -25 -43 -64 -43 -103c0 -86 58 -153 150 -153c11 0 27 3 37 7c25 27 38 64 38 105z" />
    <glyph glyph-name="zero.prop" unicode="&#xe11e;" horiz-adv-x="633" 
d="M462 54l-74 -42c-31 -17 -66 -27 -108 -27c-179 0 -245 174 -245 358c0 139 38 274 134 330l74 43c31 17 67 27 110 27c179 0 245 -175 245 -358c0 -140 -38 -275 -136 -331zM428 343c0 137 -30 280 -142 280c-15 0 -28 -17 -37 -30c-33 -50 -44 -131 -44 -208
c0 -143 34 -280 145 -280c16 0 28 17 37 32c31 48 41 128 41 206z" />
    <glyph glyph-name="one.prop" unicode="&#xe11f;" horiz-adv-x="476" 
d="M223 0v547l-160 -98l-60 100l301 179h84v-728h-165z" />
    <glyph glyph-name="two.prop" unicode="&#xe120;" horiz-adv-x="576" 
d="M32 0v67l229 240c61 64 104 121 104 196c0 73 -59 120 -128 120c-66 0 -110 -31 -167 -68l-43 74c33 24 69 49 111 71c53 29 111 43 165 43c132 0 233 -71 233 -205c0 -99 -45 -173 -124 -248l-173 -167l319 4l-48 -127h-478z" />
    <glyph glyph-name="three.prop" unicode="&#xe121;" horiz-adv-x="564" 
d="M432 60l-73 -42c-37 -20 -82 -33 -133 -33c-78 0 -135 20 -200 65l59 143c73 -66 138 -95 204 -95c16 0 28 1 37 9c24 22 33 53 33 85c0 72 -58 127 -131 127h-60l31 115h95c29 0 43 40 43 72c0 73 -53 117 -120 117c-55 0 -100 -24 -147 -52l-32 78c31 20 64 40 105 59
c56 25 100 35 158 35c119 0 202 -82 202 -187c0 -71 -36 -119 -91 -154c69 -31 117 -99 117 -177c0 -71 -36 -131 -97 -165z" />
    <glyph glyph-name="four.prop" unicode="&#xe122;" horiz-adv-x="597" 
d="M350 0v150h-340v65l344 513h159l-324 -458v-1h161v158h163v-158h71v-111h-71v-158h-163z" />
    <glyph glyph-name="five.prop" unicode="&#xe123;" horiz-adv-x="598" 
d="M454 61l-73 -42c-40 -22 -91 -34 -140 -34c-77 0 -151 23 -215 64l75 138c75 -55 143 -82 212 -82c13 0 30 2 39 9c28 26 41 63 41 104c0 82 -60 155 -139 155c-41 0 -81 -14 -116 -37l-81 22l56 370h432l-49 -127l-274 4l-23 -155c41 18 83 27 127 27
c135 0 237 -91 237 -222c0 -83 -41 -156 -109 -194z" />
    <glyph glyph-name="six.prop" unicode="&#xe124;" horiz-adv-x="625" 
d="M476 52l-74 -41c-32 -19 -77 -26 -124 -26c-137 0 -243 110 -243 245c0 59 16 119 45 179c49 104 131 209 233 319h175c-79 -88 -153 -179 -210 -268c23 10 54 17 82 17c135 0 230 -99 230 -221c0 -84 -47 -165 -114 -204zM207 258c0 -84 61 -153 149 -153
c12 0 25 2 33 9c26 25 43 64 43 103c0 86 -58 153 -150 153c-11 0 -27 -3 -37 -7c-25 -27 -38 -64 -38 -105z" />
    <glyph glyph-name="seven.prop" unicode="&#xe125;" horiz-adv-x="568" 
d="M119 0l265 605l-383 -4l49 127h497v-68l-264 -660h-164z" />
    <glyph glyph-name="eight.prop" unicode="&#xe126;" horiz-adv-x="586" 
d="M450 58l-74 -42c-34 -20 -75 -31 -119 -31c-126 0 -222 87 -222 201c0 68 35 124 90 157c11 7 20 12 27 16c-60 25 -101 83 -101 154c0 68 36 125 93 159l73 42c32 18 71 29 112 29c116 0 206 -82 206 -188c0 -63 -32 -116 -80 -145c-7 -4 -14 -8 -20 -12
c68 -27 116 -93 116 -170c0 -74 -40 -135 -101 -170zM377 509c0 58 -46 117 -122 117c-26 0 -44 -40 -44 -75c0 -55 42 -117 120 -117c24 0 46 36 46 75zM381 190c0 71 -54 126 -124 126c-11 0 -22 -10 -29 -18c-15 -17 -23 -40 -23 -66c0 -69 53 -127 124 -127
c13 0 22 10 29 19c14 17 23 40 23 66z" />
    <glyph glyph-name="nine.prop" unicode="&#xe127;" horiz-adv-x="625" 
d="M312 0h-175c79 88 152 179 210 268c-23 -10 -54 -17 -82 -17c-135 0 -230 99 -230 221c0 84 47 165 114 204l74 41c32 19 77 26 124 26c137 0 243 -110 243 -245c0 -59 -16 -119 -45 -179c-50 -104 -131 -209 -233 -319zM418 470c0 84 -61 153 -149 153
c-12 0 -25 -2 -33 -9c-26 -25 -43 -64 -43 -103c0 -86 58 -153 150 -153c11 0 27 3 37 7c25 27 38 64 38 105z" />
    <glyph glyph-name="zero.onumprop" unicode="&#xe132;" horiz-adv-x="633" 
d="M462 41l-74 -34c-31 -14 -66 -22 -108 -22c-179 0 -245 142 -245 291c0 114 38 224 134 269l74 36c31 14 67 22 110 22c179 0 245 -143 245 -292c0 -114 -38 -225 -136 -270zM428 278c0 100 -30 205 -142 205c-15 0 -28 -12 -37 -22c-33 -36 -44 -95 -44 -152
c0 -105 34 -204 145 -204c16 0 28 12 37 23c31 34 41 93 41 150z" />
    <glyph glyph-name="one.onumprop" unicode="&#xe133;" horiz-adv-x="476" 
d="M223 0v407l-160 -98l-60 100l301 179h84v-588h-165z" />
    <glyph glyph-name="two.onumprop" unicode="&#xe134;" horiz-adv-x="576" 
d="M32 0v69l226 166c60 46 107 89 107 150c0 67 -50 99 -119 99c-64 0 -119 -32 -176 -69l-43 74c33 24 69 49 111 72c53 28 112 42 167 42c132 0 231 -68 231 -190c0 -103 -51 -156 -125 -205l-131 -84l278 3l-48 -127h-478z" />
    <glyph glyph-name="three.onumprop" unicode="&#xe135;" horiz-adv-x="564" 
d="M432 -80l-73 -42c-37 -20 -82 -33 -133 -33c-78 0 -135 20 -200 65l59 143c73 -66 138 -95 204 -95c16 0 28 1 37 9c24 22 33 53 33 85c0 72 -58 127 -131 127h-60l31 115h95c29 0 43 40 43 72c0 73 -53 117 -120 117c-55 0 -100 -24 -147 -52l-32 78c31 20 64 40 105 59
c56 25 100 35 158 35c119 0 202 -82 202 -187c0 -71 -36 -119 -91 -154c69 -31 117 -99 117 -177c0 -71 -36 -131 -97 -165z" />
    <glyph glyph-name="four.onumprop" unicode="&#xe136;" horiz-adv-x="597" 
d="M350 -140v150h-340v65l344 513h159l-324 -458v-1h161v158h163v-158h71v-119h-71v-150h-163z" />
    <glyph glyph-name="five.onumprop" unicode="&#xe137;" horiz-adv-x="598" 
d="M454 -79l-73 -42c-40 -22 -91 -34 -140 -34c-77 0 -151 23 -215 64l75 138c75 -55 143 -82 212 -82c13 0 30 2 39 9c28 26 41 63 41 104c0 82 -60 155 -139 155c-41 0 -81 -14 -116 -37l-81 22l56 370h432l-49 -127l-274 4l-23 -155c41 18 83 27 127 27
c135 0 237 -91 237 -222c0 -83 -41 -156 -109 -194z" />
    <glyph glyph-name="six.onumprop" unicode="&#xe138;" horiz-adv-x="625" 
d="M476 52l-74 -41c-32 -19 -77 -26 -124 -26c-137 0 -243 110 -243 245c0 59 16 119 45 179c49 104 131 209 233 319h170c-78 -88 -151 -179 -206 -268c22 10 55 17 83 17c135 0 230 -99 230 -221c0 -84 -47 -165 -114 -204zM207 258c0 -84 61 -153 149 -153
c12 0 25 2 33 9c26 25 43 64 43 103c0 86 -58 153 -150 153c-11 0 -27 -3 -37 -7c-25 -27 -38 -64 -38 -105z" />
    <glyph glyph-name="seven.onumprop" unicode="&#xe139;" horiz-adv-x="568" 
d="M119 -140l265 605l-383 -4l49 127h497v-68l-264 -660h-164z" />
    <glyph glyph-name="eight.onumprop" unicode="&#xe13a;" horiz-adv-x="586" 
d="M450 58l-74 -42c-34 -20 -75 -31 -119 -31c-126 0 -222 87 -222 201c0 68 35 124 90 157c11 7 20 12 27 16c-60 25 -101 83 -101 154c0 68 36 125 93 159l73 42c32 18 71 29 112 29c116 0 206 -82 206 -188c0 -63 -32 -116 -80 -145c-7 -4 -14 -8 -20 -12
c68 -27 116 -93 116 -170c0 -74 -40 -135 -101 -170zM377 509c0 58 -46 117 -122 117c-26 0 -44 -40 -44 -75c0 -55 42 -117 120 -117c24 0 46 36 46 75zM381 190c0 71 -54 126 -124 126c-11 0 -22 -10 -29 -18c-15 -17 -23 -40 -23 -66c0 -69 53 -127 124 -127
c13 0 22 10 29 19c14 17 23 40 23 66z" />
    <glyph glyph-name="nine.onumprop" unicode="&#xe13b;" horiz-adv-x="625" 
d="M312 -140h-171c78 88 150 179 207 268c-23 -10 -55 -17 -83 -17c-135 0 -230 99 -230 221c0 84 47 165 114 204l74 41c32 19 77 26 124 26c137 0 243 -110 243 -245c0 -59 -16 -119 -45 -179c-50 -104 -131 -209 -233 -319zM418 330c0 84 -61 153 -149 153
c-12 0 -25 -2 -33 -9c-26 -25 -43 -64 -43 -103c0 -86 58 -153 150 -153c11 0 27 3 37 7c25 27 38 64 38 105z" />
    <glyph glyph-name="zero.sc" unicode="&#xe10a;" horiz-adv-x="511" 
d="M382 49l-70 -39c-26 -13 -55 -22 -91 -22c-150 0 -205 138 -205 285c0 110 32 217 112 262l69 39c27 14 57 22 92 22c150 0 206 -137 206 -284c0 -111 -32 -218 -113 -263zM335 273c0 103 -23 212 -108 212c-10 0 -19 -15 -24 -26c-20 -39 -27 -95 -27 -147
c0 -109 26 -212 111 -212c10 0 18 15 24 28c18 37 24 92 24 145z" />
    <glyph glyph-name="one.sc" unicode="&#xe10b;" horiz-adv-x="510" 
d="M225 0v416l-125 -72l-55 92l256 148h79v-584h-155z" />
    <glyph glyph-name="two.sc" unicode="&#xe10c;" horiz-adv-x="511" 
d="M36 0v63l184 182c50 50 86 94 86 154c0 52 -46 86 -96 86c-55 0 -90 -25 -137 -54l-41 69c29 22 60 42 96 61c46 24 96 35 144 35c111 0 195 -57 195 -165c0 -83 -37 -141 -105 -202l-130 -115l257 4l-46 -118h-407z" />
    <glyph glyph-name="three.sc" unicode="&#xe10d;" horiz-adv-x="511" 
d="M389 54l-69 -39c-31 -16 -68 -27 -113 -27c-66 0 -112 16 -167 50l55 132c62 -52 117 -77 173 -77c10 0 16 1 21 5c16 16 21 37 21 58c0 53 -45 93 -102 93h-51l29 106h84c15 0 20 27 20 44c0 55 -39 86 -92 86c-44 0 -81 -19 -119 -39l-29 73c27 18 57 34 92 50
c49 19 85 27 136 27c100 0 169 -67 169 -150c0 -54 -27 -91 -71 -120c56 -26 94 -79 94 -140c0 -56 -29 -104 -81 -132z" />
    <glyph glyph-name="four.sc" unicode="&#xe10e;" horiz-adv-x="510" 
d="M286 0v116h-275v61l280 407h149l-262 -356v-1h108v86l154 23v-109h57v-110h-57v-117h-154z" />
    <glyph glyph-name="five.sc" unicode="&#xe10f;" horiz-adv-x="511" 
d="M395 55l-70 -39c-34 -18 -78 -28 -120 -28c-64 0 -124 18 -178 50l70 129c65 -44 121 -67 176 -67c9 0 18 2 25 4c19 20 26 45 26 72c0 59 -45 114 -106 114c-31 0 -60 -10 -87 -26l-77 20l46 300h368l-46 -118l-218 4l-16 -100c31 10 63 16 98 16
c113 0 198 -71 198 -176c0 -66 -33 -125 -89 -155z" />
    <glyph glyph-name="six.sc" unicode="&#xe110;" horiz-adv-x="511" 
d="M396 47l-69 -40c-27 -14 -65 -19 -104 -19c-115 0 -204 90 -204 199c0 49 13 98 37 148c41 83 107 162 190 249h161c-64 -68 -124 -144 -169 -210c18 8 39 12 62 12c114 0 192 -78 192 -175c0 -68 -40 -134 -96 -164zM182 213c0 -62 45 -113 115 -113c24 0 46 38 46 75
c0 63 -43 113 -117 113c-29 0 -44 -44 -44 -75z" />
    <glyph glyph-name="seven.sc" unicode="&#xe111;" horiz-adv-x="510" 
d="M113 0l212 470l-314 -4l47 118h421v-63l-212 -521h-154z" />
    <glyph glyph-name="eight.sc" unicode="&#xe112;" horiz-adv-x="511" 
d="M392 53l-69 -39c-29 -17 -64 -26 -101 -26c-108 0 -188 70 -188 162c0 63 41 111 94 135c-48 20 -81 65 -81 120s30 101 78 128l69 39c27 16 60 24 95 24c98 0 175 -65 175 -151c0 -50 -26 -96 -81 -123c55 -21 94 -73 94 -132c0 -60 -34 -109 -85 -137zM314 402
c0 37 -28 85 -86 85c-21 0 -30 -23 -30 -45c0 -34 28 -87 86 -87c19 0 30 24 30 47zM316 153c0 52 -34 93 -88 93c-21 0 -34 -29 -34 -54c0 -50 37 -92 88 -92c21 0 34 33 34 53z" />
    <glyph glyph-name="nine.sc" unicode="&#xe113;" horiz-adv-x="511" 
d="M264 0h-161c63 68 124 142 169 209c-19 -6 -40 -11 -62 -11c-113 0 -191 78 -191 176c0 67 39 133 95 164l70 39c26 14 65 19 104 19c115 0 203 -90 203 -199c0 -49 -13 -98 -36 -147c-41 -83 -107 -163 -191 -250zM329 371c0 62 -45 114 -113 114c-26 0 -48 -38 -48 -75
c0 -64 43 -113 116 -113c26 0 44 35 45 74z" />
    <glyph glyph-name="zero.denominator" unicode="&#xe14f;" horiz-adv-x="381" 
d="M285 35l-53 -28c-20 -9 -42 -15 -69 -15c-110 0 -151 94 -151 194c0 76 23 148 82 179l54 28c19 10 42 16 69 16c111 0 152 -95 152 -195c0 -76 -23 -149 -84 -179zM247 186c0 70 -16 143 -78 143c-7 0 -13 -11 -17 -18c-12 -27 -17 -63 -17 -97c0 -73 19 -142 80 -142
c7 0 13 11 17 19c11 25 15 62 15 95z" />
    <glyph glyph-name="one.denominator" unicode="&#xe146;" horiz-adv-x="381" 
d="M166 0v280l-91 -48l-42 66l192 103h60v-401h-119z" />
    <glyph glyph-name="two.denominator" unicode="&#xe147;" horiz-adv-x="381" 
d="M27 0v45l135 123c37 34 63 63 63 104c0 34 -33 57 -69 57c-41 0 -66 -17 -102 -36l-31 49c22 15 45 29 73 42c34 16 72 25 107 25c83 0 146 -40 146 -115c0 -56 -27 -96 -78 -138l-94 -74l190 3l-36 -85h-304z" />
    <glyph glyph-name="three.denominator" unicode="&#xe148;" horiz-adv-x="381" 
d="M292 38l-54 -27c-22 -12 -50 -19 -84 -19c-50 0 -84 11 -125 34l42 95c47 -37 88 -54 129 -54c6 0 11 2 16 4c9 9 13 23 13 36c0 35 -33 61 -75 61h-37l22 77h53c12 0 22 17 22 27c0 36 -29 57 -66 57c-33 0 -61 -12 -89 -26l-22 53c20 12 43 23 69 34
c37 13 64 19 103 19c74 0 125 -47 125 -104c0 -36 -20 -61 -51 -81c42 -18 69 -54 69 -95c0 -38 -22 -72 -60 -91z" />
    <glyph glyph-name="four.denominator" unicode="&#xe149;" horiz-adv-x="381" 
d="M211 0v79h-203v43l206 279h115l-193 -242h75v57l118 19v-76h43v-80h-43v-79h-118z" />
    <glyph glyph-name="five.denominator" unicode="&#xe14a;" horiz-adv-x="381" 
d="M295 39l-53 -28c-25 -13 -58 -19 -90 -19c-47 0 -93 13 -133 34l55 92c48 -30 89 -46 130 -46c22 0 34 23 34 48c0 41 -32 77 -76 77c-22 0 -44 -7 -63 -18l-59 15l35 207h275l-35 -85l-161 3l-12 -64c23 7 47 11 72 11c85 0 147 -48 147 -121c0 -46 -24 -86 -66 -106z
" />
    <glyph glyph-name="six.denominator" unicode="&#xe14b;" horiz-adv-x="381" 
d="M297 33l-53 -28c-20 -10 -49 -13 -78 -13c-86 0 -152 62 -152 137c0 34 10 67 28 102c30 56 78 111 140 170h123c-45 -46 -92 -98 -125 -142c13 4 28 7 45 7c85 0 143 -54 143 -121c0 -46 -30 -92 -71 -112zM139 147c0 -41 34 -75 84 -75c17 0 31 30 31 48
c0 43 -31 75 -85 75c-18 0 -30 -26 -30 -48z" />
    <glyph glyph-name="seven.denominator" unicode="&#xe14c;" horiz-adv-x="381" 
d="M84 0l156 319l-232 -3l35 85h316v-46l-158 -355h-117z" />
    <glyph glyph-name="eight.denominator" unicode="&#xe14d;" horiz-adv-x="381" 
d="M294 38l-53 -29c-22 -11 -48 -17 -76 -17c-80 0 -140 47 -140 111c0 35 21 66 54 84c5 2 11 6 15 8c-35 14 -59 44 -59 81c0 38 22 69 58 88l52 28c21 10 46 17 72 17c72 0 129 -46 129 -104c0 -35 -18 -63 -47 -78c-3 -2 -7 -4 -10 -5c41 -16 67 -51 67 -90
c0 -42 -25 -75 -62 -94zM241 107c0 34 -35 62 -75 62c-13 0 -25 -12 -25 -33c0 -35 34 -64 75 -64c14 0 24 18 25 35zM240 272c0 25 -25 58 -74 58c-16 0 -22 -14 -22 -28c0 -21 20 -59 74 -59c13 0 22 15 22 29z" />
    <glyph glyph-name="nine.denominator" unicode="&#xe14e;" horiz-adv-x="381" 
d="M199 0h-123c46 46 92 98 125 142c-14 -5 -29 -7 -45 -7c-85 0 -143 53 -143 120c0 46 30 92 72 113l52 27c20 10 49 14 78 14c86 0 152 -62 152 -137c0 -34 -9 -67 -27 -103c-30 -56 -79 -110 -141 -169zM242 254c0 40 -34 75 -81 75c-20 0 -33 -27 -33 -49
c0 -42 30 -74 83 -74c19 0 31 23 31 48z" />
    <glyph glyph-name="zero.numerator" unicode="&#xe145;" horiz-adv-x="381" 
d="M285 369l-53 -28c-20 -9 -42 -15 -69 -15c-110 0 -151 94 -151 194c0 76 23 148 82 179l54 28c19 10 42 16 69 16c111 0 152 -95 152 -195c0 -76 -23 -149 -84 -179zM247 520c0 70 -16 143 -78 143c-7 0 -13 -11 -17 -18c-12 -27 -17 -63 -17 -97c0 -73 19 -142 80 -142
c7 0 13 11 17 19c11 25 15 62 15 95z" />
    <glyph glyph-name="one.numerator" unicode="&#xe13c;" horiz-adv-x="381" 
d="M166 334v280l-91 -48l-42 66l192 103h60v-401h-119z" />
    <glyph glyph-name="two.numerator" unicode="&#xe13d;" horiz-adv-x="381" 
d="M27 334v45l135 123c37 34 63 63 63 104c0 34 -33 57 -69 57c-41 0 -66 -17 -102 -36l-31 49c22 15 45 29 73 42c34 16 72 25 107 25c83 0 146 -40 146 -115c0 -56 -27 -96 -78 -138l-94 -74l190 3l-36 -85h-304z" />
    <glyph glyph-name="three.numerator" unicode="&#xe13e;" horiz-adv-x="381" 
d="M292 372l-54 -27c-22 -12 -50 -19 -84 -19c-50 0 -84 11 -125 34l42 95c47 -37 88 -54 129 -54c6 0 11 2 16 4c9 9 13 23 13 36c0 35 -33 61 -75 61h-37l22 77h53c12 0 22 17 22 27c0 36 -29 57 -66 57c-33 0 -61 -12 -89 -26l-22 53c20 12 43 23 69 34
c37 13 64 19 103 19c74 0 125 -47 125 -104c0 -36 -20 -61 -51 -81c42 -18 69 -54 69 -95c0 -38 -22 -72 -60 -91z" />
    <glyph glyph-name="four.numerator" unicode="&#xe13f;" horiz-adv-x="381" 
d="M211 334v79h-203v43l206 279h115l-193 -242h75v57l118 19v-76h43v-80h-43v-79h-118z" />
    <glyph glyph-name="five.numerator" unicode="&#xe140;" horiz-adv-x="381" 
d="M295 373l-53 -28c-25 -13 -58 -19 -90 -19c-47 0 -93 13 -133 34l55 92c48 -30 89 -46 130 -46c22 0 34 23 34 48c0 41 -32 77 -76 77c-22 0 -44 -7 -63 -18l-59 15l35 207h275l-35 -85l-161 3l-12 -64c23 7 47 11 72 11c85 0 147 -48 147 -121c0 -46 -24 -86 -66 -106z
" />
    <glyph glyph-name="six.numerator" unicode="&#xe141;" horiz-adv-x="381" 
d="M297 367l-53 -28c-20 -10 -49 -13 -78 -13c-86 0 -152 62 -152 137c0 34 10 67 28 102c30 56 78 111 140 170h123c-45 -46 -92 -98 -125 -142c13 4 28 7 45 7c85 0 143 -54 143 -121c0 -46 -30 -92 -71 -112zM139 481c0 -41 34 -75 84 -75c17 0 31 30 31 48
c0 43 -31 75 -85 75c-18 0 -30 -26 -30 -48z" />
    <glyph glyph-name="seven.numerator" unicode="&#xe142;" horiz-adv-x="381" 
d="M84 334l156 319l-232 -3l35 85h316v-46l-158 -355h-117z" />
    <glyph glyph-name="eight.numerator" unicode="&#xe143;" horiz-adv-x="381" 
d="M294 372l-53 -29c-22 -11 -48 -17 -76 -17c-80 0 -140 47 -140 111c0 35 21 66 54 84c5 2 11 6 15 8c-35 14 -59 44 -59 81c0 38 22 69 58 88l52 28c21 10 46 17 72 17c72 0 129 -46 129 -104c0 -35 -18 -63 -47 -78c-3 -2 -7 -4 -10 -5c41 -16 67 -51 67 -90
c0 -42 -25 -75 -62 -94zM241 441c0 34 -35 62 -75 62c-13 0 -25 -12 -25 -33c0 -35 34 -64 75 -64c14 0 24 18 25 35zM240 606c0 25 -25 58 -74 58c-16 0 -22 -14 -22 -28c0 -21 20 -59 74 -59c13 0 22 15 22 29z" />
    <glyph glyph-name="nine.numerator" unicode="&#xe144;" horiz-adv-x="381" 
d="M199 334h-123c46 46 92 98 125 142c-14 -5 -29 -7 -45 -7c-85 0 -143 53 -143 120c0 46 30 92 72 113l52 27c20 10 49 14 78 14c86 0 152 -62 152 -137c0 -34 -9 -67 -27 -103c-30 -56 -79 -110 -141 -169zM242 588c0 40 -34 75 -81 75c-20 0 -33 -27 -33 -49
c0 -42 30 -74 83 -74c19 0 31 23 31 48z" />
    <glyph glyph-name="zero.superior" unicode="&#x2070;" horiz-adv-x="381" 
d="M285 483l-53 -28c-20 -9 -42 -15 -69 -15c-110 0 -151 94 -151 194c0 76 23 148 82 179l54 28c19 10 42 16 69 16c111 0 152 -95 152 -195c0 -76 -23 -149 -84 -179zM247 634c0 70 -16 143 -78 143c-7 0 -13 -11 -17 -18c-12 -27 -17 -63 -17 -97c0 -73 19 -142 80 -142
c7 0 13 11 17 19c11 25 15 62 15 95z" />
    <glyph glyph-name="four.superior" unicode="&#x2074;" horiz-adv-x="381" 
d="M211 448v79h-203v43l206 279h115l-193 -242h75v57l118 19v-76h43v-80h-43v-79h-118z" />
    <glyph glyph-name="five.superior" unicode="&#x2075;" horiz-adv-x="381" 
d="M295 487l-53 -28c-25 -13 -58 -19 -90 -19c-47 0 -93 13 -133 34l55 92c48 -30 89 -46 130 -46c22 0 34 23 34 48c0 41 -32 77 -76 77c-22 0 -44 -7 -63 -18l-59 15l35 207h275l-35 -85l-161 3l-12 -64c23 7 47 11 72 11c85 0 147 -48 147 -121c0 -46 -24 -86 -66 -106z
" />
    <glyph glyph-name="six.superior" unicode="&#x2076;" horiz-adv-x="381" 
d="M297 481l-53 -28c-20 -10 -49 -13 -78 -13c-86 0 -152 62 -152 137c0 34 10 67 28 102c30 56 78 111 140 170h123c-45 -46 -92 -98 -125 -142c13 4 28 7 45 7c85 0 143 -54 143 -121c0 -46 -30 -92 -71 -112zM139 595c0 -41 34 -75 84 -75c17 0 31 30 31 48
c0 43 -31 75 -85 75c-18 0 -30 -26 -30 -48z" />
    <glyph glyph-name="seven.superior" unicode="&#x2077;" horiz-adv-x="381" 
d="M84 448l156 319l-232 -3l35 85h316v-46l-158 -355h-117z" />
    <glyph glyph-name="eight.superior" unicode="&#x2078;" horiz-adv-x="381" 
d="M294 486l-53 -29c-22 -11 -48 -17 -76 -17c-80 0 -140 47 -140 111c0 35 21 66 54 84c5 2 11 6 15 8c-35 14 -59 44 -59 81c0 38 22 69 58 88l52 28c21 10 46 17 72 17c72 0 129 -46 129 -104c0 -35 -18 -63 -47 -78c-3 -2 -7 -4 -10 -5c41 -16 67 -51 67 -90
c0 -42 -25 -75 -62 -94zM241 555c0 34 -35 62 -75 62c-13 0 -25 -12 -25 -33c0 -35 34 -64 75 -64c14 0 24 18 25 35zM240 720c0 25 -25 58 -74 58c-16 0 -22 -14 -22 -28c0 -21 20 -59 74 -59c13 0 22 15 22 29z" />
    <glyph glyph-name="nine.superior" unicode="&#x2079;" horiz-adv-x="381" 
d="M199 448h-123c46 46 92 98 125 142c-14 -5 -29 -7 -45 -7c-85 0 -143 53 -143 120c0 46 30 92 72 113l52 27c20 10 49 14 78 14c86 0 152 -62 152 -137c0 -34 -9 -67 -27 -103c-30 -56 -79 -110 -141 -169zM242 702c0 40 -34 75 -81 75c-20 0 -33 -27 -33 -49
c0 -42 30 -74 83 -74c19 0 31 23 31 48z" />
    <glyph glyph-name="zero.inferior" unicode="&#x2080;" horiz-adv-x="381" 
d="M285 -79l-53 -28c-20 -9 -42 -15 -69 -15c-110 0 -151 94 -151 194c0 76 23 148 82 179l54 28c19 10 42 16 69 16c111 0 152 -95 152 -195c0 -76 -23 -149 -84 -179zM247 72c0 70 -16 143 -78 143c-7 0 -13 -11 -17 -18c-12 -27 -17 -63 -17 -97c0 -73 19 -142 80 -142
c7 0 13 11 17 19c11 25 15 62 15 95z" />
    <glyph glyph-name="one.inferior" unicode="&#x2081;" horiz-adv-x="381" 
d="M166 -114v280l-91 -48l-42 66l192 103h60v-401h-119z" />
    <glyph glyph-name="two.inferior" unicode="&#x2082;" horiz-adv-x="381" 
d="M27 -114v45l135 123c37 34 63 63 63 104c0 34 -33 57 -69 57c-41 0 -66 -17 -102 -36l-31 49c22 15 45 29 73 42c34 16 72 25 107 25c83 0 146 -40 146 -115c0 -56 -27 -96 -78 -138l-94 -74l190 3l-36 -85h-304z" />
    <glyph glyph-name="three.inferior" unicode="&#x2083;" horiz-adv-x="381" 
d="M292 -76l-54 -27c-22 -12 -50 -19 -84 -19c-50 0 -84 11 -125 34l42 95c47 -37 88 -54 129 -54c6 0 11 2 16 4c9 9 13 23 13 36c0 35 -33 61 -75 61h-37l22 77h53c12 0 22 17 22 27c0 36 -29 57 -66 57c-33 0 -61 -12 -89 -26l-22 53c20 12 43 23 69 34
c37 13 64 19 103 19c74 0 125 -47 125 -104c0 -36 -20 -61 -51 -81c42 -18 69 -54 69 -95c0 -38 -22 -72 -60 -91z" />
    <glyph glyph-name="four.inferior" unicode="&#x2084;" horiz-adv-x="381" 
d="M211 -114v79h-203v43l206 279h115l-193 -242h75v57l118 19v-76h43v-80h-43v-79h-118z" />
    <glyph glyph-name="five.inferior" unicode="&#x2085;" horiz-adv-x="381" 
d="M295 -75l-53 -28c-25 -13 -58 -19 -90 -19c-47 0 -93 13 -133 34l55 92c48 -30 89 -46 130 -46c22 0 34 23 34 48c0 41 -32 77 -76 77c-22 0 -44 -7 -63 -18l-59 15l35 207h275l-35 -85l-161 3l-12 -64c23 7 47 11 72 11c85 0 147 -48 147 -121c0 -46 -24 -86 -66 -106z
" />
    <glyph glyph-name="six.inferior" unicode="&#x2086;" horiz-adv-x="381" 
d="M297 -81l-53 -28c-20 -10 -49 -13 -78 -13c-86 0 -152 62 -152 137c0 34 10 67 28 102c30 56 78 111 140 170h123c-45 -46 -92 -98 -125 -142c13 4 28 7 45 7c85 0 143 -54 143 -121c0 -46 -30 -92 -71 -112zM139 33c0 -41 34 -75 84 -75c17 0 31 30 31 48
c0 43 -31 75 -85 75c-18 0 -30 -26 -30 -48z" />
    <glyph glyph-name="seven.inferior" unicode="&#x2087;" horiz-adv-x="381" 
d="M84 -114l156 319l-232 -3l35 85h316v-46l-158 -355h-117z" />
    <glyph glyph-name="eight.inferior" unicode="&#x2088;" horiz-adv-x="381" 
d="M294 -76l-53 -29c-22 -11 -48 -17 -76 -17c-80 0 -140 47 -140 111c0 35 21 66 54 84c5 2 11 6 15 8c-35 14 -59 44 -59 81c0 38 22 69 58 88l52 28c21 10 46 17 72 17c72 0 129 -46 129 -104c0 -35 -18 -63 -47 -78c-3 -2 -7 -4 -10 -5c41 -16 67 -51 67 -90
c0 -42 -25 -75 -62 -94zM241 -7c0 34 -35 62 -75 62c-13 0 -25 -12 -25 -33c0 -35 34 -64 75 -64c14 0 24 18 25 35zM240 158c0 25 -25 58 -74 58c-16 0 -22 -14 -22 -28c0 -21 20 -59 74 -59c13 0 22 15 22 29z" />
    <glyph glyph-name="nine.inferior" unicode="&#x2089;" horiz-adv-x="381" 
d="M199 -114h-123c46 46 92 98 125 142c-14 -5 -29 -7 -45 -7c-85 0 -143 53 -143 120c0 46 30 92 72 113l52 27c20 10 49 14 78 14c86 0 152 -62 152 -137c0 -34 -9 -67 -27 -103c-30 -56 -79 -110 -141 -169zM242 140c0 40 -34 75 -81 75c-20 0 -33 -27 -33 -49
c0 -42 30 -74 83 -74c19 0 31 23 31 48z" />
    <glyph glyph-name="acute" unicode="&#xb4;" 
d="M242 545l-73 30l112 165l110 -41z" />
    <glyph glyph-name="acute.cap" unicode="&#xe301;" 
d="M242 766l-73 31l112 165l110 -41z" />
    <glyph glyph-name="acute.sc" unicode="&#xe321;" 
d="M242 628l-73 30l112 165l110 -41z" />
    <glyph glyph-name="breve" unicode="&#x2d8;" 
d="M88 704h62c12 -49 54 -63 100 -63c45 0 88 14 100 63h62c-8 -91 -72 -148 -162 -148c-92 0 -153 56 -162 148z" />
    <glyph glyph-name="breve.cap" unicode="&#xe307;" 
d="M88 925h62c12 -49 54 -62 100 -62c45 0 88 14 100 62h62c-8 -90 -72 -147 -162 -147c-92 0 -153 56 -162 147z" />
    <glyph glyph-name="breve.sc" unicode="&#xe327;" 
d="M88 787h62c12 -49 54 -63 100 -63c45 0 88 14 100 63h62c-8 -91 -72 -148 -162 -148c-92 0 -153 56 -162 148z" />
    <glyph glyph-name="caron" unicode="&#x2c7;" 
d="M227 547l-145 137l52 48l116 -83l117 83l51 -48l-145 -137h-46z" />
    <glyph glyph-name="caron.alt" unicode="&#xe30b;" 
d="M245 532l-64 22c19 26 35 53 46 82c-20 12 -32 30 -32 54c0 36 31 58 62 58c40 0 62 -30 62 -67c0 -49 -27 -107 -74 -149z" />
    <glyph glyph-name="caron.cap" unicode="&#xe303;" 
d="M227 769l-145 136l52 49l116 -83l117 83l51 -49l-145 -136h-46z" />
    <glyph glyph-name="caron.sc" unicode="&#xe323;" 
d="M227 630l-145 137l52 48l116 -83l117 83l51 -48l-145 -137h-46z" />
    <glyph glyph-name="cedilla" unicode="&#xb8;" 
d="M133 -185l3 48c27 -7 56 -13 84 -14c26 0 57 4 57 38c0 33 -40 31 -64 32l7 81h48l-4 -34c56 -5 103 -31 103 -85c0 -69 -55 -94 -117 -94c-41 0 -80 12 -117 28z" />
    <glyph glyph-name="circumflex" unicode="&#x2c6;" 
d="M133 549l-51 47l146 137h46l144 -138l-52 -48l-115 84z" />
    <glyph glyph-name="circumflex.cap" unicode="&#xe302;" 
d="M133 771l-51 47l146 137h46l144 -138l-52 -48l-115 83z" />
    <glyph glyph-name="circumflex.sc" unicode="&#xe322;" 
d="M133 632l-51 47l146 137h46l144 -138l-52 -48l-115 84z" />
    <glyph glyph-name="commaaccent" unicode="&#xe30c;" 
d="M245 -253l-64 22c19 26 35 53 46 83c-20 11 -32 30 -32 53c0 36 31 59 62 59c40 0 62 -31 62 -67c0 -50 -27 -108 -74 -150z" />
    <glyph glyph-name="commaaccent.alt" unicode="&#xe30d;" 
d="M254 763l64 -22c-19 -27 -35 -53 -46 -83c20 -12 32 -30 32 -53c0 -37 -31 -59 -62 -59c-40 0 -62 30 -62 67c0 49 27 107 74 150z" />
    <glyph glyph-name="dieresis" unicode="&#xa8;" 
d="M422 627c0 -37 -30 -67 -68 -67c-37 0 -67 30 -67 67c0 36 32 68 67 68c37 0 68 -31 68 -68zM213 627c0 -37 -30 -67 -67 -67s-68 30 -68 67c0 36 32 68 68 68s67 -31 67 -68z" />
    <glyph glyph-name="dieresis.cap" unicode="&#xe305;" 
d="M422 849c0 -38 -30 -68 -68 -68c-37 0 -67 30 -67 68c0 36 32 68 67 68c37 0 68 -31 68 -68zM213 849c0 -38 -30 -68 -67 -68s-68 31 -68 68c0 36 32 68 68 68s67 -31 67 -68z" />
    <glyph glyph-name="dieresis.sc" unicode="&#xe325;" 
d="M422 710c0 -37 -30 -67 -68 -67c-37 0 -67 30 -67 67c0 36 32 68 67 68c37 0 68 -31 68 -68zM213 710c0 -37 -30 -67 -67 -67s-68 30 -68 67c0 36 32 68 68 68s67 -31 67 -68z" />
    <glyph glyph-name="dotaccent" unicode="&#x2d9;" 
d="M319 627c0 -38 -31 -68 -69 -68s-69 31 -69 68s32 69 69 69c38 0 69 -31 69 -69z" />
    <glyph glyph-name="dotaccent.cap" unicode="&#xe30a;" 
d="M319 849c0 -38 -31 -69 -69 -69s-69 31 -69 69c0 37 32 69 69 69c38 0 69 -31 69 -69z" />
    <glyph glyph-name="dotaccent.sc" unicode="&#xe32a;" 
d="M319 710c0 -38 -31 -68 -69 -68s-69 31 -69 68s32 69 69 69c38 0 69 -31 69 -69z" />
    <glyph glyph-name="grave.cap" unicode="&#xe300;" 
d="M258 766l-149 155l110 41l112 -165z" />
    <glyph glyph-name="grave.sc" unicode="&#xe320;" 
d="M258 628l-149 154l110 41l112 -165z" />
    <glyph glyph-name="hungarumlaut" unicode="&#x2dd;" 
d="M322 545l-73 30l112 165l110 -41zM161 545l-72 30l111 165l111 -41z" />
    <glyph glyph-name="hungarumlaut.cap" unicode="&#xe309;" 
d="M322 766l-73 31l112 165l110 -41zM161 766l-72 31l111 165l111 -41z" />
    <glyph glyph-name="hungarumlaut.sc" unicode="&#xe329;" 
d="M322 628l-73 30l112 165l110 -41zM161 628l-72 30l111 165l111 -41z" />
    <glyph glyph-name="macron" unicode="&#xaf;" 
d="M92 574v80h317v-80h-317z" />
    <glyph glyph-name="macron.cap" unicode="&#xe306;" 
d="M92 795v81h317v-81h-317z" />
    <glyph glyph-name="macron.sc" unicode="&#xe326;" 
d="M92 657v80h317v-80h-317z" />
    <glyph glyph-name="ogonek" unicode="&#x2db;" 
d="M334 -124l16 -62c-30 -17 -63 -27 -100 -27c-54 0 -100 35 -100 92c0 56 47 94 91 121h58c-26 -19 -68 -52 -68 -92c0 -28 17 -46 48 -46c20 0 38 6 55 14z" />
    <glyph glyph-name="ring" unicode="&#x2da;" 
d="M383 650c0 -75 -66 -114 -133 -114c-68 0 -133 39 -133 114c0 73 65 114 133 114s133 -41 133 -114zM309 650c0 33 -29 51 -59 51s-59 -18 -59 -51c0 -32 29 -51 59 -51s59 19 59 51z" />
    <glyph glyph-name="ring.cap" unicode="&#xe308;" 
d="M383 871c0 -74 -66 -113 -133 -113c-68 0 -133 38 -133 113c0 74 65 115 133 115s133 -41 133 -115zM309 872c0 33 -29 51 -59 51s-59 -18 -59 -51s29 -51 59 -51s59 18 59 51z" />
    <glyph glyph-name="ring.sc" unicode="&#xe328;" 
d="M383 732c0 -74 -66 -113 -133 -113c-68 0 -133 39 -133 113s65 115 133 115s133 -41 133 -115zM309 733c0 33 -29 51 -59 51s-59 -18 -59 -51c0 -32 29 -51 59 -51s59 19 59 51z" />
    <glyph glyph-name="tilde" unicode="&#x2dc;" 
d="M140 560l-63 28c19 50 56 98 114 98c42 0 79 -35 120 -35c25 0 39 22 47 42l65 -25c-17 -50 -53 -103 -112 -103c-43 0 -84 36 -125 36c-25 0 -38 -21 -46 -41z" />
    <glyph glyph-name="tilde.cap" unicode="&#xe304;" 
d="M140 782l-63 28c19 50 56 98 114 98c42 0 79 -35 120 -35c25 0 39 22 47 42l65 -25c-17 -50 -53 -103 -112 -103c-43 0 -84 36 -125 36c-25 0 -38 -21 -46 -41z" />
    <glyph glyph-name="tilde.sc" unicode="&#xe324;" 
d="M140 643l-63 28c19 50 56 98 114 98c42 0 79 -35 120 -35c25 0 39 22 47 42l65 -25c-17 -50 -53 -103 -112 -103c-43 0 -84 36 -125 36c-25 0 -38 -21 -46 -41z" />
    <glyph glyph-name="uni0410" unicode="&#x410;" horiz-adv-x="726" 
d="M-19 0l293 662l-30 66h179l322 -728h-180l-77 175h-292l-48 -109l26 -66h-193zM249 293h187l-93 212z" />
    <glyph glyph-name="uni0411" unicode="&#x411;" horiz-adv-x="594" 
d="M58 0v662l-39 66h530l-45 -121h-283v-169h131c118 0 216 -83 216 -198c0 -89 -50 -142 -127 -187c-60 -33 -115 -53 -184 -53h-199zM221 119h102c54 0 78 32 78 82c0 70 -56 123 -127 123h-53v-205z" />
    <glyph glyph-name="uni0412" unicode="&#x412;" horiz-adv-x="594" 
d="M58 0v662l-39 66h329c111 0 193 -77 193 -181c0 -62 -32 -110 -73 -135l-14 -9c-3 -2 -6 -3 -9 -4c67 -24 122 -81 123 -164c0 -70 -39 -130 -96 -164l-73 -43c-32 -18 -71 -28 -113 -28h-228zM220 119h133c8 0 15 3 21 7c16 17 25 43 25 71c0 68 -53 124 -119 124h-60
v-202zM220 433h114c7 0 15 3 20 8c14 14 22 34 23 58c0 61 -47 110 -107 110h-50v-176z" />
    <glyph glyph-name="uni0413" unicode="&#x413;" horiz-adv-x="536" 
d="M58 0v662l-39 66h516l-46 -122h-266v-606h-165z" />
    <glyph glyph-name="uni0414" unicode="&#x414;" horiz-adv-x="717" 
d="M-13 -160v283h71c35 188 104 368 191 539l-39 66h432v-605h80v-283h-155v160h-425v-160h-155zM211 123h266v484h-128c-66 -150 -115 -317 -138 -484z" />
    <glyph glyph-name="uni0415" unicode="&#x415;" horiz-adv-x="553" 
d="M58 0v662l-39 66h512l-46 -121h-262v-170h298l-46 -121h-252v-195h318l-46 -121h-437z" />
    <glyph glyph-name="uni0416" unicode="&#x416;" horiz-adv-x="967" 
d="M182 0h-202c69 148 162 284 265 405l-240 323h167l43 -66l176 -244l14 -19v263l-39 66h201v-329l13 19l176 244l-21 66h231l-240 -323c103 -121 196 -257 265 -405h-202c-53 112 -121 220 -197 317l-25 -18v-299h-162v299l-26 18c-76 -97 -144 -205 -197 -317z" />
    <glyph glyph-name="uni0417" unicode="&#x417;" horiz-adv-x="556" 
d="M431 58l-54 -29c-52 -30 -101 -46 -160 -46c-80 0 -140 22 -204 66l56 142c59 -52 127 -89 210 -94c45 0 81 15 81 94c0 69 -58 127 -138 127h-66l42 114h94c32 0 46 41 46 73c0 71 -54 116 -125 116c-60 0 -109 -22 -156 -51l-29 88c96 57 157 84 262 84
c117 0 214 -68 214 -187c0 -65 -35 -118 -95 -155c70 -33 121 -97 121 -176c0 -77 -46 -136 -99 -166z" />
    <glyph glyph-name="uni0418" unicode="&#x418;" horiz-adv-x="728" 
d="M58 0v662l-39 66h204v-467l300 467h148v-728h-166v467l-300 -467h-147z" />
    <glyph glyph-name="uni041A" unicode="&#x41a;" horiz-adv-x="661" 
d="M58 0v662l-39 66h204v-327l14 17l200 244l-24 66h242l-271 -323c113 -121 222 -257 298 -405h-209c-59 112 -141 221 -224 317l-26 -17v-300h-165z" />
    <glyph glyph-name="uni041B" unicode="&#x41b;" horiz-adv-x="678" 
d="M209 0h-191c23 233 104 455 209 662l-39 66h432v-728h-165v607h-128c-72 -167 -126 -355 -144 -541z" />
    <glyph glyph-name="uni041D" unicode="&#x41d;" horiz-adv-x="704" 
d="M58 0v662l-39 66h204v-288h258v222l-38 66h204v-728h-166v315h-258v-315h-165z" />
    <glyph glyph-name="uni041E" unicode="&#x41e;" horiz-adv-x="833" 
d="M639 76l-73 -43c-54 -31 -117 -48 -186 -48c-206 0 -362 159 -362 358c0 132 69 245 176 308l73 43c53 31 117 49 186 49c208 0 363 -159 363 -358c0 -133 -69 -248 -177 -309zM547 122c66 46 100 130 100 221c0 154 -112 280 -267 280c-34 0 -68 0 -93 -18
c-67 -46 -100 -130 -100 -220c0 -154 112 -280 266 -280c34 0 68 -1 94 17z" />
    <glyph glyph-name="uni041F" unicode="&#x41f;" horiz-adv-x="704" 
d="M58 0v662l-39 66h628v-728h-166v605h-258v-605h-165z" />
    <glyph glyph-name="uni0420" unicode="&#x420;" horiz-adv-x="595" 
d="M58 0v662l-39 66h330c130 0 229 -97 229 -219c0 -79 -42 -147 -108 -185l-73 -42c-35 -21 -76 -32 -122 -32h-52v-250h-165zM223 369h119c10 0 23 3 32 9c24 21 37 52 37 88c0 78 -65 143 -144 143h-44v-240z" />
    <glyph glyph-name="uni0421" unicode="&#x421;" horiz-adv-x="682" 
d="M652 160l16 -83c-31 -20 -57 -35 -90 -51c-57 -28 -121 -41 -194 -41c-205 0 -366 160 -366 358c0 131 70 246 178 307l74 43c54 31 118 50 188 50c72 0 135 -15 193 -41l-56 -147c-57 38 -128 68 -210 68c-30 0 -67 -3 -94 -21c-68 -45 -104 -129 -104 -217
c0 -154 122 -280 277 -280c76 0 125 19 188 55z" />
    <glyph glyph-name="uni0422" unicode="&#x422;" horiz-adv-x="599" 
d="M217 0v606h-216l46 122h552l-46 -122h-171v-606h-165z" />
    <glyph glyph-name="uni0423" unicode="&#x423;" horiz-adv-x="667" 
d="M137 0l127 220l-274 508h192l180 -341l145 275l-25 66h210l-392 -728h-163z" />
    <glyph glyph-name="uni0424" unicode="&#x424;" horiz-adv-x="896" 
d="M367 0v89h-59c-149 0 -292 83 -292 256c0 88 40 158 107 206c38 26 74 47 113 65c39 17 81 25 131 27v21l-39 64h201v-84h59c149 0 292 -83 292 -257c0 -88 -40 -158 -107 -206c-38 -26 -74 -47 -113 -65c-40 -18 -82 -26 -131 -27v-89h-162zM529 207h86c11 0 27 5 37 10
c40 17 62 85 62 130c0 69 -39 129 -97 155c-27 14 -57 21 -88 23v-318zM367 207v316h-89c-12 0 -24 -3 -34 -8c-40 -17 -62 -84 -62 -130c0 -69 39 -129 97 -155c26 -14 56 -21 88 -23z" />
    <glyph glyph-name="uni0425" unicode="&#x425;" horiz-adv-x="670" 
d="M-20 0l256 377l-239 351h199l159 -237l116 171l-25 66h226l-238 -350l256 -378h-198l-178 263l-177 -263h-157z" />
    <glyph glyph-name="uni0426" unicode="&#x426;" horiz-adv-x="722" 
d="M572 -160v160h-514v662l-39 66h204v-605h258v539l-38 66h204v-605h80v-283h-155z" />
    <glyph glyph-name="uni0427" unicode="&#x427;" horiz-adv-x="670" 
d="M447 0v291c-48 -25 -98 -40 -159 -40c-131 0 -238 100 -238 237v174l-39 66h203v-193c0 -89 58 -159 147 -159c31 0 60 9 86 22v264l-38 66h204v-728h-166z" />
    <glyph glyph-name="uni0428" unicode="&#x428;" horiz-adv-x="956" 
d="M58 0v662l-39 66h201v-605h177v539l-39 66h201v-605h177v539l-38 66h200v-728h-840z" />
    <glyph glyph-name="uni0429" unicode="&#x429;" horiz-adv-x="973" 
d="M824 -160v160h-766v662l-39 66h201v-605h177v539l-39 66h201v-605h177v539l-38 66h200v-605h80v-283h-154z" />
    <glyph glyph-name="uni042C" unicode="&#x42c;" horiz-adv-x="595" 
d="M58 0v662l-39 66h204v-289h129c118 0 216 -84 216 -199c0 -89 -50 -142 -127 -187c-60 -33 -115 -53 -184 -53h-199zM223 119h100c54 0 77 32 77 81c0 70 -55 122 -123 122h-54v-203z" />
    <glyph glyph-name="uni042D" unicode="&#x42d;" horiz-adv-x="682" 
d="M13 26l57 145c68 -41 143 -66 230 -66c122 0 186 106 194 211h-307l46 121h245c-31 107 -127 186 -259 186c-62 0 -116 -16 -171 -43l-15 84c64 39 142 79 261 79c171 0 371 -134 371 -358c0 -229 -244 -400 -441 -400c-72 0 -145 14 -211 41z" />
    <glyph glyph-name="uni042E" unicode="&#x42e;" horiz-adv-x="1067" 
d="M58 0v662l-39 66h204v-289h90c51 178 238 304 395 304c190 0 341 -154 341 -358c0 -171 -91 -266 -236 -352c-54 -33 -111 -48 -174 -48c-181 0 -326 141 -340 331h-76v-316h-165zM790 125c57 41 83 125 88 196c2 25 1 49 -3 73c-18 129 -109 229 -234 229
c-122 0 -173 -121 -173 -238c0 -152 98 -281 238 -281c26 0 59 3 84 21z" />
    <glyph glyph-name="uni042F" unicode="&#x42f;" horiz-adv-x="624" 
d="M-22 0l213 299c-78 24 -136 94 -136 185c0 92 51 149 130 196c68 40 132 48 216 48h165v-728h-165v283h-35l-183 -283h-205zM353 391h48v218h-101c-56 0 -79 -40 -79 -88c0 -76 60 -130 132 -130z" />
    <glyph glyph-name="uni0430" unicode="&#x430;" horiz-adv-x="508" 
d="M473 -4h-52c-53 0 -92 17 -109 59c-16 -11 -40 -26 -56 -36l-12 -7c-27 -16 -54 -23 -82 -23c-79 0 -144 49 -144 133c0 59 27 100 72 126l69 40c35 20 82 31 134 36c0 6 0 13 -1 19c-6 42 -46 59 -88 59c-43 0 -86 -14 -124 -34l-25 64c23 15 48 29 70 40
c44 21 103 41 165 41c87 0 159 -44 159 -142v-208c0 -44 17 -61 62 -61h2zM297 117v122c-41 -1 -79 -3 -111 -16c-11 -13 -18 -29 -17 -50c0 -48 40 -78 89 -78c12 0 29 10 39 22z" />
    <glyph glyph-name="uni0431" unicode="&#x431;" horiz-adv-x="578" 
d="M471 749l37 -112c-133 -62 -334 -59 -373 -226c58 49 132 78 196 78c130 0 231 -96 231 -231c0 -79 -39 -154 -111 -197c-44 -28 -89 -56 -138 -65c-19 -5 -37 -7 -55 -7c-126 3 -224 104 -224 249c0 189 26 312 125 389c81 63 239 96 312 122zM361 107
c27 30 43 76 43 120c0 81 -48 147 -120 156c-16 2 -32 1 -44 -4c-34 -9 -48 -83 -48 -116c0 -78 45 -148 113 -161c10 -2 22 -2 34 -1c7 1 14 3 22 6z" />
    <glyph glyph-name="uni0432" unicode="&#x432;" horiz-adv-x="505" 
d="M53 0v442l-36 59h297c85 0 146 -52 146 -125c0 -42 -23 -73 -51 -90l-10 -6c-1 0 -2 -1 -4 -1c44 -18 84 -52 85 -107c0 -48 -29 -89 -72 -113l-68 -39c-24 -13 -54 -20 -87 -20h-200zM204 305h89c9 0 14 1 18 3c6 4 11 12 11 21c0 39 -34 71 -80 71h-38v-95zM204 103
h101c6 0 12 0 15 3c8 6 13 17 13 27c0 45 -36 80 -83 80h-46v-110z" />
    <glyph glyph-name="uni0433" unicode="&#x433;" horiz-adv-x="424" 
d="M53 0v442l-36 59h408l-42 -112h-176v-389h-154z" />
    <glyph glyph-name="uni0435" unicode="&#x435;" horiz-adv-x="548" 
d="M497 153l31 -65c-53 -41 -144 -99 -263 -99c-138 0 -250 98 -250 241c0 96 50 173 116 213l66 40c29 18 72 30 116 30c127 0 210 -103 210 -261v-32h-343c15 -72 84 -122 161 -122c62 0 100 16 156 55zM177 319h211c-18 50 -60 86 -124 86c-13 0 -34 -2 -44 -9
c-23 -17 -37 -45 -43 -77z" />
    <glyph glyph-name="uni0436" unicode="&#x436;" horiz-adv-x="758" 
d="M169 0h-179c46 102 109 194 180 279l-164 222h156l130 -194l12 -16v151l-35 59h186v-210l11 16l93 135l-24 59h216l-163 -222c72 -85 134 -177 180 -279h-179c-33 76 -74 148 -121 216l-13 -9v-207h-151v207l-14 9c-48 -68 -89 -140 -121 -216z" />
    <glyph glyph-name="uni0437" unicode="&#x437;" horiz-adv-x="444" 
d="M344 50l-48 -25c-43 -25 -80 -37 -129 -37c-61 0 -104 13 -156 42l52 129c47 -35 105 -66 162 -66c21 0 34 17 34 40c0 41 -37 72 -90 72h-51l38 105h60c15 0 25 10 25 28c0 37 -34 62 -79 62c-42 0 -77 -16 -111 -31l-28 80c62 34 123 61 208 61c89 0 165 -45 165 -130
c0 -37 -21 -74 -61 -98c49 -27 83 -67 83 -119c0 -55 -38 -94 -74 -113z" />
    <glyph glyph-name="uni043A" unicode="&#x43a;" horiz-adv-x="534" 
d="M53 0v442l-36 59h190v-225l28 32l110 134l-25 59h213l-177 -222c77 -85 146 -177 194 -279h-194c-34 70 -78 138 -127 201l-22 -10v-191h-154z" />
    <glyph glyph-name="uni043D" unicode="&#x43d;" horiz-adv-x="557" 
d="M53 0v442l-36 59h190v-185h142v126l-35 59h190v-501h-155v203h-142v-203h-154z" />
    <glyph glyph-name="uni043E" unicode="&#x43e;" horiz-adv-x="589" 
d="M456 62l-69 -39c-38 -22 -82 -34 -127 -34c-128 0 -245 93 -245 241c0 95 49 169 118 209l69 40c38 22 82 34 127 34c128 0 245 -95 245 -243c0 -96 -49 -168 -118 -208zM366 106c30 31 49 76 49 124c0 94 -64 172 -155 172c-14 0 -27 0 -37 -8c-33 -28 -49 -75 -49 -124
c0 -93 63 -170 155 -170c13 0 26 2 37 6z" />
    <glyph glyph-name="uni043F" unicode="&#x43f;" horiz-adv-x="557" 
d="M53 0v442l-36 59h487v-501h-155v389h-142v-389h-154z" />
    <glyph glyph-name="uni0440" unicode="&#x440;" horiz-adv-x="581" 
d="M53 -194v596l-36 61l186 50v-49c35 21 64 39 100 45c15 3 31 4 49 3c127 -7 214 -117 214 -242c0 -87 -39 -169 -117 -212l-69 -40c-35 -18 -71 -29 -111 -29c-21 0 -43 6 -62 16v-199h-154zM207 387v-241c24 -25 57 -40 92 -44c15 -2 33 -3 46 -1c43 7 64 89 64 129
c0 81 -53 153 -129 167c-14 3 -29 4 -43 3c-11 -2 -21 -7 -30 -13z" />
    </font>
</defs>
</svg>
